{
	"patcher" : 	{
		"fileversion" : 1,
		"appversion" : 		{
			"major" : 8,
			"minor" : 5,
			"revision" : 3,
			"architecture" : "x64",
			"modernui" : 1
		}
,
		"classnamespace" : "box",
		"rect" : [ 34.0, 100.0, 249.0, 302.0 ],
		"bglocked" : 0,
		"openinpresentation" : 0,
		"default_fontsize" : 12.0,
		"default_fontface" : 0,
		"default_fontname" : "Ableton Sans Medium",
		"gridonopen" : 1,
		"gridsize" : [ 15.0, 15.0 ],
		"gridsnaponopen" : 1,
		"objectsnaponopen" : 1,
		"statusbarvisible" : 2,
		"toolbarvisible" : 1,
		"lefttoolbarpinned" : 0,
		"toptoolbarpinned" : 0,
		"righttoolbarpinned" : 0,
		"bottomtoolbarpinned" : 0,
		"toolbars_unpinned_last_save" : 0,
		"tallnewobj" : 0,
		"boxanimatetime" : 200,
		"enablehscroll" : 1,
		"enablevscroll" : 1,
		"devicewidth" : 0.0,
		"description" : "",
		"digest" : "",
		"tags" : "",
		"style" : "",
		"subpatcher_template" : "%",
		"assistshowspatchername" : 0,
		"boxes" : [ 			{
				"box" : 				{
					"id" : "obj-7",
					"maxclass" : "toggle",
					"numinlets" : 1,
					"numoutlets" : 1,
					"outlettype" : [ "int" ],
					"parameter_enable" : 0,
					"patching_rect" : [ 148.171065612971404, 256.0, 24.0, 24.0 ]
				}

			}
, 			{
				"box" : 				{
					"id" : "obj-6",
					"maxclass" : "toggle",
					"numinlets" : 1,
					"numoutlets" : 1,
					"outlettype" : [ "int" ],
					"parameter_enable" : 0,
					"patching_rect" : [ 87.225651576787044, 256.0, 24.0, 24.0 ]
				}

			}
, 			{
				"box" : 				{
					"id" : "obj-5",
					"maxclass" : "toggle",
					"numinlets" : 1,
					"numoutlets" : 1,
					"outlettype" : [ "int" ],
					"parameter_enable" : 0,
					"patching_rect" : [ 25.280237540602684, 256.0, 24.0, 24.0 ]
				}

			}
, 			{
				"box" : 				{
					"format" : 6,
					"id" : "obj-14",
					"maxclass" : "flonum",
					"maximum" : 1.0,
					"minimum" : 0.0,
					"numinlets" : 1,
					"numoutlets" : 2,
					"outlettype" : [ "", "bang" ],
					"parameter_enable" : 0,
					"patching_rect" : [ 148.0, 24.297012329101562, 50.0, 23.0 ]
				}

			}
, 			{
				"box" : 				{
					"id" : "obj-12",
					"maxclass" : "message",
					"numinlets" : 2,
					"numoutlets" : 1,
					"outlettype" : [ "" ],
					"patching_rect" : [ 148.0, 57.0, 79.0, 23.0 ],
					"text" : "sensitivity $1"
				}

			}
, 			{
				"box" : 				{
					"bgmode" : 0,
					"border" : 1,
					"clickthrough" : 0,
					"enablehscroll" : 0,
					"enablevscroll" : 0,
					"id" : "obj-1",
					"lockeddragscroll" : 0,
					"lockedsize" : 0,
					"maxclass" : "bpatcher",
					"name" : "mo.key+.maxpat",
					"numinlets" : 2,
					"numoutlets" : 3,
					"offset" : [ 0.0, 0.0 ],
					"outlettype" : [ "", "", "" ],
					"patching_rect" : [ 25.280237540602684, 136.297012329101562, 142.0, 87.0 ],
					"varname" : "mo.key+",
					"viewvisibility" : 1
				}

			}
, 			{
				"box" : 				{
					"bgmode" : 0,
					"border" : 1,
					"clickthrough" : 0,
					"enablehscroll" : 0,
					"enablevscroll" : 0,
					"id" : "obj-10",
					"lockeddragscroll" : 0,
					"lockedsize" : 0,
					"maxclass" : "bpatcher",
					"name" : "mo.key.maxpat",
					"numinlets" : 1,
					"numoutlets" : 1,
					"offset" : [ 0.0, 0.0 ],
					"outlettype" : [ "" ],
					"patching_rect" : [ 25.280237540602684, 24.297012329101562, 70.0, 87.0 ],
					"varname" : "mo.key",
					"viewvisibility" : 1
				}

			}
 ],
		"lines" : [ 			{
				"patchline" : 				{
					"destination" : [ "obj-5", 0 ],
					"midpoints" : [ 34.780237540602684, 225.0, 34.780237540602684, 225.0 ],
					"source" : [ "obj-1", 0 ]
				}

			}
, 			{
				"patchline" : 				{
					"destination" : [ "obj-6", 0 ],
					"midpoints" : [ 96.280237540602684, 225.0, 96.725651576787044, 225.0 ],
					"source" : [ "obj-1", 1 ]
				}

			}
, 			{
				"patchline" : 				{
					"destination" : [ "obj-7", 0 ],
					"midpoints" : [ 157.780237540602684, 225.0, 157.671065612971404, 225.0 ],
					"source" : [ "obj-1", 2 ]
				}

			}
, 			{
				"patchline" : 				{
					"destination" : [ "obj-1", 0 ],
					"midpoints" : [ 34.780237540602684, 114.0, 34.780237540602684, 114.0 ],
					"source" : [ "obj-10", 0 ]
				}

			}
, 			{
				"patchline" : 				{
					"destination" : [ "obj-1", 1 ],
					"midpoints" : [ 157.5, 81.0, 157.780237540602684, 81.0 ],
					"source" : [ "obj-12", 0 ]
				}

			}
, 			{
				"patchline" : 				{
					"destination" : [ "obj-12", 0 ],
					"midpoints" : [ 157.5, 48.0, 157.5, 48.0 ],
					"source" : [ "obj-14", 0 ]
				}

			}
 ],
		"parameters" : 		{
			"obj-10::obj-15" : [ "live.text[32]", "live.text", 0 ],
			"obj-10::obj-8" : [ "live.text[188]", "live.text", 0 ],
			"obj-1::obj-126" : [ "live.text[62]", "live.text", 0 ],
			"obj-1::obj-51" : [ "live.numbox[4]", "live.numbox", 0 ],
			"obj-1::obj-74" : [ "live.text[33]", "live.text", 0 ],
			"obj-1::obj-75" : [ "live.text[50]", "live.text", 0 ],
			"obj-1::obj-78" : [ "live.text[58]", "live.text", 0 ],
			"parameterbanks" : 			{
				"0" : 				{
					"index" : 0,
					"name" : "",
					"parameters" : [ "-", "-", "-", "-", "-", "-", "-", "-" ]
				}

			}
,
			"inherited_shortname" : 1
		}
,
		"dependency_cache" : [ 			{
				"name" : "keys.txt",
				"bootpath" : "~/Documents/Max 8/Packages/%/misc/colls",
				"patcherrelativepath" : "../../misc/colls",
				"type" : "TEXT",
				"implicit" : 1
			}
, 			{
				"name" : "lock.svg",
				"bootpath" : "C74:/interfaces",
				"type" : "svg",
				"implicit" : 1
			}
, 			{
				"name" : "mo.key+.maxpat",
				"bootpath" : "~/Documents/Max 8/Packages/%/patchers/inputs",
				"patcherrelativepath" : "../../patchers/inputs",
				"type" : "JSON",
				"implicit" : 1
			}
, 			{
				"name" : "mo.key.maxpat",
				"bootpath" : "~/Documents/Max 8/Packages/%/patchers/inputs",
				"patcherrelativepath" : "../../patchers/inputs",
				"type" : "JSON",
				"implicit" : 1
			}
, 			{
				"name" : "unlock.svg",
				"bootpath" : "C74:/interfaces",
				"type" : "svg",
				"implicit" : 1
			}
 ],
		"autosave" : 0,
		"textcolor" : [ 0.0, 0.0, 0.0, 1.0 ],
		"bgcolor" : [ 0.529411764705882, 0.529411764705882, 0.529411764705882, 1.0 ],
		"editing_bgcolor" : [ 0.529411764705882, 0.529411764705882, 0.529411764705882, 1.0 ],
		"saved_attribute_attributes" : 		{
			"editing_bgcolor" : 			{
				"expression" : "themecolor.live_surface_bg"
			}
,
			"locked_bgcolor" : 			{
				"expression" : "themecolor.live_surface_bg"
			}

		}

	}

}
