{
	"patcher" : 	{
		"fileversion" : 1,
		"appversion" : 		{
			"major" : 8,
			"minor" : 6,
			"revision" : 4,
			"architecture" : "x64",
			"modernui" : 1
		}
,
		"classnamespace" : "box",
		"rect" : [ 0.0, 53.0, 214.0, 45.0 ],
		"openrect" : [ 0.0, 0.0, 214.0, 45.0 ],
		"bglocked" : 0,
		"openinpresentation" : 1,
		"default_fontsize" : 12.0,
		"default_fontface" : 0,
		"default_fontname" : "Ableton Sans Medium",
		"gridonopen" : 2,
		"gridsize" : [ 10.0, 10.0 ],
		"gridsnaponopen" : 1,
		"objectsnaponopen" : 1,
		"statusbarvisible" : 2,
		"toolbarvisible" : 1,
		"lefttoolbarpinned" : 0,
		"toptoolbarpinned" : 0,
		"righttoolbarpinned" : 0,
		"bottomtoolbarpinned" : 0,
		"toolbars_unpinned_last_save" : 3,
		"tallnewobj" : 0,
		"boxanimatetime" : 200,
		"enablehscroll" : 1,
		"enablevscroll" : 1,
		"devicewidth" : 0.0,
		"description" : "",
		"digest" : "",
		"tags" : "",
		"style" : "",
		"subpatcher_template" : " ",
		"helpsidebarclosed" : 1,
		"assistshowspatchername" : 0,
		"boxes" : [ 			{
				"box" : 				{
					"id" : "obj-30",
					"maxclass" : "message",
					"numinlets" : 2,
					"numoutlets" : 1,
					"outlettype" : [ "" ],
					"patching_rect" : [ 811.0, 384.0, 45.0, 23.0 ],
					"text" : "0 0 0 0"
				}

			}
, 			{
				"box" : 				{
					"id" : "obj-13",
					"maxclass" : "newobj",
					"numinlets" : 2,
					"numoutlets" : 2,
					"outlettype" : [ "", "" ],
					"patching_rect" : [ 1053.0, 126.0, 67.0, 23.0 ],
					"text" : "route done"
				}

			}
, 			{
				"box" : 				{
					"id" : "obj-89",
					"maxclass" : "newobj",
					"numinlets" : 2,
					"numoutlets" : 1,
					"outlettype" : [ "" ],
					"patching_rect" : [ 620.0, 723.0, 32.0, 23.0 ],
					"text" : "gate"
				}

			}
, 			{
				"box" : 				{
					"id" : "obj-90",
					"maxclass" : "newobj",
					"numinlets" : 2,
					"numoutlets" : 1,
					"outlettype" : [ "" ],
					"patching_rect" : [ 572.0, 723.0, 32.0, 23.0 ],
					"text" : "gate"
				}

			}
, 			{
				"box" : 				{
					"id" : "obj-87",
					"maxclass" : "newobj",
					"numinlets" : 2,
					"numoutlets" : 1,
					"outlettype" : [ "" ],
					"patching_rect" : [ 524.0, 723.0, 32.0, 23.0 ],
					"text" : "gate"
				}

			}
, 			{
				"box" : 				{
					"id" : "obj-88",
					"maxclass" : "newobj",
					"numinlets" : 2,
					"numoutlets" : 1,
					"outlettype" : [ "" ],
					"patching_rect" : [ 477.0, 723.0, 32.0, 23.0 ],
					"text" : "gate"
				}

			}
, 			{
				"box" : 				{
					"id" : "obj-85",
					"maxclass" : "newobj",
					"numinlets" : 2,
					"numoutlets" : 1,
					"outlettype" : [ "" ],
					"patching_rect" : [ 429.0, 723.0, 32.0, 23.0 ],
					"text" : "gate"
				}

			}
, 			{
				"box" : 				{
					"id" : "obj-86",
					"maxclass" : "newobj",
					"numinlets" : 2,
					"numoutlets" : 1,
					"outlettype" : [ "" ],
					"patching_rect" : [ 381.0, 723.0, 32.0, 23.0 ],
					"text" : "gate"
				}

			}
, 			{
				"box" : 				{
					"id" : "obj-83",
					"maxclass" : "newobj",
					"numinlets" : 2,
					"numoutlets" : 1,
					"outlettype" : [ "" ],
					"patching_rect" : [ 333.0, 723.0, 32.0, 23.0 ],
					"text" : "gate"
				}

			}
, 			{
				"box" : 				{
					"id" : "obj-82",
					"maxclass" : "newobj",
					"numinlets" : 2,
					"numoutlets" : 1,
					"outlettype" : [ "" ],
					"patching_rect" : [ 668.0, 723.0, 32.0, 23.0 ],
					"text" : "gate"
				}

			}
, 			{
				"box" : 				{
					"id" : "obj-81",
					"maxclass" : "newobj",
					"numinlets" : 2,
					"numoutlets" : 1,
					"outlettype" : [ "" ],
					"patching_rect" : [ 285.0, 723.0, 32.0, 23.0 ],
					"text" : "gate"
				}

			}
, 			{
				"box" : 				{
					"id" : "obj-80",
					"maxclass" : "newobj",
					"numinlets" : 2,
					"numoutlets" : 1,
					"outlettype" : [ "" ],
					"patching_rect" : [ 157.0, 723.0, 32.0, 23.0 ],
					"text" : "gate"
				}

			}
, 			{
				"box" : 				{
					"id" : "obj-77",
					"maxclass" : "newobj",
					"numinlets" : 9,
					"numoutlets" : 9,
					"outlettype" : [ "", "", "", "", "", "", "", "", "" ],
					"patcher" : 					{
						"fileversion" : 1,
						"appversion" : 						{
							"major" : 8,
							"minor" : 6,
							"revision" : 4,
							"architecture" : "x64",
							"modernui" : 1
						}
,
						"classnamespace" : "box",
						"rect" : [ 59.0, 106.0, 658.0, 246.0 ],
						"bglocked" : 0,
						"openinpresentation" : 0,
						"default_fontsize" : 12.0,
						"default_fontface" : 0,
						"default_fontname" : "Arial",
						"gridonopen" : 1,
						"gridsize" : [ 15.0, 15.0 ],
						"gridsnaponopen" : 1,
						"objectsnaponopen" : 1,
						"statusbarvisible" : 2,
						"toolbarvisible" : 1,
						"lefttoolbarpinned" : 0,
						"toptoolbarpinned" : 0,
						"righttoolbarpinned" : 0,
						"bottomtoolbarpinned" : 0,
						"toolbars_unpinned_last_save" : 0,
						"tallnewobj" : 0,
						"boxanimatetime" : 200,
						"enablehscroll" : 1,
						"enablevscroll" : 1,
						"devicewidth" : 0.0,
						"description" : "",
						"digest" : "",
						"tags" : "",
						"style" : "",
						"subpatcher_template" : " ",
						"assistshowspatchername" : 0,
						"boxes" : [ 							{
								"box" : 								{
									"id" : "obj-58",
									"maxclass" : "newobj",
									"numinlets" : 2,
									"numoutlets" : 2,
									"outlettype" : [ "", "" ],
									"patching_rect" : [ 568.0, 101.0, 60.0, 22.0 ],
									"text" : "zl.change"
								}

							}
, 							{
								"box" : 								{
									"id" : "obj-57",
									"maxclass" : "newobj",
									"numinlets" : 2,
									"numoutlets" : 2,
									"outlettype" : [ "", "" ],
									"patching_rect" : [ 501.375, 101.0, 60.0, 22.0 ],
									"text" : "zl.change"
								}

							}
, 							{
								"box" : 								{
									"id" : "obj-56",
									"maxclass" : "newobj",
									"numinlets" : 2,
									"numoutlets" : 2,
									"outlettype" : [ "", "" ],
									"patching_rect" : [ 434.75, 101.0, 60.0, 22.0 ],
									"text" : "zl.change"
								}

							}
, 							{
								"box" : 								{
									"id" : "obj-55",
									"maxclass" : "newobj",
									"numinlets" : 2,
									"numoutlets" : 2,
									"outlettype" : [ "", "" ],
									"patching_rect" : [ 368.125, 101.0, 60.0, 22.0 ],
									"text" : "zl.change"
								}

							}
, 							{
								"box" : 								{
									"id" : "obj-54",
									"maxclass" : "newobj",
									"numinlets" : 2,
									"numoutlets" : 2,
									"outlettype" : [ "", "" ],
									"patching_rect" : [ 301.5, 101.0, 60.0, 22.0 ],
									"text" : "zl.change"
								}

							}
, 							{
								"box" : 								{
									"id" : "obj-53",
									"maxclass" : "newobj",
									"numinlets" : 2,
									"numoutlets" : 2,
									"outlettype" : [ "", "" ],
									"patching_rect" : [ 234.875, 101.0, 60.0, 22.0 ],
									"text" : "zl.change"
								}

							}
, 							{
								"box" : 								{
									"id" : "obj-52",
									"maxclass" : "newobj",
									"numinlets" : 2,
									"numoutlets" : 2,
									"outlettype" : [ "", "" ],
									"patching_rect" : [ 168.25, 101.0, 60.0, 22.0 ],
									"text" : "zl.change"
								}

							}
, 							{
								"box" : 								{
									"id" : "obj-48",
									"maxclass" : "newobj",
									"numinlets" : 2,
									"numoutlets" : 2,
									"outlettype" : [ "", "" ],
									"patching_rect" : [ 101.625, 101.0, 60.0, 22.0 ],
									"text" : "zl.change"
								}

							}
, 							{
								"box" : 								{
									"id" : "obj-47",
									"maxclass" : "newobj",
									"numinlets" : 2,
									"numoutlets" : 2,
									"outlettype" : [ "", "" ],
									"patching_rect" : [ 35.0, 101.0, 60.0, 22.0 ],
									"text" : "zl.change"
								}

							}
, 							{
								"box" : 								{
									"comment" : "",
									"id" : "obj-59",
									"index" : 1,
									"maxclass" : "inlet",
									"numinlets" : 0,
									"numoutlets" : 1,
									"outlettype" : [ "" ],
									"patching_rect" : [ 35.0, 40.0, 30.0, 30.0 ]
								}

							}
, 							{
								"box" : 								{
									"comment" : "",
									"id" : "obj-60",
									"index" : 2,
									"maxclass" : "inlet",
									"numinlets" : 0,
									"numoutlets" : 1,
									"outlettype" : [ "" ],
									"patching_rect" : [ 101.625, 40.0, 30.0, 30.0 ]
								}

							}
, 							{
								"box" : 								{
									"comment" : "",
									"id" : "obj-61",
									"index" : 3,
									"maxclass" : "inlet",
									"numinlets" : 0,
									"numoutlets" : 1,
									"outlettype" : [ "" ],
									"patching_rect" : [ 168.25, 40.0, 30.0, 30.0 ]
								}

							}
, 							{
								"box" : 								{
									"comment" : "",
									"id" : "obj-62",
									"index" : 4,
									"maxclass" : "inlet",
									"numinlets" : 0,
									"numoutlets" : 1,
									"outlettype" : [ "float" ],
									"patching_rect" : [ 234.875, 40.0, 30.0, 30.0 ]
								}

							}
, 							{
								"box" : 								{
									"comment" : "",
									"id" : "obj-63",
									"index" : 5,
									"maxclass" : "inlet",
									"numinlets" : 0,
									"numoutlets" : 1,
									"outlettype" : [ "float" ],
									"patching_rect" : [ 301.5, 40.0, 30.0, 30.0 ]
								}

							}
, 							{
								"box" : 								{
									"comment" : "",
									"id" : "obj-64",
									"index" : 6,
									"maxclass" : "inlet",
									"numinlets" : 0,
									"numoutlets" : 1,
									"outlettype" : [ "" ],
									"patching_rect" : [ 368.125, 40.0, 30.0, 30.0 ]
								}

							}
, 							{
								"box" : 								{
									"comment" : "",
									"id" : "obj-65",
									"index" : 7,
									"maxclass" : "inlet",
									"numinlets" : 0,
									"numoutlets" : 1,
									"outlettype" : [ "int" ],
									"patching_rect" : [ 434.75, 40.0, 30.0, 30.0 ]
								}

							}
, 							{
								"box" : 								{
									"comment" : "",
									"id" : "obj-66",
									"index" : 8,
									"maxclass" : "inlet",
									"numinlets" : 0,
									"numoutlets" : 1,
									"outlettype" : [ "float" ],
									"patching_rect" : [ 501.375, 40.0, 30.0, 30.0 ]
								}

							}
, 							{
								"box" : 								{
									"comment" : "",
									"id" : "obj-67",
									"index" : 9,
									"maxclass" : "inlet",
									"numinlets" : 0,
									"numoutlets" : 1,
									"outlettype" : [ "" ],
									"patching_rect" : [ 568.0, 40.0, 30.0, 30.0 ]
								}

							}
, 							{
								"box" : 								{
									"comment" : "",
									"id" : "obj-68",
									"index" : 1,
									"maxclass" : "outlet",
									"numinlets" : 1,
									"numoutlets" : 0,
									"patching_rect" : [ 35.0, 184.0, 30.0, 30.0 ]
								}

							}
, 							{
								"box" : 								{
									"comment" : "",
									"id" : "obj-69",
									"index" : 2,
									"maxclass" : "outlet",
									"numinlets" : 1,
									"numoutlets" : 0,
									"patching_rect" : [ 101.625, 184.0, 30.0, 30.0 ]
								}

							}
, 							{
								"box" : 								{
									"comment" : "",
									"id" : "obj-70",
									"index" : 3,
									"maxclass" : "outlet",
									"numinlets" : 1,
									"numoutlets" : 0,
									"patching_rect" : [ 168.25, 184.0, 30.0, 30.0 ]
								}

							}
, 							{
								"box" : 								{
									"comment" : "",
									"id" : "obj-71",
									"index" : 4,
									"maxclass" : "outlet",
									"numinlets" : 1,
									"numoutlets" : 0,
									"patching_rect" : [ 234.875, 184.0, 30.0, 30.0 ]
								}

							}
, 							{
								"box" : 								{
									"comment" : "",
									"id" : "obj-72",
									"index" : 5,
									"maxclass" : "outlet",
									"numinlets" : 1,
									"numoutlets" : 0,
									"patching_rect" : [ 301.5, 184.0, 30.0, 30.0 ]
								}

							}
, 							{
								"box" : 								{
									"comment" : "",
									"id" : "obj-73",
									"index" : 6,
									"maxclass" : "outlet",
									"numinlets" : 1,
									"numoutlets" : 0,
									"patching_rect" : [ 368.125, 184.0, 30.0, 30.0 ]
								}

							}
, 							{
								"box" : 								{
									"comment" : "",
									"id" : "obj-74",
									"index" : 7,
									"maxclass" : "outlet",
									"numinlets" : 1,
									"numoutlets" : 0,
									"patching_rect" : [ 434.75, 184.0, 30.0, 30.0 ]
								}

							}
, 							{
								"box" : 								{
									"comment" : "",
									"id" : "obj-75",
									"index" : 8,
									"maxclass" : "outlet",
									"numinlets" : 1,
									"numoutlets" : 0,
									"patching_rect" : [ 501.375, 184.0, 30.0, 30.0 ]
								}

							}
, 							{
								"box" : 								{
									"comment" : "",
									"id" : "obj-76",
									"index" : 9,
									"maxclass" : "outlet",
									"numinlets" : 1,
									"numoutlets" : 0,
									"patching_rect" : [ 568.0, 184.0, 30.0, 30.0 ]
								}

							}
 ],
						"lines" : [ 							{
								"patchline" : 								{
									"destination" : [ "obj-68", 0 ],
									"source" : [ "obj-47", 0 ]
								}

							}
, 							{
								"patchline" : 								{
									"destination" : [ "obj-69", 0 ],
									"source" : [ "obj-48", 0 ]
								}

							}
, 							{
								"patchline" : 								{
									"destination" : [ "obj-70", 0 ],
									"source" : [ "obj-52", 0 ]
								}

							}
, 							{
								"patchline" : 								{
									"destination" : [ "obj-71", 0 ],
									"source" : [ "obj-53", 0 ]
								}

							}
, 							{
								"patchline" : 								{
									"destination" : [ "obj-72", 0 ],
									"source" : [ "obj-54", 0 ]
								}

							}
, 							{
								"patchline" : 								{
									"destination" : [ "obj-73", 0 ],
									"source" : [ "obj-55", 0 ]
								}

							}
, 							{
								"patchline" : 								{
									"destination" : [ "obj-74", 0 ],
									"source" : [ "obj-56", 0 ]
								}

							}
, 							{
								"patchline" : 								{
									"destination" : [ "obj-75", 0 ],
									"source" : [ "obj-57", 0 ]
								}

							}
, 							{
								"patchline" : 								{
									"destination" : [ "obj-76", 0 ],
									"source" : [ "obj-58", 0 ]
								}

							}
, 							{
								"patchline" : 								{
									"destination" : [ "obj-47", 0 ],
									"source" : [ "obj-59", 0 ]
								}

							}
, 							{
								"patchline" : 								{
									"destination" : [ "obj-48", 0 ],
									"source" : [ "obj-60", 0 ]
								}

							}
, 							{
								"patchline" : 								{
									"destination" : [ "obj-52", 0 ],
									"source" : [ "obj-61", 0 ]
								}

							}
, 							{
								"patchline" : 								{
									"destination" : [ "obj-53", 0 ],
									"source" : [ "obj-62", 0 ]
								}

							}
, 							{
								"patchline" : 								{
									"destination" : [ "obj-54", 0 ],
									"source" : [ "obj-63", 0 ]
								}

							}
, 							{
								"patchline" : 								{
									"destination" : [ "obj-55", 0 ],
									"source" : [ "obj-64", 0 ]
								}

							}
, 							{
								"patchline" : 								{
									"destination" : [ "obj-56", 0 ],
									"source" : [ "obj-65", 0 ]
								}

							}
, 							{
								"patchline" : 								{
									"destination" : [ "obj-57", 0 ],
									"source" : [ "obj-66", 0 ]
								}

							}
, 							{
								"patchline" : 								{
									"destination" : [ "obj-58", 0 ],
									"source" : [ "obj-67", 0 ]
								}

							}
 ]
					}
,
					"patching_rect" : [ 298.0, 482.0, 402.0, 23.0 ],
					"saved_object_attributes" : 					{
						"description" : "",
						"digest" : "",
						"globalpatchername" : "",
						"tags" : ""
					}
,
					"text" : "p change"
				}

			}
, 			{
				"box" : 				{
					"comment" : "(float) raw ticks",
					"id" : "obj-46",
					"index" : 9,
					"maxclass" : "outlet",
					"numinlets" : 1,
					"numoutlets" : 0,
					"patching_rect" : [ 620.0, 762.0, 30.0, 30.0 ]
				}

			}
, 			{
				"box" : 				{
					"fontname" : "Ableton Sans Medium",
					"fontsize" : 9.5,
					"id" : "obj-43",
					"maxclass" : "comment",
					"numinlets" : 1,
					"numoutlets" : 0,
					"patching_rect" : [ 412.0, 455.0, 29.0, 18.0 ],
					"text" : "units"
				}

			}
, 			{
				"box" : 				{
					"activebgcolor" : [ 0.298037976026535, 0.298046916723251, 0.298041820526123, 0.0 ],
					"activetricolor" : [ 0.427450980392157, 0.843137254901961, 1.0, 1.0 ],
					"bordercolor" : [ 0.0, 0.0, 0.0, 1.0 ],
					"focusbordercolor" : [ 0.313725, 0.313725, 0.313725, 0.0 ],
					"id" : "obj-42",
					"maxclass" : "live.numbox",
					"numinlets" : 1,
					"numoutlets" : 2,
					"outlettype" : [ "", "float" ],
					"parameter_enable" : 1,
					"patching_rect" : [ 394.0, 439.0, 47.0, 15.0 ],
					"presentation" : 1,
					"presentation_rect" : [ 103.866367571055889, 26.1802579164505, 31.0, 15.0 ],
					"saved_attribute_attributes" : 					{
						"activebgcolor" : 						{
							"expression" : ""
						}
,
						"activetricolor" : 						{
							"expression" : "themecolor.live_value_bar"
						}
,
						"bordercolor" : 						{
							"expression" : ""
						}
,
						"focusbordercolor" : 						{
							"expression" : ""
						}
,
						"valueof" : 						{
							"parameter_longname" : "live.numbox[167]",
							"parameter_mmax" : 1000.0,
							"parameter_modmode" : 0,
							"parameter_shortname" : "live.numbox",
							"parameter_type" : 0,
							"parameter_unitstyle" : 0
						}

					}
,
					"varname" : "tempo-[4]"
				}

			}
, 			{
				"box" : 				{
					"fontname" : "Ableton Sans Medium",
					"fontsize" : 9.5,
					"id" : "obj-41",
					"maxclass" : "comment",
					"numinlets" : 1,
					"numoutlets" : 0,
					"patching_rect" : [ 361.0, 455.0, 32.0, 18.0 ],
					"text" : "beats"
				}

			}
, 			{
				"box" : 				{
					"activebgcolor" : [ 0.298037976026535, 0.298046916723251, 0.298041820526123, 0.0 ],
					"activetricolor" : [ 0.427450980392157, 0.843137254901961, 1.0, 1.0 ],
					"bordercolor" : [ 0.0, 0.0, 0.0, 1.0 ],
					"focusbordercolor" : [ 0.313725, 0.313725, 0.313725, 0.0 ],
					"id" : "obj-39",
					"maxclass" : "live.numbox",
					"numinlets" : 1,
					"numoutlets" : 2,
					"outlettype" : [ "", "float" ],
					"parameter_enable" : 1,
					"patching_rect" : [ 346.0, 439.0, 47.0, 15.0 ],
					"presentation" : 1,
					"presentation_rect" : [ 79.98595367372036, 26.0, 22.746781468391418, 15.0 ],
					"saved_attribute_attributes" : 					{
						"activebgcolor" : 						{
							"expression" : ""
						}
,
						"activetricolor" : 						{
							"expression" : "themecolor.live_value_bar"
						}
,
						"bordercolor" : 						{
							"expression" : ""
						}
,
						"focusbordercolor" : 						{
							"expression" : ""
						}
,
						"valueof" : 						{
							"parameter_longname" : "live.numbox[211]",
							"parameter_mmax" : 1000.0,
							"parameter_modmode" : 0,
							"parameter_shortname" : "live.numbox",
							"parameter_type" : 0,
							"parameter_unitstyle" : 0
						}

					}
,
					"varname" : "tempo-[3]"
				}

			}
, 			{
				"box" : 				{
					"fontname" : "Ableton Sans Medium",
					"fontsize" : 9.5,
					"id" : "obj-37",
					"maxclass" : "comment",
					"numinlets" : 1,
					"numoutlets" : 0,
					"patching_rect" : [ 318.0, 455.0, 27.0, 18.0 ],
					"text" : "bars"
				}

			}
, 			{
				"box" : 				{
					"activebgcolor" : [ 0.298037976026535, 0.298046916723251, 0.298041820526123, 0.0 ],
					"activetricolor" : [ 0.427450980392157, 0.843137254901961, 1.0, 1.0 ],
					"bordercolor" : [ 0.0, 0.0, 0.0, 1.0 ],
					"focusbordercolor" : [ 0.313725, 0.313725, 0.313725, 0.0 ],
					"id" : "obj-38",
					"maxclass" : "live.numbox",
					"numinlets" : 1,
					"numoutlets" : 2,
					"outlettype" : [ "", "float" ],
					"parameter_enable" : 1,
					"patching_rect" : [ 298.0, 439.0, 47.0, 15.0 ],
					"presentation" : 1,
					"presentation_rect" : [ 47.852321244776249, 26.0, 31.0, 15.0 ],
					"saved_attribute_attributes" : 					{
						"activebgcolor" : 						{
							"expression" : ""
						}
,
						"activetricolor" : 						{
							"expression" : "themecolor.live_value_bar"
						}
,
						"bordercolor" : 						{
							"expression" : ""
						}
,
						"focusbordercolor" : 						{
							"expression" : ""
						}
,
						"valueof" : 						{
							"parameter_longname" : "live.numbox[166]",
							"parameter_mmax" : 1000.0,
							"parameter_modmode" : 0,
							"parameter_shortname" : "live.numbox",
							"parameter_type" : 0,
							"parameter_unitstyle" : 0
						}

					}
,
					"varname" : "tempo-[2]"
				}

			}
, 			{
				"box" : 				{
					"comment" : "(list) clocksource list",
					"id" : "obj-36",
					"index" : 10,
					"maxclass" : "outlet",
					"numinlets" : 1,
					"numoutlets" : 0,
					"patching_rect" : [ 668.0, 762.0, 30.0, 30.0 ]
				}

			}
, 			{
				"box" : 				{
					"comment" : "(int) transport state",
					"id" : "obj-34",
					"index" : 8,
					"maxclass" : "outlet",
					"numinlets" : 1,
					"numoutlets" : 0,
					"patching_rect" : [ 572.0, 762.0, 30.0, 30.0 ]
				}

			}
, 			{
				"box" : 				{
					"comment" : "(list) time signature",
					"id" : "obj-31",
					"index" : 7,
					"maxclass" : "outlet",
					"numinlets" : 1,
					"numoutlets" : 0,
					"patching_rect" : [ 524.0, 762.0, 30.0, 30.0 ]
				}

			}
, 			{
				"box" : 				{
					"comment" : "(int) tempo",
					"id" : "obj-32",
					"index" : 6,
					"maxclass" : "outlet",
					"numinlets" : 1,
					"numoutlets" : 0,
					"patching_rect" : [ 477.0, 762.0, 30.0, 30.0 ]
				}

			}
, 			{
				"box" : 				{
					"comment" : "(int) current resolution (PPQ)",
					"id" : "obj-33",
					"index" : 5,
					"maxclass" : "outlet",
					"numinlets" : 1,
					"numoutlets" : 0,
					"patching_rect" : [ 429.0, 762.0, 30.0, 30.0 ]
				}

			}
, 			{
				"box" : 				{
					"comment" : "(int) units",
					"id" : "obj-29",
					"index" : 4,
					"maxclass" : "outlet",
					"numinlets" : 1,
					"numoutlets" : 0,
					"patching_rect" : [ 381.0, 762.0, 30.0, 30.0 ]
				}

			}
, 			{
				"box" : 				{
					"comment" : "(int) beats",
					"id" : "obj-28",
					"index" : 3,
					"maxclass" : "outlet",
					"numinlets" : 1,
					"numoutlets" : 0,
					"patching_rect" : [ 333.0, 762.0, 30.0, 30.0 ]
				}

			}
, 			{
				"box" : 				{
					"comment" : "(int) bars",
					"id" : "obj-27",
					"index" : 2,
					"maxclass" : "outlet",
					"numinlets" : 1,
					"numoutlets" : 0,
					"patching_rect" : [ 285.0, 762.0, 30.0, 30.0 ]
				}

			}
, 			{
				"box" : 				{
					"id" : "obj-26",
					"maxclass" : "message",
					"numinlets" : 2,
					"numoutlets" : 1,
					"outlettype" : [ "" ],
					"patching_rect" : [ 822.0, 203.0, 154.0, 23.0 ],
					"text" : "@interval 1 ticks @active 1"
				}

			}
, 			{
				"box" : 				{
					"fontname" : "Ableton Sans Medium",
					"fontsize" : 12.0,
					"id" : "obj-20",
					"maxclass" : "newobj",
					"numinlets" : 1,
					"numoutlets" : 3,
					"outlettype" : [ "", "", "" ],
					"patching_rect" : [ 1019.0, 352.0, 231.0, 23.0 ],
					"saved_object_attributes" : 					{
						"initial" : [ 120 ],
						"parameter_enable" : 0,
						"parameter_mappable" : 0
					}
,
					"text" : "pattr tempo @bindto tempo- @initial 120",
					"varname" : "tempo"
				}

			}
, 			{
				"box" : 				{
					"id" : "obj-49",
					"maxclass" : "message",
					"numinlets" : 2,
					"numoutlets" : 1,
					"outlettype" : [ "" ],
					"patching_rect" : [ 698.0, 179.0, 60.0, 23.0 ],
					"text" : "tempo $1"
				}

			}
, 			{
				"box" : 				{
					"fontname" : "Ableton Sans Medium",
					"fontsize" : 9.5,
					"id" : "obj-50",
					"maxclass" : "comment",
					"numinlets" : 1,
					"numoutlets" : 0,
					"patching_rect" : [ 745.0, 150.0, 36.0, 18.0 ],
					"presentation" : 1,
					"presentation_rect" : [ 135.0, 3.0, 36.0, 18.0 ],
					"text" : "tempo"
				}

			}
, 			{
				"box" : 				{
					"activebgcolor" : [ 0.298037976026535, 0.298046916723251, 0.298041820526123, 0.0 ],
					"activetricolor" : [ 0.427450980392157, 0.843137254901961, 1.0, 1.0 ],
					"appearance" : 2,
					"bordercolor" : [ 0.0, 0.0, 0.0, 1.0 ],
					"focusbordercolor" : [ 0.313725, 0.313725, 0.313725, 0.0 ],
					"id" : "obj-51",
					"maxclass" : "live.numbox",
					"numinlets" : 1,
					"numoutlets" : 2,
					"outlettype" : [ "", "float" ],
					"parameter_enable" : 1,
					"patching_rect" : [ 698.0, 151.0, 47.0, 15.0 ],
					"presentation" : 1,
					"presentation_rect" : [ 103.0, 4.0, 31.866367571055889, 15.0 ],
					"saved_attribute_attributes" : 					{
						"activebgcolor" : 						{
							"expression" : ""
						}
,
						"activetricolor" : 						{
							"expression" : "themecolor.live_value_bar"
						}
,
						"bordercolor" : 						{
							"expression" : ""
						}
,
						"focusbordercolor" : 						{
							"expression" : ""
						}
,
						"valueof" : 						{
							"parameter_initial" : [ 120 ],
							"parameter_initial_enable" : 1,
							"parameter_longname" : "live.numbox[1]",
							"parameter_mmax" : 400.0,
							"parameter_mmin" : 20.0,
							"parameter_modmode" : 0,
							"parameter_shortname" : "live.numbox",
							"parameter_type" : 0,
							"parameter_unitstyle" : 0
						}

					}
,
					"varname" : "tempo-"
				}

			}
, 			{
				"box" : 				{
					"fontname" : "Ableton Sans Medium",
					"fontsize" : 12.0,
					"id" : "obj-18",
					"maxclass" : "newobj",
					"numinlets" : 1,
					"numoutlets" : 1,
					"outlettype" : [ "bang" ],
					"patching_rect" : [ 1019.0, 522.0, 58.0, 23.0 ],
					"text" : "loadbang"
				}

			}
, 			{
				"box" : 				{
					"fontname" : "Ableton Sans Medium",
					"fontsize" : 12.0,
					"id" : "obj-19",
					"maxclass" : "newobj",
					"numinlets" : 1,
					"numoutlets" : 1,
					"outlettype" : [ "" ],
					"patching_rect" : [ 1019.0, 547.0, 82.0, 23.0 ],
					"text" : "a-mo.settings"
				}

			}
, 			{
				"box" : 				{
					"fontname" : "Ableton Sans Medium",
					"fontsize" : 12.0,
					"id" : "obj-9",
					"maxclass" : "newobj",
					"numinlets" : 1,
					"numoutlets" : 2,
					"outlettype" : [ "", "" ],
					"patching_rect" : [ 1076.0, 597.0, 70.0, 23.0 ],
					"save" : [ "#N", "thispatcher", ";", "#Q", "end", ";" ],
					"text" : "thispatcher"
				}

			}
, 			{
				"box" : 				{
					"fontname" : "Ableton Sans Medium",
					"fontsize" : 12.0,
					"id" : "obj-23",
					"maxclass" : "newobj",
					"numinlets" : 1,
					"numoutlets" : 0,
					"patching_rect" : [ 1019.0, 572.0, 127.0, 23.0 ],
					"text" : "universal @descend 1"
				}

			}
, 			{
				"box" : 				{
					"id" : "obj-15",
					"maxclass" : "newobj",
					"numinlets" : 2,
					"numoutlets" : 1,
					"outlettype" : [ "int" ],
					"patching_rect" : [ 157.0, 655.0, 29.5, 23.0 ],
					"text" : "!- 1"
				}

			}
, 			{
				"box" : 				{
					"fontname" : "Ableton Sans Medium",
					"fontsize" : 12.0,
					"id" : "obj-14",
					"maxclass" : "newobj",
					"numinlets" : 1,
					"numoutlets" : 3,
					"outlettype" : [ "", "", "" ],
					"patching_rect" : [ 1019.0, 416.0, 202.0, 23.0 ],
					"saved_object_attributes" : 					{
						"initial" : [ 0 ],
						"parameter_enable" : 0,
						"parameter_mappable" : 0
					}
,
					"text" : "pattr mute @bindto mute- @initial 0",
					"varname" : "mute"
				}

			}
, 			{
				"box" : 				{
					"activebgcolor" : [ 0.647058823529412, 0.647058823529412, 0.647058823529412, 0.0 ],
					"activebgoncolor" : [ 1.0, 0.345098039215686, 0.298039215686275, 1.0 ],
					"appearance" : 1,
					"bordercolor" : [ 0.0, 0.0, 0.0, 1.0 ],
					"focusbordercolor" : [ 0.313725, 0.313725, 0.313725, 0.0 ],
					"id" : "obj-3",
					"maxclass" : "live.text",
					"numinlets" : 1,
					"numoutlets" : 2,
					"outlettype" : [ "", "" ],
					"parameter_enable" : 1,
					"patching_rect" : [ 157.0, 624.0, 65.0, 15.0 ],
					"pictures" : [ "unlock.svg", "lock.svg" ],
					"presentation" : 1,
					"presentation_rect" : [ 4.0, 4.0, 66.0, 15.0 ],
					"remapsvgcolors" : 1,
					"saved_attribute_attributes" : 					{
						"activebgcolor" : 						{
							"expression" : ""
						}
,
						"activebgoncolor" : 						{
							"expression" : "themecolor.live_active_automation"
						}
,
						"bordercolor" : 						{
							"expression" : ""
						}
,
						"focusbordercolor" : 						{
							"expression" : ""
						}
,
						"valueof" : 						{
							"parameter_enum" : [ "val1", "val2" ],
							"parameter_longname" : "live.text[382]",
							"parameter_mmax" : 1,
							"parameter_modmode" : 0,
							"parameter_shortname" : "live.text",
							"parameter_type" : 2
						}

					}
,
					"text" : "transport",
					"texton" : "transport",
					"varname" : "mute-"
				}

			}
, 			{
				"box" : 				{
					"fontname" : "Ableton Sans Medium",
					"fontsize" : 12.0,
					"id" : "obj-10",
					"maxclass" : "newobj",
					"numinlets" : 1,
					"numoutlets" : 3,
					"outlettype" : [ "", "", "" ],
					"patching_rect" : [ 1019.0, 384.0, 206.0, 23.0 ],
					"saved_object_attributes" : 					{
						"initial" : [ 0 ],
						"parameter_enable" : 0,
						"parameter_mappable" : 0
					}
,
					"text" : "pattr onoff @bindto onoff- @initial 0",
					"varname" : "onoff"
				}

			}
, 			{
				"box" : 				{
					"id" : "obj-7",
					"maxclass" : "newobj",
					"numinlets" : 4,
					"numoutlets" : 4,
					"outlettype" : [ "", "", "", "" ],
					"patching_rect" : [ 950.0, 91.0, 122.0, 23.0 ],
					"text" : "route int reset tempo"
				}

			}
, 			{
				"box" : 				{
					"id" : "obj-21",
					"maxclass" : "newobj",
					"numinlets" : 1,
					"numoutlets" : 1,
					"outlettype" : [ "bang" ],
					"patching_rect" : [ 896.0, 21.0, 58.0, 23.0 ],
					"text" : "loadbang"
				}

			}
, 			{
				"box" : 				{
					"id" : "obj-22",
					"maxclass" : "newobj",
					"numinlets" : 1,
					"numoutlets" : 2,
					"outlettype" : [ "", "" ],
					"patching_rect" : [ 896.0, 49.0, 73.0, 23.0 ],
					"text" : "patcherargs"
				}

			}
, 			{
				"box" : 				{
					"comment" : "(message) onoff, reset",
					"id" : "obj-8",
					"index" : 1,
					"maxclass" : "inlet",
					"numinlets" : 0,
					"numoutlets" : 1,
					"outlettype" : [ "" ],
					"patching_rect" : [ 1016.0, 21.0, 30.0, 30.0 ]
				}

			}
, 			{
				"box" : 				{
					"id" : "obj-6",
					"maxclass" : "newobj",
					"numinlets" : 1,
					"numoutlets" : 2,
					"outlettype" : [ "int", "bang" ],
					"patching_rect" : [ 790.0, 352.0, 40.0, 23.0 ],
					"text" : "t 0 b"
				}

			}
, 			{
				"box" : 				{
					"fontname" : "Ableton Sans Medium",
					"fontsize" : 12.0,
					"id" : "obj-1",
					"maxclass" : "newobj",
					"numinlets" : 1,
					"numoutlets" : 2,
					"outlettype" : [ "int", "bang" ],
					"patching_rect" : [ 681.0, 302.0, 128.0, 23.0 ],
					"text" : "t 0 b"
				}

			}
, 			{
				"box" : 				{
					"activebgcolor" : [ 0.647058823529412, 0.647058823529412, 0.647058823529412, 0.0 ],
					"activebgoncolor" : [ 0.427450980392157, 0.843137254901961, 1.0, 1.0 ],
					"bordercolor" : [ 0.0, 0.0, 0.0, 1.0 ],
					"focusbordercolor" : [ 0.313725, 0.313725, 0.313725, 0.0 ],
					"id" : "obj-2",
					"maxclass" : "live.text",
					"mode" : 0,
					"numinlets" : 1,
					"numoutlets" : 2,
					"outlettype" : [ "", "" ],
					"parameter_enable" : 1,
					"patching_rect" : [ 681.0, 275.0, 44.0, 15.0 ],
					"pictures" : [ "clear.svg", "clear.svg" ],
					"presentation" : 1,
					"presentation_rect" : [ 175.40338771045208, 3.756218925118446, 35.094124719500542, 15.0 ],
					"saved_attribute_attributes" : 					{
						"activebgcolor" : 						{
							"expression" : ""
						}
,
						"activebgoncolor" : 						{
							"expression" : "themecolor.live_value_bar"
						}
,
						"bordercolor" : 						{
							"expression" : ""
						}
,
						"focusbordercolor" : 						{
							"expression" : ""
						}
,
						"valueof" : 						{
							"parameter_enum" : [ "val1", "val2" ],
							"parameter_longname" : "live.text[783]",
							"parameter_mmax" : 1,
							"parameter_modmode" : 0,
							"parameter_shortname" : "live.text",
							"parameter_type" : 2
						}

					}
,
					"text" : "reset",
					"texton" : "clear",
					"usesvgviewbox" : 1,
					"varname" : "live.text"
				}

			}
, 			{
				"box" : 				{
					"comment" : "(list) global transport",
					"id" : "obj-11",
					"index" : 1,
					"maxclass" : "outlet",
					"numinlets" : 1,
					"numoutlets" : 0,
					"patching_rect" : [ 157.0, 762.0, 30.0, 30.0 ]
				}

			}
, 			{
				"box" : 				{
					"fontface" : 0,
					"fontname" : "Ableton Sans Medium",
					"fontsize" : 12.0,
					"id" : "obj-40",
					"maxclass" : "newobj",
					"numinlets" : 2,
					"numoutlets" : 1,
					"outlettype" : [ "bang" ],
					"patching_rect" : [ 597.0, 233.0, 379.0, 23.0 ],
					"text" : "metro 32n @quantize 32n @active 1 @autostart 1 @autostarttime 0."
				}

			}
, 			{
				"box" : 				{
					"fontname" : "Ableton Sans Medium",
					"fontsize" : 12.0,
					"id" : "obj-4",
					"maxclass" : "newobj",
					"numinlets" : 2,
					"numoutlets" : 9,
					"outlettype" : [ "int", "int", "float", "float", "float", "", "int", "float", "" ],
					"patching_rect" : [ 298.0, 352.0, 402.0, 23.0 ],
					"text" : "transport"
				}

			}
, 			{
				"box" : 				{
					"fontname" : "Ableton Sans Medium",
					"fontsize" : 12.0,
					"id" : "obj-12",
					"maxclass" : "message",
					"numinlets" : 2,
					"numoutlets" : 1,
					"outlettype" : [ "" ],
					"patching_rect" : [ 31.0, 578.0, 145.0, 23.0 ],
					"text" : "set $1 : $2 : $3 . $4, bang"
				}

			}
, 			{
				"box" : 				{
					"fontface" : 0,
					"fontname" : "Ableton Sans Medium",
					"fontsize" : 12.0,
					"id" : "obj-35",
					"maxclass" : "newobj",
					"numinlets" : 1,
					"numoutlets" : 1,
					"outlettype" : [ "" ],
					"patching_rect" : [ 31.0, 532.0, 227.0, 23.0 ],
					"text" : "translate ticks hh:mm:ss @mode position"
				}

			}
, 			{
				"box" : 				{
					"activebgcolor" : [ 0.298037976026535, 0.298046916723251, 0.298041820526123, 0.0 ],
					"activebgoncolor" : [ 1.0, 0.345098039215686, 0.298039215686275, 1.0 ],
					"bordercolor" : [ 0.0, 0.0, 0.0, 1.0 ],
					"focusbordercolor" : [ 0.313725, 0.313725, 0.313725, 0.0 ],
					"id" : "obj-153",
					"maxclass" : "live.text",
					"numinlets" : 1,
					"numoutlets" : 2,
					"outlettype" : [ "", "" ],
					"parameter_enable" : 1,
					"patching_rect" : [ 575.0, 152.0, 44.0, 15.0 ],
					"pictures" : [ "mo.play.svg", "mo.stop.svg" ],
					"presentation" : 1,
					"presentation_rect" : [ 3.5, 26.371792723306498, 43.218688815832138, 15.0 ],
					"remapsvgcolors" : 1,
					"saved_attribute_attributes" : 					{
						"activebgcolor" : 						{
							"expression" : ""
						}
,
						"activebgoncolor" : 						{
							"expression" : "themecolor.live_active_automation"
						}
,
						"bordercolor" : 						{
							"expression" : ""
						}
,
						"focusbordercolor" : 						{
							"expression" : ""
						}
,
						"valueof" : 						{
							"parameter_enum" : [ "val1", "val2" ],
							"parameter_longname" : "live.text[784]",
							"parameter_mmax" : 1,
							"parameter_modmode" : 0,
							"parameter_shortname" : "live.text",
							"parameter_type" : 2
						}

					}
,
					"text" : "ON",
					"texton" : "OFF",
					"usepicture" : 1,
					"usesvgviewbox" : 1,
					"varname" : "onoff-"
				}

			}
, 			{
				"box" : 				{
					"id" : "obj-17",
					"linecolor" : [ 0.0, 0.0, 0.0, 1.0 ],
					"maxclass" : "live.line",
					"numinlets" : 1,
					"numoutlets" : 0,
					"patching_rect" : [ 876.0, 14.0, 150.442643090089064, 5.0 ],
					"presentation" : 1,
					"presentation_rect" : [ 0.0, 22.0, 214.0, 5.0 ],
					"saved_attribute_attributes" : 					{
						"linecolor" : 						{
							"expression" : ""
						}

					}

				}

			}
, 			{
				"box" : 				{
					"bgcolor" : [ 0.168627450980392, 0.168627450980392, 0.168627450980392, 0.0 ],
					"border" : 0.0,
					"bordercolor" : [ 0.0, 0.0, 0.0, 1.0 ],
					"fontface" : 0,
					"fontname" : "Ableton Sans Medium",
					"fontsize" : 9.5,
					"id" : "obj-16",
					"keymode" : 1,
					"lines" : 1,
					"maxclass" : "textedit",
					"nosymquotes" : 1,
					"numinlets" : 1,
					"numoutlets" : 4,
					"outlettype" : [ "", "int", "", "" ],
					"parameter_enable" : 0,
					"patching_rect" : [ 31.0, 625.0, 98.0, 14.0 ],
					"presentation" : 1,
					"presentation_rect" : [ 140.0, 27.0, 69.0, 14.0 ],
					"rounded" : 0.0,
					"saved_attribute_attributes" : 					{
						"textcolor" : 						{
							"expression" : "themecolor.live_control_text_selection"
						}

					}
,
					"text" : "0 : 0 : 0 . 0",
					"textcolor" : [ 0.0, 0.0, 0.0, 1.0 ]
				}

			}
, 			{
				"box" : 				{
					"angle" : 270.0,
					"bgcolor" : [ 0.2, 0.2, 0.2, 0.0 ],
					"border" : 1,
					"bordercolor" : [ 0.0, 0.0, 0.0, 1.0 ],
					"id" : "obj-5",
					"maxclass" : "panel",
					"mode" : 0,
					"numinlets" : 1,
					"numoutlets" : 0,
					"patching_rect" : [ 31.0, 625.0, 98.0, 14.0 ],
					"presentation" : 1,
					"presentation_rect" : [ 137.0, 27.0, 72.0, 13.0 ],
					"proportion" : 0.5,
					"rounded" : 0
				}

			}
 ],
		"lines" : [ 			{
				"patchline" : 				{
					"destination" : [ "obj-4", 1 ],
					"midpoints" : [ 690.5, 327.0, 690.5, 327.0 ],
					"source" : [ "obj-1", 0 ]
				}

			}
, 			{
				"patchline" : 				{
					"destination" : [ "obj-6", 0 ],
					"midpoints" : [ 799.5, 327.0, 799.5, 327.0 ],
					"source" : [ "obj-1", 1 ]
				}

			}
, 			{
				"patchline" : 				{
					"destination" : [ "obj-16", 0 ],
					"midpoints" : [ 40.5, 603.0, 40.5, 603.0 ],
					"source" : [ "obj-12", 0 ]
				}

			}
, 			{
				"patchline" : 				{
					"destination" : [ "obj-4", 0 ],
					"midpoints" : [ 1110.5, 339.0, 307.5, 339.0 ],
					"source" : [ "obj-13", 1 ]
				}

			}
, 			{
				"patchline" : 				{
					"destination" : [ "obj-80", 0 ],
					"midpoints" : [ 166.5, 681.0, 166.5, 681.0 ],
					"order" : 9,
					"source" : [ "obj-15", 0 ]
				}

			}
, 			{
				"patchline" : 				{
					"destination" : [ "obj-81", 0 ],
					"midpoints" : [ 166.5, 708.0, 294.5, 708.0 ],
					"order" : 8,
					"source" : [ "obj-15", 0 ]
				}

			}
, 			{
				"patchline" : 				{
					"destination" : [ "obj-82", 0 ],
					"midpoints" : [ 166.5, 708.0, 677.5, 708.0 ],
					"order" : 0,
					"source" : [ "obj-15", 0 ]
				}

			}
, 			{
				"patchline" : 				{
					"destination" : [ "obj-83", 0 ],
					"midpoints" : [ 166.5, 708.0, 342.5, 708.0 ],
					"order" : 7,
					"source" : [ "obj-15", 0 ]
				}

			}
, 			{
				"patchline" : 				{
					"destination" : [ "obj-85", 0 ],
					"midpoints" : [ 166.5, 708.0, 438.5, 708.0 ],
					"order" : 5,
					"source" : [ "obj-15", 0 ]
				}

			}
, 			{
				"patchline" : 				{
					"destination" : [ "obj-86", 0 ],
					"midpoints" : [ 166.5, 708.0, 390.5, 708.0 ],
					"order" : 6,
					"source" : [ "obj-15", 0 ]
				}

			}
, 			{
				"patchline" : 				{
					"destination" : [ "obj-87", 0 ],
					"midpoints" : [ 166.5, 708.0, 533.5, 708.0 ],
					"order" : 3,
					"source" : [ "obj-15", 0 ]
				}

			}
, 			{
				"patchline" : 				{
					"destination" : [ "obj-88", 0 ],
					"midpoints" : [ 166.5, 708.0, 486.5, 708.0 ],
					"order" : 4,
					"source" : [ "obj-15", 0 ]
				}

			}
, 			{
				"patchline" : 				{
					"destination" : [ "obj-89", 0 ],
					"midpoints" : [ 166.5, 708.0, 629.5, 708.0 ],
					"order" : 1,
					"source" : [ "obj-15", 0 ]
				}

			}
, 			{
				"patchline" : 				{
					"destination" : [ "obj-90", 0 ],
					"midpoints" : [ 166.5, 708.0, 581.5, 708.0 ],
					"order" : 2,
					"source" : [ "obj-15", 0 ]
				}

			}
, 			{
				"patchline" : 				{
					"destination" : [ "obj-4", 0 ],
					"midpoints" : [ 584.5, 339.0, 307.5, 339.0 ],
					"order" : 1,
					"source" : [ "obj-153", 0 ]
				}

			}
, 			{
				"patchline" : 				{
					"destination" : [ "obj-90", 1 ],
					"midpoints" : [ 584.5, 339.0, 711.0, 339.0, 711.0, 708.0, 594.5, 708.0 ],
					"order" : 0,
					"source" : [ "obj-153", 0 ]
				}

			}
, 			{
				"patchline" : 				{
					"destination" : [ "obj-19", 0 ],
					"midpoints" : [ 1028.5, 546.0, 1028.5, 546.0 ],
					"source" : [ "obj-18", 0 ]
				}

			}
, 			{
				"patchline" : 				{
					"destination" : [ "obj-23", 0 ],
					"midpoints" : [ 1028.5, 573.0, 1028.5, 573.0 ],
					"source" : [ "obj-19", 0 ]
				}

			}
, 			{
				"patchline" : 				{
					"destination" : [ "obj-1", 0 ],
					"midpoints" : [ 690.5, 291.0, 690.5, 291.0 ],
					"source" : [ "obj-2", 0 ]
				}

			}
, 			{
				"patchline" : 				{
					"destination" : [ "obj-22", 0 ],
					"midpoints" : [ 905.5, 45.0, 905.5, 45.0 ],
					"source" : [ "obj-21", 0 ]
				}

			}
, 			{
				"patchline" : 				{
					"destination" : [ "obj-7", 0 ],
					"midpoints" : [ 959.5, 75.0, 959.5, 75.0 ],
					"source" : [ "obj-22", 1 ]
				}

			}
, 			{
				"patchline" : 				{
					"destination" : [ "obj-15", 0 ],
					"midpoints" : [ 166.5, 642.0, 166.5, 642.0 ],
					"source" : [ "obj-3", 0 ]
				}

			}
, 			{
				"patchline" : 				{
					"destination" : [ "obj-35", 0 ],
					"midpoints" : [ 820.5, 519.0, 40.5, 519.0 ],
					"source" : [ "obj-30", 0 ]
				}

			}
, 			{
				"patchline" : 				{
					"destination" : [ "obj-12", 0 ],
					"midpoints" : [ 40.5, 558.0, 40.5, 558.0 ],
					"order" : 1,
					"source" : [ "obj-35", 0 ]
				}

			}
, 			{
				"patchline" : 				{
					"destination" : [ "obj-80", 1 ],
					"midpoints" : [ 40.5, 558.0, 18.0, 558.0, 18.0, 708.0, 179.5, 708.0 ],
					"order" : 0,
					"source" : [ "obj-35", 0 ]
				}

			}
, 			{
				"patchline" : 				{
					"destination" : [ "obj-77", 0 ],
					"midpoints" : [ 307.5, 456.0, 307.5, 456.0 ],
					"source" : [ "obj-38", 0 ]
				}

			}
, 			{
				"patchline" : 				{
					"destination" : [ "obj-77", 1 ],
					"midpoints" : [ 355.5, 456.0, 355.375, 456.0 ],
					"source" : [ "obj-39", 0 ]
				}

			}
, 			{
				"patchline" : 				{
					"destination" : [ "obj-38", 0 ],
					"midpoints" : [ 307.5, 378.0, 307.5, 378.0 ],
					"source" : [ "obj-4", 0 ]
				}

			}
, 			{
				"patchline" : 				{
					"destination" : [ "obj-39", 0 ],
					"midpoints" : [ 355.375, 378.0, 355.5, 378.0 ],
					"source" : [ "obj-4", 1 ]
				}

			}
, 			{
				"patchline" : 				{
					"destination" : [ "obj-42", 0 ],
					"midpoints" : [ 403.25, 378.0, 403.5, 378.0 ],
					"source" : [ "obj-4", 2 ]
				}

			}
, 			{
				"patchline" : 				{
					"destination" : [ "obj-77", 8 ],
					"midpoints" : [ 690.5, 378.0, 690.5, 378.0 ],
					"source" : [ "obj-4", 8 ]
				}

			}
, 			{
				"patchline" : 				{
					"destination" : [ "obj-77", 7 ],
					"midpoints" : [ 642.625, 378.0, 642.625, 378.0 ],
					"source" : [ "obj-4", 7 ]
				}

			}
, 			{
				"patchline" : 				{
					"destination" : [ "obj-77", 6 ],
					"midpoints" : [ 594.75, 378.0, 594.75, 378.0 ],
					"source" : [ "obj-4", 6 ]
				}

			}
, 			{
				"patchline" : 				{
					"destination" : [ "obj-77", 5 ],
					"midpoints" : [ 546.875, 378.0, 546.875, 378.0 ],
					"source" : [ "obj-4", 5 ]
				}

			}
, 			{
				"patchline" : 				{
					"destination" : [ "obj-77", 4 ],
					"midpoints" : [ 499.0, 378.0, 499.0, 378.0 ],
					"source" : [ "obj-4", 4 ]
				}

			}
, 			{
				"patchline" : 				{
					"destination" : [ "obj-77", 3 ],
					"midpoints" : [ 451.125, 378.0, 451.125, 378.0 ],
					"source" : [ "obj-4", 3 ]
				}

			}
, 			{
				"patchline" : 				{
					"destination" : [ "obj-4", 0 ],
					"midpoints" : [ 606.5, 339.0, 307.5, 339.0 ],
					"source" : [ "obj-40", 0 ]
				}

			}
, 			{
				"patchline" : 				{
					"destination" : [ "obj-77", 2 ],
					"midpoints" : [ 403.5, 456.0, 403.25, 456.0 ],
					"source" : [ "obj-42", 0 ]
				}

			}
, 			{
				"patchline" : 				{
					"destination" : [ "obj-4", 0 ],
					"midpoints" : [ 707.5, 219.0, 307.5, 219.0 ],
					"source" : [ "obj-49", 0 ]
				}

			}
, 			{
				"patchline" : 				{
					"destination" : [ "obj-49", 0 ],
					"midpoints" : [ 707.5, 168.0, 707.5, 168.0 ],
					"source" : [ "obj-51", 0 ]
				}

			}
, 			{
				"patchline" : 				{
					"destination" : [ "obj-30", 0 ],
					"midpoints" : [ 820.5, 378.0, 820.5, 378.0 ],
					"source" : [ "obj-6", 1 ]
				}

			}
, 			{
				"patchline" : 				{
					"destination" : [ "obj-38", 0 ],
					"midpoints" : [ 799.5, 426.0, 307.5, 426.0 ],
					"order" : 2,
					"source" : [ "obj-6", 0 ]
				}

			}
, 			{
				"patchline" : 				{
					"destination" : [ "obj-39", 0 ],
					"midpoints" : [ 799.5, 426.0, 355.5, 426.0 ],
					"order" : 1,
					"source" : [ "obj-6", 0 ]
				}

			}
, 			{
				"patchline" : 				{
					"destination" : [ "obj-42", 0 ],
					"midpoints" : [ 799.5, 426.0, 403.5, 426.0 ],
					"order" : 0,
					"source" : [ "obj-6", 0 ]
				}

			}
, 			{
				"patchline" : 				{
					"destination" : [ "obj-13", 0 ],
					"midpoints" : [ 1062.5, 117.0, 1062.5, 117.0 ],
					"source" : [ "obj-7", 3 ]
				}

			}
, 			{
				"patchline" : 				{
					"destination" : [ "obj-153", 0 ],
					"midpoints" : [ 959.5, 135.0, 584.5, 135.0 ],
					"source" : [ "obj-7", 0 ]
				}

			}
, 			{
				"patchline" : 				{
					"destination" : [ "obj-2", 0 ],
					"midpoints" : [ 993.833333333333371, 270.0, 690.5, 270.0 ],
					"source" : [ "obj-7", 1 ]
				}

			}
, 			{
				"patchline" : 				{
					"destination" : [ "obj-20", 0 ],
					"midpoints" : [ 1028.166666666666742, 117.0, 1028.5, 117.0 ],
					"source" : [ "obj-7", 2 ]
				}

			}
, 			{
				"patchline" : 				{
					"destination" : [ "obj-35", 0 ],
					"midpoints" : [ 642.625, 519.0, 40.5, 519.0 ],
					"order" : 1,
					"source" : [ "obj-77", 7 ]
				}

			}
, 			{
				"patchline" : 				{
					"destination" : [ "obj-81", 1 ],
					"midpoints" : [ 307.5, 507.0, 307.5, 507.0 ],
					"source" : [ "obj-77", 0 ]
				}

			}
, 			{
				"patchline" : 				{
					"destination" : [ "obj-82", 1 ],
					"midpoints" : [ 690.5, 507.0, 690.5, 507.0 ],
					"source" : [ "obj-77", 8 ]
				}

			}
, 			{
				"patchline" : 				{
					"destination" : [ "obj-83", 1 ],
					"midpoints" : [ 355.375, 507.0, 355.5, 507.0 ],
					"source" : [ "obj-77", 1 ]
				}

			}
, 			{
				"patchline" : 				{
					"destination" : [ "obj-85", 1 ],
					"midpoints" : [ 451.125, 507.0, 451.5, 507.0 ],
					"source" : [ "obj-77", 3 ]
				}

			}
, 			{
				"patchline" : 				{
					"destination" : [ "obj-86", 1 ],
					"midpoints" : [ 403.25, 507.0, 403.5, 507.0 ],
					"source" : [ "obj-77", 2 ]
				}

			}
, 			{
				"patchline" : 				{
					"destination" : [ "obj-87", 1 ],
					"midpoints" : [ 546.875, 507.0, 546.5, 507.0 ],
					"source" : [ "obj-77", 5 ]
				}

			}
, 			{
				"patchline" : 				{
					"destination" : [ "obj-88", 1 ],
					"midpoints" : [ 499.0, 507.0, 499.5, 507.0 ],
					"source" : [ "obj-77", 4 ]
				}

			}
, 			{
				"patchline" : 				{
					"destination" : [ "obj-89", 1 ],
					"midpoints" : [ 642.625, 507.0, 642.5, 507.0 ],
					"order" : 0,
					"source" : [ "obj-77", 7 ]
				}

			}
, 			{
				"patchline" : 				{
					"destination" : [ "obj-7", 0 ],
					"midpoints" : [ 1025.5, 78.0, 959.5, 78.0 ],
					"source" : [ "obj-8", 0 ]
				}

			}
, 			{
				"patchline" : 				{
					"destination" : [ "obj-11", 0 ],
					"midpoints" : [ 166.5, 747.0, 166.5, 747.0 ],
					"source" : [ "obj-80", 0 ]
				}

			}
, 			{
				"patchline" : 				{
					"destination" : [ "obj-27", 0 ],
					"midpoints" : [ 294.5, 747.0, 294.5, 747.0 ],
					"source" : [ "obj-81", 0 ]
				}

			}
, 			{
				"patchline" : 				{
					"destination" : [ "obj-36", 0 ],
					"midpoints" : [ 677.5, 747.0, 677.5, 747.0 ],
					"source" : [ "obj-82", 0 ]
				}

			}
, 			{
				"patchline" : 				{
					"destination" : [ "obj-28", 0 ],
					"midpoints" : [ 342.5, 747.0, 342.5, 747.0 ],
					"source" : [ "obj-83", 0 ]
				}

			}
, 			{
				"patchline" : 				{
					"destination" : [ "obj-33", 0 ],
					"midpoints" : [ 438.5, 747.0, 438.5, 747.0 ],
					"source" : [ "obj-85", 0 ]
				}

			}
, 			{
				"patchline" : 				{
					"destination" : [ "obj-29", 0 ],
					"midpoints" : [ 390.5, 747.0, 390.5, 747.0 ],
					"source" : [ "obj-86", 0 ]
				}

			}
, 			{
				"patchline" : 				{
					"destination" : [ "obj-31", 0 ],
					"midpoints" : [ 533.5, 747.0, 533.5, 747.0 ],
					"source" : [ "obj-87", 0 ]
				}

			}
, 			{
				"patchline" : 				{
					"destination" : [ "obj-32", 0 ],
					"midpoints" : [ 486.5, 747.0, 486.5, 747.0 ],
					"source" : [ "obj-88", 0 ]
				}

			}
, 			{
				"patchline" : 				{
					"destination" : [ "obj-46", 0 ],
					"midpoints" : [ 629.5, 747.0, 629.5, 747.0 ],
					"source" : [ "obj-89", 0 ]
				}

			}
, 			{
				"patchline" : 				{
					"destination" : [ "obj-34", 0 ],
					"midpoints" : [ 581.5, 747.0, 581.5, 747.0 ],
					"source" : [ "obj-90", 0 ]
				}

			}
 ]
	}

}
