{
	"patcher" : 	{
		"fileversion" : 1,
		"appversion" : 		{
			"major" : 8,
			"minor" : 5,
			"revision" : 3,
			"architecture" : "x64",
			"modernui" : 1
		}
,
		"classnamespace" : "box",
		"rect" : [ 0.0, 66.0, 496.0, 458.0 ],
		"bglocked" : 0,
		"openinpresentation" : 1,
		"default_fontsize" : 12.0,
		"default_fontface" : 0,
		"default_fontname" : "Ableton Sans Medium",
		"gridonopen" : 1,
		"gridsize" : [ 15.0, 15.0 ],
		"gridsnaponopen" : 1,
		"objectsnaponopen" : 1,
		"statusbarvisible" : 2,
		"toolbarvisible" : 1,
		"lefttoolbarpinned" : 2,
		"toptoolbarpinned" : 2,
		"righttoolbarpinned" : 0,
		"bottomtoolbarpinned" : 0,
		"toolbars_unpinned_last_save" : 3,
		"tallnewobj" : 0,
		"boxanimatetime" : 200,
		"enablehscroll" : 1,
		"enablevscroll" : 1,
		"devicewidth" : 0.0,
		"description" : "",
		"digest" : "",
		"tags" : "",
		"style" : "",
		"subpatcher_template" : "%",
		"assistshowspatchername" : 0,
		"boxes" : [ 			{
				"box" : 				{
					"id" : "obj-12",
					"maxclass" : "newobj",
					"numinlets" : 1,
					"numoutlets" : 5,
					"outlettype" : [ "", "", "", "", "" ],
					"patching_rect" : [ 35.824253082275391, 365.589399106083476, 480.474724790335131, 23.0 ],
					"text" : "unjoin 4"
				}

			}
, 			{
				"box" : 				{
					"bgmode" : 0,
					"border" : 1,
					"clickthrough" : 0,
					"enablehscroll" : 0,
					"enablevscroll" : 0,
					"id" : "obj-9",
					"lockeddragscroll" : 0,
					"lockedsize" : 0,
					"maxclass" : "bpatcher",
					"name" : "mo.slider.maxpat",
					"numinlets" : 2,
					"numoutlets" : 1,
					"offset" : [ 0.0, 0.0 ],
					"outlettype" : [ "" ],
					"patching_rect" : [ 381.930296675026739, 433.886411435185039, 99.255791574060538, 111.862850174307823 ],
					"presentation" : 1,
					"presentation_rect" : [ 368.930296675026739, 324.886411435185039, 99.255791574060538, 111.862850174307823 ],
					"viewvisibility" : 1
				}

			}
, 			{
				"box" : 				{
					"bgmode" : 0,
					"border" : 1,
					"clickthrough" : 0,
					"enablehscroll" : 0,
					"enablevscroll" : 0,
					"id" : "obj-7",
					"lockeddragscroll" : 0,
					"lockedsize" : 0,
					"maxclass" : "bpatcher",
					"name" : "mo.slider.maxpat",
					"numinlets" : 2,
					"numoutlets" : 1,
					"offset" : [ 0.0, 0.0 ],
					"outlettype" : [ "" ],
					"patching_rect" : [ 266.561615477442956, 433.886411435185039, 99.255791574060538, 111.862850174307823 ],
					"presentation" : 1,
					"presentation_rect" : [ 253.561615477442956, 324.886411435185039, 99.255791574060538, 111.862850174307823 ],
					"viewvisibility" : 1
				}

			}
, 			{
				"box" : 				{
					"bgmode" : 0,
					"border" : 1,
					"clickthrough" : 0,
					"enablehscroll" : 0,
					"enablevscroll" : 0,
					"id" : "obj-6",
					"lockeddragscroll" : 0,
					"lockedsize" : 0,
					"maxclass" : "bpatcher",
					"name" : "mo.slider.maxpat",
					"numinlets" : 2,
					"numoutlets" : 1,
					"offset" : [ 0.0, 0.0 ],
					"outlettype" : [ "" ],
					"patching_rect" : [ 151.192934279859173, 433.886411435185039, 99.255791574060538, 111.862850174307823 ],
					"presentation" : 1,
					"presentation_rect" : [ 138.192934279859173, 324.886411435185039, 99.255791574060538, 111.862850174307823 ],
					"viewvisibility" : 1
				}

			}
, 			{
				"box" : 				{
					"bgmode" : 0,
					"border" : 1,
					"clickthrough" : 0,
					"enablehscroll" : 0,
					"enablevscroll" : 0,
					"id" : "obj-4",
					"lockeddragscroll" : 0,
					"lockedsize" : 0,
					"maxclass" : "bpatcher",
					"name" : "mo.slider.maxpat",
					"numinlets" : 2,
					"numoutlets" : 1,
					"offset" : [ 0.0, 0.0 ],
					"outlettype" : [ "" ],
					"patching_rect" : [ 35.824253082275391, 433.886411435185039, 99.255791574060538, 111.862850174307823 ],
					"presentation" : 1,
					"presentation_rect" : [ 22.824253082275391, 324.886411435185039, 99.255791574060538, 111.862850174307823 ],
					"viewvisibility" : 1
				}

			}
, 			{
				"box" : 				{
					"args" : [ 1, 4 ],
					"bgmode" : 0,
					"border" : 1,
					"clickthrough" : 0,
					"enablehscroll" : 0,
					"enablevscroll" : 0,
					"id" : "obj-2",
					"lockeddragscroll" : 0,
					"lockedsize" : 0,
					"maxclass" : "bpatcher",
					"name" : "mo.crosspatch.maxpat",
					"numinlets" : 2,
					"numoutlets" : 1,
					"offset" : [ 0.0, 0.0 ],
					"outlettype" : [ "" ],
					"patching_rect" : [ 35.824253082275391, 212.886411435185039, 211.361835166811943, 125.750918656587601 ],
					"presentation" : 1,
					"presentation_rect" : [ 22.824253082275391, 163.886411435185039, 211.361835166811943, 125.750918656587601 ],
					"varname" : "mo.crosspatch",
					"viewvisibility" : 1
				}

			}
, 			{
				"box" : 				{
					"bgmode" : 0,
					"border" : 1,
					"clickthrough" : 0,
					"enablehscroll" : 0,
					"enablevscroll" : 0,
					"id" : "obj-1",
					"lockeddragscroll" : 0,
					"lockedsize" : 0,
					"maxclass" : "bpatcher",
					"name" : "mo.slider.maxpat",
					"numinlets" : 2,
					"numoutlets" : 1,
					"offset" : [ 0.0, 0.0 ],
					"outlettype" : [ "" ],
					"patching_rect" : [ 35.824253082275391, 34.886411435185039, 99.255791574060538, 111.862850174307823 ],
					"presentation" : 1,
					"presentation_rect" : [ 22.824253082275391, 22.886411435185039, 99.255791574060538, 111.862850174307823 ],
					"viewvisibility" : 1
				}

			}
, 			{
				"box" : 				{
					"bubble" : 1,
					"id" : "obj-13",
					"maxclass" : "comment",
					"numinlets" : 1,
					"numoutlets" : 0,
					"patching_rect" : [ 656.0, 268.194744768518035, 85.0, 25.0 ],
					"presentation" : 1,
					"presentation_rect" : [ 375.166666666666686, 213.761870763478839, 85.0, 25.0 ],
					"text" : "load preset"
				}

			}
, 			{
				"box" : 				{
					"id" : "obj-136",
					"maxclass" : "message",
					"numinlets" : 2,
					"numoutlets" : 1,
					"outlettype" : [ "" ],
					"patching_rect" : [ 948.0, 100.886411435185039, 68.0, 23.0 ],
					"text" : "crosspatch"
				}

			}
, 			{
				"box" : 				{
					"id" : "obj-121",
					"maxclass" : "newobj",
					"numinlets" : 2,
					"numoutlets" : 2,
					"outlettype" : [ "", "" ],
					"patching_rect" : [ 815.0, 133.486411435185062, 152.0, 23.0 ],
					"text" : "combine mo. s @triggers 1"
				}

			}
, 			{
				"box" : 				{
					"id" : "obj-8",
					"maxclass" : "message",
					"numinlets" : 2,
					"numoutlets" : 1,
					"outlettype" : [ "" ],
					"patching_rect" : [ 815.0, 168.767661435184777, 77.0, 23.0 ],
					"text" : "subscribe $1"
				}

			}
, 			{
				"box" : 				{
					"id" : "obj-10",
					"maxclass" : "message",
					"numinlets" : 2,
					"numoutlets" : 1,
					"outlettype" : [ "" ],
					"patching_rect" : [ 650.0, 168.767661435184777, 36.0, 23.0 ],
					"text" : "write"
				}

			}
, 			{
				"box" : 				{
					"id" : "obj-5",
					"maxclass" : "message",
					"numinlets" : 2,
					"numoutlets" : 1,
					"outlettype" : [ "" ],
					"patching_rect" : [ 571.0, 168.767661435184777, 65.0, 23.0 ],
					"text" : "writeagain"
				}

			}
, 			{
				"box" : 				{
					"autorestore" : "p-mapping.json",
					"id" : "obj-34",
					"maxclass" : "newobj",
					"numinlets" : 1,
					"numoutlets" : 1,
					"outlettype" : [ "" ],
					"patching_rect" : [ 571.0, 222.767661435184777, 498.0, 23.0 ],
					"priority" : 					{
						"mo.crosspatch::Crosspatch" : 1
					}
,
					"saved_object_attributes" : 					{
						"client_rect" : [ 100, 100, 500, 600 ],
						"parameter_enable" : 0,
						"parameter_mappable" : 0,
						"storage_rect" : [ 200, 200, 800, 500 ]
					}
,
					"subscribe" : [ "mo.crosspatch" ],
					"text" : "pattrstorage p-mapping @savemode 3 @autorestore 1 @changemode 1 @subscribemode 1",
					"varname" : "p-mapping"
				}

			}
, 			{
				"box" : 				{
					"bubblesize" : 20,
					"id" : "obj-33",
					"maxclass" : "preset",
					"numinlets" : 1,
					"numoutlets" : 5,
					"outlettype" : [ "preset", "int", "preset", "int", "" ],
					"patching_rect" : [ 571.0, 267.194744768518035, 53.0, 30.0 ],
					"pattrstorage" : "p-mapping",
					"presentation" : 1,
					"presentation_rect" : [ 281.166666666666686, 211.761870763478839, 53.0, 30.0 ]
				}

			}
, 			{
				"box" : 				{
					"bgcolor" : [ 1.0, 0.788235, 0.470588, 1.0 ],
					"bgoncolor" : [ 0.55, 0.55, 0.55, 1.0 ],
					"fontname" : "Ableton Sans Medium",
					"fontsize" : 9.5,
					"hint" : "",
					"id" : "obj-32",
					"ignoreclick" : 1,
					"legacytextcolor" : 1,
					"maxclass" : "textbutton",
					"numinlets" : 1,
					"numoutlets" : 3,
					"outlettype" : [ "", "", "int" ],
					"parameter_enable" : 0,
					"patching_rect" : [ 630.0, 272.194744768518035, 20.0, 20.0 ],
					"presentation" : 1,
					"presentation_rect" : [ 349.166666666666686, 216.761870763478839, 20.0, 20.0 ],
					"rounded" : 60.0,
					"text" : "1",
					"textcolor" : [ 0.34902, 0.34902, 0.34902, 1.0 ],
					"textoncolor" : [ 1.0, 1.0, 1.0, 1.0 ],
					"textovercolor" : [ 0.1, 0.1, 0.1, 1.0 ],
					"usebgoncolor" : 1,
					"usetextovercolor" : 1
				}

			}
 ],
		"lines" : [ 			{
				"patchline" : 				{
					"destination" : [ "obj-2", 0 ],
					"source" : [ "obj-1", 0 ]
				}

			}
, 			{
				"patchline" : 				{
					"destination" : [ "obj-34", 0 ],
					"midpoints" : [ 659.5, 207.0, 580.5, 207.0 ],
					"source" : [ "obj-10", 0 ]
				}

			}
, 			{
				"patchline" : 				{
					"destination" : [ "obj-4", 0 ],
					"source" : [ "obj-12", 0 ]
				}

			}
, 			{
				"patchline" : 				{
					"destination" : [ "obj-6", 0 ],
					"source" : [ "obj-12", 1 ]
				}

			}
, 			{
				"patchline" : 				{
					"destination" : [ "obj-7", 0 ],
					"source" : [ "obj-12", 2 ]
				}

			}
, 			{
				"patchline" : 				{
					"destination" : [ "obj-9", 0 ],
					"source" : [ "obj-12", 3 ]
				}

			}
, 			{
				"patchline" : 				{
					"destination" : [ "obj-8", 0 ],
					"midpoints" : [ 824.5, 159.0, 824.5, 159.0 ],
					"source" : [ "obj-121", 0 ]
				}

			}
, 			{
				"patchline" : 				{
					"destination" : [ "obj-121", 1 ],
					"midpoints" : [ 957.5, 126.0, 957.5, 126.0 ],
					"source" : [ "obj-136", 0 ]
				}

			}
, 			{
				"patchline" : 				{
					"destination" : [ "obj-12", 0 ],
					"source" : [ "obj-2", 0 ]
				}

			}
, 			{
				"patchline" : 				{
					"destination" : [ "obj-34", 0 ],
					"midpoints" : [ 580.5, 192.0, 580.5, 192.0 ],
					"source" : [ "obj-5", 0 ]
				}

			}
, 			{
				"patchline" : 				{
					"destination" : [ "obj-34", 0 ],
					"midpoints" : [ 824.5, 207.0, 580.5, 207.0 ],
					"source" : [ "obj-8", 0 ]
				}

			}
 ],
		"parameters" : 		{
			"obj-1::obj-6" : [ "live.text[49]", "live.text", 0 ],
			"obj-1::obj-8" : [ "live.text[188]", "live.text", 0 ],
			"obj-2::obj-2" : [ "live.text[56]", "live.text", 0 ],
			"obj-2::obj-37" : [ "live.numbox[1]", "live.numbox", 0 ],
			"obj-2::obj-39" : [ "live.numbox[2]", "live.numbox", 0 ],
			"obj-4::obj-6" : [ "live.text[69]", "live.text", 0 ],
			"obj-4::obj-8" : [ "live.text[55]", "live.text", 0 ],
			"obj-6::obj-6" : [ "live.text[82]", "live.text", 0 ],
			"obj-6::obj-8" : [ "live.text[80]", "live.text", 0 ],
			"obj-7::obj-6" : [ "live.text[79]", "live.text", 0 ],
			"obj-7::obj-8" : [ "live.text[77]", "live.text", 0 ],
			"obj-9::obj-6" : [ "live.text[81]", "live.text", 0 ],
			"obj-9::obj-8" : [ "live.text[57]", "live.text", 0 ],
			"parameterbanks" : 			{
				"0" : 				{
					"index" : 0,
					"name" : "",
					"parameters" : [ "-", "-", "-", "-", "-", "-", "-", "-" ]
				}

			}
,
			"parameter_overrides" : 			{
				"obj-1::obj-6" : 				{
					"parameter_longname" : "live.text[49]"
				}
,
				"obj-1::obj-8" : 				{
					"parameter_longname" : "live.text[188]"
				}
,
				"obj-4::obj-6" : 				{
					"parameter_longname" : "live.text[69]"
				}
,
				"obj-4::obj-8" : 				{
					"parameter_longname" : "live.text[55]"
				}
,
				"obj-6::obj-6" : 				{
					"parameter_longname" : "live.text[82]"
				}
,
				"obj-6::obj-8" : 				{
					"parameter_longname" : "live.text[80]"
				}
,
				"obj-7::obj-6" : 				{
					"parameter_longname" : "live.text[79]"
				}
,
				"obj-7::obj-8" : 				{
					"parameter_longname" : "live.text[77]"
				}
,
				"obj-9::obj-6" : 				{
					"parameter_longname" : "live.text[81]"
				}
,
				"obj-9::obj-8" : 				{
					"parameter_longname" : "live.text[57]"
				}

			}
,
			"inherited_shortname" : 1
		}
,
		"dependency_cache" : [ 			{
				"name" : "clear.svg",
				"bootpath" : "~/Documents/GitHub/modulo/object-icons",
				"patcherrelativepath" : "../../object-icons",
				"type" : "svg",
				"implicit" : 1
			}
, 			{
				"name" : "lock.svg",
				"bootpath" : "C74:/interfaces",
				"type" : "svg",
				"implicit" : 1
			}
, 			{
				"name" : "mo.crosspatch.maxpat",
				"bootpath" : "~/Documents/GitHub/modulo/patchers/utilities",
				"patcherrelativepath" : "../../patchers/utilities",
				"type" : "JSON",
				"implicit" : 1
			}
, 			{
				"name" : "mo.slider.maxpat",
				"bootpath" : "~/Documents/GitHub/modulo/patchers/input",
				"patcherrelativepath" : "../../patchers/input",
				"type" : "JSON",
				"implicit" : 1
			}
, 			{
				"name" : "p-mapping.json",
				"bootpath" : "~/Documents/GitHub/modulo/misc/presets",
				"patcherrelativepath" : "../../misc/presets",
				"type" : "JSON",
				"implicit" : 1
			}
, 			{
				"name" : "unlock.svg",
				"bootpath" : "C74:/interfaces",
				"type" : "svg",
				"implicit" : 1
			}
 ],
		"autosave" : 0,
		"patchlinecolor" : [ 0.0, 0.0, 0.0, 1.0 ],
		"bgcolor" : [ 0.694117647058824, 0.694117647058824, 0.694117647058824, 1.0 ],
		"editing_bgcolor" : [ 0.694117647058824, 0.694117647058824, 0.694117647058824, 1.0 ]
	}

}
