{
	"patcher" : 	{
		"fileversion" : 1,
		"appversion" : 		{
			"major" : 8,
			"minor" : 5,
			"revision" : 6,
			"architecture" : "x64",
			"modernui" : 1
		}
,
		"classnamespace" : "box",
		"rect" : [ 0.0, 53.0, 214.0, 214.0 ],
		"openrect" : [ 0.0, 0.0, 214.0, 214.0 ],
		"bglocked" : 0,
		"openinpresentation" : 1,
		"default_fontsize" : 12.0,
		"default_fontface" : 0,
		"default_fontname" : "Ableton Sans Medium",
		"gridonopen" : 2,
		"gridsize" : [ 10.0, 10.0 ],
		"gridsnaponopen" : 2,
		"objectsnaponopen" : 1,
		"statusbarvisible" : 2,
		"toolbarvisible" : 1,
		"lefttoolbarpinned" : 0,
		"toptoolbarpinned" : 0,
		"righttoolbarpinned" : 0,
		"bottomtoolbarpinned" : 0,
		"toolbars_unpinned_last_save" : 3,
		"tallnewobj" : 0,
		"boxanimatetime" : 200,
		"enablehscroll" : 1,
		"enablevscroll" : 1,
		"devicewidth" : 0.0,
		"description" : "",
		"digest" : "",
		"tags" : "",
		"style" : "",
		"subpatcher_template" : "mo.main",
		"assistshowspatchername" : 0,
		"boxes" : [ 			{
				"box" : 				{
					"id" : "obj-46",
					"linecolor" : [ 0.0, 0.0, 0.0, 1.0 ],
					"maxclass" : "live.line",
					"numinlets" : 1,
					"numoutlets" : 0,
					"patching_rect" : [ 746.0, 55.0, 150.442643090089064, 5.0 ],
					"presentation" : 1,
					"presentation_rect" : [ 22.0, 22.0, 5.0, 192.0 ],
					"saved_attribute_attributes" : 					{
						"linecolor" : 						{
							"expression" : ""
						}

					}

				}

			}
, 			{
				"box" : 				{
					"bgcolor" : [ 0.2, 0.2, 0.2, 0.0 ],
					"candycane" : 8,
					"displayknob" : 1,
					"id" : "obj-236",
					"knobsize" : 15.0,
					"maxclass" : "nodes",
					"nodenumber" : 4,
					"nodesnames" : [ "1", "2", "3", "4" ],
					"nsize" : [ 0.37256, 0.4428, 0.48204, 0.23664 ],
					"numinlets" : 1,
					"numoutlets" : 3,
					"outlettype" : [ "", "", "" ],
					"parameter_enable" : 0,
					"patching_rect" : [ 87.1877336576174, 274.54613277936005, 166.693199520390976, 165.149206840824718 ],
					"presentation" : 1,
					"presentation_rect" : [ 28.0, 28.0, 180.0, 181.0 ],
					"varname" : "nodes-",
					"xplace" : [ 0.5748, 0.7409, 0.7386, 0.1797 ],
					"yplace" : [ 0.2952, 0.3549, 0.9546, 0.2085 ]
				}

			}
, 			{
				"box" : 				{
					"arrow" : 0,
					"bgcolor" : [ 0.701957941055298, 0.701978802680969, 0.701966941356659, 0.0 ],
					"bgfillcolor_angle" : 270.0,
					"bgfillcolor_autogradient" : 0.0,
					"bgfillcolor_color" : [ 0.701957941055298, 0.701978802680969, 0.701966941356659, 0.0 ],
					"bgfillcolor_color1" : [ 0.301961, 0.301961, 0.301961, 1.0 ],
					"bgfillcolor_color2" : [ 0.2, 0.2, 0.2, 1.0 ],
					"bgfillcolor_proportion" : 0.5,
					"bgfillcolor_type" : "color",
					"fontface" : 0,
					"fontname" : "Ableton Sans Medium",
					"fontsize" : 9.5,
					"id" : "obj-28",
					"items" : [ "Black", ",", "Red", ",", "Green", ",", "Blue", ",", "Yellow", ",", "Cyan", ",", "Magenta", ",", "Orange", ",", "Pink", ",", "Purple", ",", "Brown", ",", "Teal", ",", "Lavender", ",", "Silver", ",", "Gold", ",", "White" ],
					"maxclass" : "umenu",
					"numinlets" : 1,
					"numoutlets" : 3,
					"outlettype" : [ "int", "", "" ],
					"parameter_enable" : 0,
					"parameter_mappable" : 0,
					"patching_rect" : [ 610.0, 190.001276284456253, 76.707317113876343, 20.0 ],
					"presentation" : 1,
					"presentation_rect" : [ 169.0, 24.0, 19.0, 20.0 ],
					"textcolor" : [ 0.0, 0.0, 0.0, 0.0 ],
					"varname" : "color-"
				}

			}
, 			{
				"box" : 				{
					"id" : "obj-7",
					"linecolor" : [ 0.0, 0.0, 0.0, 1.0 ],
					"maxclass" : "live.line",
					"numinlets" : 1,
					"numoutlets" : 0,
					"patching_rect" : [ 357.806426948309081, 25.498130464903795, 150.442643090089064, 5.0 ],
					"presentation" : 1,
					"presentation_rect" : [ 0.0, 22.0, 214.0, 5.0 ],
					"saved_attribute_attributes" : 					{
						"linecolor" : 						{
							"expression" : ""
						}

					}

				}

			}
, 			{
				"box" : 				{
					"hidden" : 1,
					"id" : "obj-12",
					"maxclass" : "newobj",
					"numinlets" : 1,
					"numoutlets" : 1,
					"outlettype" : [ "bang" ],
					"patching_rect" : [ 1339.0, 771.626276284456253, 58.0, 23.0 ],
					"text" : "loadbang"
				}

			}
, 			{
				"box" : 				{
					"hidden" : 1,
					"id" : "obj-14",
					"maxclass" : "newobj",
					"numinlets" : 1,
					"numoutlets" : 1,
					"outlettype" : [ "" ],
					"patching_rect" : [ 1339.0, 796.626276284456253, 82.0, 23.0 ],
					"text" : "a-mo.settings"
				}

			}
, 			{
				"box" : 				{
					"hidden" : 1,
					"id" : "obj-15",
					"maxclass" : "newobj",
					"numinlets" : 1,
					"numoutlets" : 2,
					"outlettype" : [ "", "" ],
					"patching_rect" : [ 1396.0, 846.626276284456253, 70.0, 23.0 ],
					"save" : [ "#N", "thispatcher", ";", "#Q", "end", ";" ],
					"text" : "thispatcher"
				}

			}
, 			{
				"box" : 				{
					"hidden" : 1,
					"id" : "obj-24",
					"maxclass" : "newobj",
					"numinlets" : 1,
					"numoutlets" : 0,
					"patching_rect" : [ 1339.0, 821.626276284456253, 127.0, 23.0 ],
					"text" : "universal @descend 1"
				}

			}
, 			{
				"box" : 				{
					"id" : "obj-11",
					"maxclass" : "newobj",
					"numinlets" : 1,
					"numoutlets" : 3,
					"outlettype" : [ "", "", "" ],
					"patching_rect" : [ 495.108322477340835, 183.695019802407899, 269.0, 23.0 ],
					"saved_object_attributes" : 					{
						"initial" : [ 0 ],
						"parameter_enable" : 0,
						"parameter_mappable" : 0
					}
,
					"text" : "pattr mute @bindto mute- @initial 0 @invisible 1",
					"varname" : "mute"
				}

			}
, 			{
				"box" : 				{
					"id" : "obj-10",
					"maxclass" : "newobj",
					"numinlets" : 2,
					"numoutlets" : 1,
					"outlettype" : [ "int" ],
					"patching_rect" : [ 52.0, 123.0, 29.5, 23.0 ],
					"text" : "!- 1"
				}

			}
, 			{
				"box" : 				{
					"activebgcolor" : [ 0.647058823529412, 0.647058823529412, 0.647058823529412, 0.0 ],
					"activebgoncolor" : [ 1.0, 0.345098039215686, 0.298039215686275, 1.0 ],
					"appearance" : 1,
					"bordercolor" : [ 0.0, 0.0, 0.0, 1.0 ],
					"focusbordercolor" : [ 0.313725, 0.313725, 0.313725, 0.0 ],
					"id" : "obj-6",
					"maxclass" : "live.text",
					"numinlets" : 1,
					"numoutlets" : 2,
					"outlettype" : [ "", "" ],
					"parameter_enable" : 1,
					"patching_rect" : [ 52.1877336576174, 90.0, 54.0, 15.0 ],
					"pictures" : [ "unlock.svg", "lock.svg" ],
					"presentation" : 1,
					"presentation_rect" : [ 4.0, 4.0, 49.744737782587066, 15.0 ],
					"remapsvgcolors" : 1,
					"saved_attribute_attributes" : 					{
						"activebgcolor" : 						{
							"expression" : ""
						}
,
						"activebgoncolor" : 						{
							"expression" : "themecolor.live_active_automation"
						}
,
						"bordercolor" : 						{
							"expression" : ""
						}
,
						"focusbordercolor" : 						{
							"expression" : ""
						}
,
						"valueof" : 						{
							"parameter_enum" : [ "val1", "val2" ],
							"parameter_longname" : "live.text[25]",
							"parameter_mmax" : 1,
							"parameter_shortname" : "live.text",
							"parameter_type" : 2
						}

					}
,
					"text" : "nodes",
					"texton" : "nodes",
					"varname" : "mute-"
				}

			}
, 			{
				"box" : 				{
					"activebgcolor" : [ 1.0, 0.345098039215686, 0.298039215686275, 0.0 ],
					"activebgoncolor" : [ 0.427450980392157, 0.843137254901961, 1.0, 1.0 ],
					"bordercolor" : [ 0.0, 0.0, 0.0, 1.0 ],
					"focusbordercolor" : [ 0.313725, 0.313725, 0.313725, 0.0 ],
					"id" : "obj-13",
					"maxclass" : "live.text",
					"mode" : 0,
					"numinlets" : 1,
					"numoutlets" : 2,
					"outlettype" : [ "", "" ],
					"parameter_enable" : 1,
					"patching_rect" : [ 87.1877336576174, 187.695019802407899, 37.0, 15.0 ],
					"pictures" : [ "random.svg", "random.svg" ],
					"saved_attribute_attributes" : 					{
						"activebgcolor" : 						{
							"expression" : ""
						}
,
						"activebgoncolor" : 						{
							"expression" : "themecolor.live_value_bar"
						}
,
						"activetextcolor" : 						{
							"expression" : ""
						}
,
						"bordercolor" : 						{
							"expression" : ""
						}
,
						"focusbordercolor" : 						{
							"expression" : ""
						}
,
						"textcolor" : 						{
							"expression" : ""
						}
,
						"valueof" : 						{
							"parameter_enum" : [ "val1", "val2" ],
							"parameter_longname" : "live.text[26]",
							"parameter_mmax" : 1,
							"parameter_shortname" : "live.text",
							"parameter_type" : 2
						}

					}
,
					"text" : "bang",
					"textcolor" : [ 0.0, 0.0, 0.0, 1.0 ],
					"texton" : "stop",
					"varname" : "randomizer-[1]"
				}

			}
, 			{
				"box" : 				{
					"id" : "obj-21",
					"maxclass" : "newobj",
					"numinlets" : 2,
					"numoutlets" : 1,
					"outlettype" : [ "int" ],
					"patching_rect" : [ 130.0, 523.202009417587988, 29.5, 23.0 ],
					"text" : "> 0."
				}

			}
, 			{
				"box" : 				{
					"id" : "obj-20",
					"maxclass" : "newobj",
					"numinlets" : 2,
					"numoutlets" : 1,
					"outlettype" : [ "" ],
					"patching_rect" : [ 52.1877336576174, 577.0, 54.0, 23.0 ],
					"text" : "gate 1 1"
				}

			}
, 			{
				"box" : 				{
					"id" : "obj-18",
					"maxclass" : "newobj",
					"numinlets" : 2,
					"numoutlets" : 2,
					"outlettype" : [ "", "" ],
					"patching_rect" : [ 130.0, 492.202009417587988, 42.0, 23.0 ],
					"text" : "zl.sum"
				}

			}
, 			{
				"box" : 				{
					"id" : "obj-1",
					"maxclass" : "newobj",
					"numinlets" : 1,
					"numoutlets" : 2,
					"outlettype" : [ "", "" ],
					"patching_rect" : [ 87.1877336576174, 456.25571778257904, 61.8122663423826, 23.0 ],
					"text" : "t l l"
				}

			}
, 			{
				"box" : 				{
					"id" : "obj-16",
					"maxclass" : "newobj",
					"numinlets" : 1,
					"numoutlets" : 3,
					"outlettype" : [ "", "", "" ],
					"patching_rect" : [ 357.806426948309081, 274.54613277936005, 225.0, 23.0 ],
					"restore" : [ 0.5748, 0.2952, 0.37256, 1, 0.7409, 0.3549, 0.4428, 1, 0.7386, 0.9546, 0.48204, 1, 0.1797, 0.2085, 0.23664, 1 ],
					"saved_object_attributes" : 					{
						"parameter_enable" : 0,
						"parameter_mappable" : 0
					}
,
					"text" : "pattr nodes @bindto nodes- @invisible 1",
					"varname" : "nodes"
				}

			}
, 			{
				"box" : 				{
					"candycane" : 8,
					"contdata" : 1,
					"id" : "obj-9",
					"maxclass" : "multislider",
					"numinlets" : 1,
					"numoutlets" : 2,
					"outlettype" : [ "", "" ],
					"parameter_enable" : 1,
					"patching_rect" : [ 235.1877336576174, 530.5, 75.0, 39.0 ],
					"saved_attribute_attributes" : 					{
						"valueof" : 						{
							"parameter_invisible" : 1,
							"parameter_longname" : "multislider[3]",
							"parameter_shortname" : "multislider[2]",
							"parameter_type" : 3
						}

					}
,
					"setminmax" : [ 0.0, 1.0 ],
					"setstyle" : 1,
					"size" : 2,
					"varname" : "multislider[1]"
				}

			}
, 			{
				"box" : 				{
					"comment" : "(list) interpolated weigth for each active node",
					"id" : "obj-8",
					"index" : 1,
					"maxclass" : "outlet",
					"numinlets" : 1,
					"numoutlets" : 0,
					"patching_rect" : [ 52.1877336576174, 624.0, 30.0, 30.0 ]
				}

			}
, 			{
				"box" : 				{
					"activebgcolor" : [ 0.266666666666667, 0.266666666666667, 0.266666666666667, 0.0 ],
					"activebgoncolor" : [ 0.427450980392157, 0.843137254901961, 1.0, 1.0 ],
					"annotation" : "",
					"bordercolor" : [ 0.0, 0.0, 0.0, 1.0 ],
					"focusbordercolor" : [ 0.313725, 0.313725, 0.313725, 0.0 ],
					"id" : "obj-3",
					"maxclass" : "live.text",
					"mode" : 0,
					"numinlets" : 1,
					"numoutlets" : 2,
					"outlettype" : [ "", "" ],
					"outputmode" : 1,
					"parameter_enable" : 1,
					"patching_rect" : [ 125.25, 187.695019802407899, 43.0, 15.0 ],
					"pictures" : [ "random.svg", "random.svg" ],
					"presentation" : 1,
					"presentation_rect" : [ 147.0, 4.0, 34.609442472457886, 15.0 ],
					"rounded" : 100.0,
					"saved_attribute_attributes" : 					{
						"activebgcolor" : 						{
							"expression" : ""
						}
,
						"activebgoncolor" : 						{
							"expression" : "themecolor.live_numbox_triangle"
						}
,
						"activetextcolor" : 						{
							"expression" : ""
						}
,
						"bordercolor" : 						{
							"expression" : ""
						}
,
						"focusbordercolor" : 						{
							"expression" : ""
						}
,
						"valueof" : 						{
							"parameter_enum" : [ "val1", "val2" ],
							"parameter_invisible" : 2,
							"parameter_longname" : "live.text[716]",
							"parameter_mmax" : 1,
							"parameter_shortname" : "live.text",
							"parameter_type" : 2
						}

					}
,
					"text" : "rand",
					"varname" : "randomizer-"
				}

			}
, 			{
				"box" : 				{
					"id" : "obj-2",
					"maxclass" : "newobj",
					"numinlets" : 3,
					"numoutlets" : 1,
					"outlettype" : [ "" ],
					"patcher" : 					{
						"fileversion" : 1,
						"appversion" : 						{
							"major" : 8,
							"minor" : 5,
							"revision" : 6,
							"architecture" : "x64",
							"modernui" : 1
						}
,
						"classnamespace" : "box",
						"rect" : [ 450.0, 100.0, 668.0, 760.0 ],
						"bglocked" : 0,
						"openinpresentation" : 0,
						"default_fontsize" : 12.0,
						"default_fontface" : 0,
						"default_fontname" : "Ableton Sans Medium",
						"gridonopen" : 1,
						"gridsize" : [ 15.0, 15.0 ],
						"gridsnaponopen" : 1,
						"objectsnaponopen" : 1,
						"statusbarvisible" : 2,
						"toolbarvisible" : 1,
						"lefttoolbarpinned" : 0,
						"toptoolbarpinned" : 0,
						"righttoolbarpinned" : 0,
						"bottomtoolbarpinned" : 0,
						"toolbars_unpinned_last_save" : 0,
						"tallnewobj" : 0,
						"boxanimatetime" : 200,
						"enablehscroll" : 1,
						"enablevscroll" : 1,
						"devicewidth" : 0.0,
						"description" : "",
						"digest" : "",
						"tags" : "",
						"style" : "",
						"subpatcher_template" : "",
						"assistshowspatchername" : 0,
						"boxes" : [ 							{
								"box" : 								{
									"id" : "obj-3",
									"maxclass" : "newobj",
									"numinlets" : 2,
									"numoutlets" : 2,
									"outlettype" : [ "", "" ],
									"patching_rect" : [ 46.0, 225.0, 62.0, 23.0 ],
									"text" : "zl.group 2"
								}

							}
, 							{
								"box" : 								{
									"id" : "obj-1",
									"maxclass" : "newobj",
									"numinlets" : 2,
									"numoutlets" : 3,
									"outlettype" : [ "bang", "bang", "int" ],
									"patching_rect" : [ 25.0, 91.0, 40.0, 23.0 ],
									"text" : "uzi 2"
								}

							}
, 							{
								"box" : 								{
									"comment" : "",
									"id" : "obj-25",
									"index" : 3,
									"maxclass" : "inlet",
									"numinlets" : 0,
									"numoutlets" : 1,
									"outlettype" : [ "" ],
									"patching_rect" : [ 553.0, 22.0, 30.0, 30.0 ]
								}

							}
, 							{
								"box" : 								{
									"id" : "obj-96",
									"maxclass" : "message",
									"numinlets" : 2,
									"numoutlets" : 1,
									"outlettype" : [ "" ],
									"patching_rect" : [ 553.0, 91.0, 93.0, 23.0 ],
									"text" : "nodenumber $1"
								}

							}
, 							{
								"box" : 								{
									"comment" : "",
									"id" : "obj-18",
									"index" : 2,
									"maxclass" : "inlet",
									"numinlets" : 0,
									"numoutlets" : 1,
									"outlettype" : [ "" ],
									"patching_rect" : [ 210.0, 22.0, 30.0, 30.0 ]
								}

							}
, 							{
								"box" : 								{
									"id" : "obj-4",
									"maxclass" : "newobj",
									"numinlets" : 5,
									"numoutlets" : 1,
									"outlettype" : [ "" ],
									"patching_rect" : [ 354.880597054958344, 354.134328424930573, 98.0, 23.0 ],
									"text" : "zmap 0 1 0.1 0.5"
								}

							}
, 							{
								"box" : 								{
									"id" : "obj-6",
									"maxclass" : "message",
									"numinlets" : 2,
									"numoutlets" : 1,
									"outlettype" : [ "" ],
									"patching_rect" : [ 222.0, 390.0, 47.0, 23.0 ],
									"text" : "0.5 0.5"
								}

							}
, 							{
								"box" : 								{
									"id" : "obj-13",
									"maxclass" : "newobj",
									"numinlets" : 1,
									"numoutlets" : 1,
									"outlettype" : [ "" ],
									"patching_rect" : [ 354.880597054958344, 311.089552283287048, 179.0, 23.0 ],
									"text" : "expr random(0\\, 10001)*0.0001"
								}

							}
, 							{
								"box" : 								{
									"id" : "obj-26",
									"maxclass" : "newobj",
									"numinlets" : 1,
									"numoutlets" : 1,
									"outlettype" : [ "" ],
									"patching_rect" : [ 328.880597054958344, 268.044776141643524, 179.0, 23.0 ],
									"text" : "expr random(0\\, 10001)*0.0001"
								}

							}
, 							{
								"box" : 								{
									"id" : "obj-16",
									"maxclass" : "newobj",
									"numinlets" : 1,
									"numoutlets" : 1,
									"outlettype" : [ "" ],
									"patching_rect" : [ 303.641792058944702, 225.0, 179.0, 23.0 ],
									"text" : "expr random(0\\, 10001)*0.0001"
								}

							}
, 							{
								"box" : 								{
									"id" : "obj-41",
									"maxclass" : "newobj",
									"numinlets" : 1,
									"numoutlets" : 1,
									"outlettype" : [ "" ],
									"patching_rect" : [ 279.0, 433.0, 99.0, 23.0 ],
									"text" : "prepend setnode"
								}

							}
, 							{
								"box" : 								{
									"id" : "obj-104",
									"maxclass" : "newobj",
									"numinlets" : 4,
									"numoutlets" : 1,
									"outlettype" : [ "" ],
									"patching_rect" : [ 279.0, 390.0, 94.5, 23.0 ],
									"text" : "join 4"
								}

							}
, 							{
								"box" : 								{
									"id" : "obj-38",
									"maxclass" : "newobj",
									"numinlets" : 1,
									"numoutlets" : 4,
									"outlettype" : [ "int", "bang", "bang", "bang" ],
									"patching_rect" : [ 279.0, 159.925377070903778, 94.5, 23.0 ],
									"text" : "t i b b b"
								}

							}
, 							{
								"box" : 								{
									"id" : "obj-106",
									"maxclass" : "newobj",
									"numinlets" : 2,
									"numoutlets" : 3,
									"outlettype" : [ "bang", "bang", "int" ],
									"patching_rect" : [ 210.0, 91.0, 43.0, 23.0 ],
									"text" : "uzi 8 1"
								}

							}
, 							{
								"box" : 								{
									"comment" : "",
									"id" : "obj-29",
									"index" : 1,
									"maxclass" : "inlet",
									"numinlets" : 0,
									"numoutlets" : 1,
									"outlettype" : [ "" ],
									"patching_rect" : [ 25.0, 22.0, 30.0, 30.0 ]
								}

							}
, 							{
								"box" : 								{
									"id" : "obj-19",
									"maxclass" : "newobj",
									"numinlets" : 1,
									"numoutlets" : 1,
									"outlettype" : [ "" ],
									"patching_rect" : [ 46.0, 159.925377070903778, 156.0, 23.0 ],
									"text" : "expr random(0\\, 128) / 128."
								}

							}
, 							{
								"box" : 								{
									"comment" : "",
									"id" : "obj-2",
									"index" : 1,
									"maxclass" : "outlet",
									"numinlets" : 1,
									"numoutlets" : 0,
									"patching_rect" : [ 46.0, 711.0, 30.0, 30.0 ]
								}

							}
 ],
						"lines" : [ 							{
								"patchline" : 								{
									"destination" : [ "obj-19", 0 ],
									"midpoints" : [ 55.5, 117.0, 55.5, 117.0 ],
									"source" : [ "obj-1", 2 ]
								}

							}
, 							{
								"patchline" : 								{
									"destination" : [ "obj-41", 0 ],
									"midpoints" : [ 288.5, 414.0, 288.5, 414.0 ],
									"source" : [ "obj-104", 0 ]
								}

							}
, 							{
								"patchline" : 								{
									"destination" : [ "obj-38", 0 ],
									"midpoints" : [ 243.5, 144.0, 288.5, 144.0 ],
									"source" : [ "obj-106", 2 ]
								}

							}
, 							{
								"patchline" : 								{
									"destination" : [ "obj-6", 0 ],
									"midpoints" : [ 231.5, 117.0, 231.5, 117.0 ],
									"source" : [ "obj-106", 1 ]
								}

							}
, 							{
								"patchline" : 								{
									"destination" : [ "obj-4", 0 ],
									"midpoints" : [ 364.380597054958344, 336.0, 364.380597054958344, 336.0 ],
									"source" : [ "obj-13", 0 ]
								}

							}
, 							{
								"patchline" : 								{
									"destination" : [ "obj-104", 1 ],
									"midpoints" : [ 313.141792058944702, 249.0, 313.666666666666686, 249.0 ],
									"source" : [ "obj-16", 0 ]
								}

							}
, 							{
								"patchline" : 								{
									"destination" : [ "obj-106", 0 ],
									"midpoints" : [ 219.5, 54.0, 219.5, 54.0 ],
									"source" : [ "obj-18", 0 ]
								}

							}
, 							{
								"patchline" : 								{
									"destination" : [ "obj-3", 0 ],
									"midpoints" : [ 55.5, 183.0, 55.5, 183.0 ],
									"source" : [ "obj-19", 0 ]
								}

							}
, 							{
								"patchline" : 								{
									"destination" : [ "obj-106", 1 ],
									"midpoints" : [ 562.5, 78.0, 243.5, 78.0 ],
									"order" : 1,
									"source" : [ "obj-25", 0 ]
								}

							}
, 							{
								"patchline" : 								{
									"destination" : [ "obj-96", 0 ],
									"midpoints" : [ 562.5, 54.0, 562.5, 54.0 ],
									"order" : 0,
									"source" : [ "obj-25", 0 ]
								}

							}
, 							{
								"patchline" : 								{
									"destination" : [ "obj-104", 2 ],
									"midpoints" : [ 338.380597054958344, 294.0, 338.833333333333314, 294.0 ],
									"source" : [ "obj-26", 0 ]
								}

							}
, 							{
								"patchline" : 								{
									"destination" : [ "obj-1", 0 ],
									"midpoints" : [ 34.5, 54.0, 34.5, 54.0 ],
									"source" : [ "obj-29", 0 ]
								}

							}
, 							{
								"patchline" : 								{
									"destination" : [ "obj-2", 0 ],
									"midpoints" : [ 55.5, 249.0, 55.5, 249.0 ],
									"source" : [ "obj-3", 0 ]
								}

							}
, 							{
								"patchline" : 								{
									"destination" : [ "obj-104", 0 ],
									"midpoints" : [ 288.5, 183.0, 288.5, 183.0 ],
									"source" : [ "obj-38", 0 ]
								}

							}
, 							{
								"patchline" : 								{
									"destination" : [ "obj-13", 0 ],
									"midpoints" : [ 364.0, 210.0, 288.0, 210.0, 288.0, 306.0, 364.380597054958344, 306.0 ],
									"source" : [ "obj-38", 3 ]
								}

							}
, 							{
								"patchline" : 								{
									"destination" : [ "obj-16", 0 ],
									"midpoints" : [ 313.666666666666686, 183.0, 313.141792058944702, 183.0 ],
									"source" : [ "obj-38", 1 ]
								}

							}
, 							{
								"patchline" : 								{
									"destination" : [ "obj-26", 0 ],
									"midpoints" : [ 338.833333333333314, 210.0, 288.0, 210.0, 288.0, 264.0, 338.380597054958344, 264.0 ],
									"source" : [ "obj-38", 2 ]
								}

							}
, 							{
								"patchline" : 								{
									"destination" : [ "obj-104", 3 ],
									"midpoints" : [ 364.380597054958344, 378.0, 364.0, 378.0 ],
									"source" : [ "obj-4", 0 ]
								}

							}
, 							{
								"patchline" : 								{
									"destination" : [ "obj-2", 0 ],
									"midpoints" : [ 288.5, 696.0, 55.5, 696.0 ],
									"source" : [ "obj-41", 0 ]
								}

							}
, 							{
								"patchline" : 								{
									"destination" : [ "obj-2", 0 ],
									"midpoints" : [ 231.5, 696.0, 55.5, 696.0 ],
									"source" : [ "obj-6", 0 ]
								}

							}
, 							{
								"patchline" : 								{
									"destination" : [ "obj-2", 0 ],
									"midpoints" : [ 562.5, 696.0, 55.5, 696.0 ],
									"source" : [ "obj-96", 0 ]
								}

							}
 ],
						"textcolor" : [ 0.0, 0.0, 0.0, 1.0 ],
						"bgcolor" : [ 0.898, 0.898, 0.898, 1.0 ],
						"editing_bgcolor" : [ 0.898, 0.898, 0.898, 1.0 ]
					}
,
					"patching_rect" : [ 87.1877336576174, 231.0, 95.0, 23.0 ],
					"saved_object_attributes" : 					{
						"description" : "",
						"digest" : "",
						"editing_bgcolor" : [ 0.898, 0.898, 0.898, 1.0 ],
						"fontname" : "Ableton Sans Medium",
						"globalpatchername" : "",
						"locked_bgcolor" : [ 0.898, 0.898, 0.898, 1.0 ],
						"tags" : "",
						"textcolor" : [ 0.0, 0.0, 0.0, 1.0 ]
					}
,
					"text" : "p nodes"
				}

			}
, 			{
				"box" : 				{
					"comment" : "(int) voices, (list), xy values, (message) rand, mute",
					"id" : "obj-19",
					"index" : 1,
					"maxclass" : "inlet",
					"numinlets" : 0,
					"numoutlets" : 1,
					"outlettype" : [ "" ],
					"patching_rect" : [ 478.249070038398145, 32.498130464903795, 30.0, 30.0 ]
				}

			}
, 			{
				"box" : 				{
					"id" : "obj-22",
					"maxclass" : "newobj",
					"numinlets" : 5,
					"numoutlets" : 5,
					"outlettype" : [ "", "", "", "", "" ],
					"patching_rect" : [ 411.858322477340835, 95.871854180447542, 130.0, 23.0 ],
					"text" : "route list rand int mute"
				}

			}
, 			{
				"box" : 				{
					"id" : "obj-23",
					"maxclass" : "newobj",
					"numinlets" : 1,
					"numoutlets" : 1,
					"outlettype" : [ "bang" ],
					"patching_rect" : [ 357.806426948309081, 32.498130464903795, 58.0, 23.0 ],
					"text" : "loadbang"
				}

			}
, 			{
				"box" : 				{
					"id" : "obj-25",
					"maxclass" : "newobj",
					"numinlets" : 1,
					"numoutlets" : 2,
					"outlettype" : [ "", "" ],
					"patching_rect" : [ 357.806426948309081, 56.498130464903795, 73.0, 23.0 ],
					"text" : "patcherargs"
				}

			}
, 			{
				"box" : 				{
					"id" : "obj-5",
					"maxclass" : "newobj",
					"numinlets" : 1,
					"numoutlets" : 3,
					"outlettype" : [ "", "", "" ],
					"patching_rect" : [ 357.806426948309081, 231.0, 316.0, 23.0 ],
					"saved_object_attributes" : 					{
						"initial" : [ 4 ],
						"parameter_enable" : 0,
						"parameter_mappable" : 0
					}
,
					"text" : "pattr voices @bindto voices- @initial 4 @default_interp 0",
					"varname" : "voices"
				}

			}
, 			{
				"box" : 				{
					"activebgcolor" : [ 0.898039215686275, 0.898039215686275, 0.898039215686275, 1.0 ],
					"activetricolor2" : [ 0.0, 0.0, 0.0, 1.0 ],
					"appearance" : 1,
					"bordercolor" : [ 0.0, 0.0, 0.0, 1.0 ],
					"focusbordercolor" : [ 0.313725, 0.313725, 0.313725, 0.0 ],
					"id" : "obj-56",
					"maxclass" : "live.numbox",
					"numinlets" : 1,
					"numoutlets" : 2,
					"outlettype" : [ "", "float" ],
					"parameter_enable" : 1,
					"patching_rect" : [ 163.25, 187.695019802407899, 46.0, 15.0 ],
					"presentation" : 1,
					"presentation_rect" : [ 183.675539000000015, 4.0, 25.0, 15.0 ],
					"saved_attribute_attributes" : 					{
						"activebgcolor" : 						{
							"expression" : ""
						}
,
						"activetricolor2" : 						{
							"expression" : ""
						}
,
						"bordercolor" : 						{
							"expression" : ""
						}
,
						"focusbordercolor" : 						{
							"expression" : ""
						}
,
						"textcolor" : 						{
							"expression" : ""
						}
,
						"valueof" : 						{
							"parameter_longname" : "live.numbox[660]",
							"parameter_mmax" : 16.0,
							"parameter_mmin" : 1.0,
							"parameter_shortname" : "live.numbox",
							"parameter_type" : 1,
							"parameter_unitstyle" : 0
						}

					}
,
					"textjustification" : 0,
					"varname" : "voices-"
				}

			}
, 			{
				"box" : 				{
					"id" : "obj-155",
					"maxclass" : "newobj",
					"numinlets" : 2,
					"numoutlets" : 2,
					"outlettype" : [ "", "" ],
					"patching_rect" : [ 235.1877336576174, 492.202009417587988, 55.0, 23.0 ],
					"text" : "zl slice 2"
				}

			}
, 			{
				"box" : 				{
					"id" : "obj-147",
					"maxclass" : "newobj",
					"numinlets" : 2,
					"numoutlets" : 2,
					"outlettype" : [ "", "" ],
					"patching_rect" : [ 235.1877336576174, 456.25571778257904, 75.0, 23.0 ],
					"text" : "route mouse"
				}

			}
, 			{
				"box" : 				{
					"angle" : 270.0,
					"bgcolor" : [ 0.2, 0.2, 0.2, 0.0 ],
					"border" : 1,
					"bordercolor" : [ 0.0, 0.0, 0.0, 1.0 ],
					"id" : "obj-4",
					"maxclass" : "panel",
					"mode" : 0,
					"numinlets" : 1,
					"numoutlets" : 0,
					"patching_rect" : [ 87.1877336576174, 274.54613277936005, 109.0, 105.263157844543457 ],
					"presentation" : 1,
					"presentation_rect" : [ 27.190692586864472, 26.549091586864478, 182.484846413135529, 182.484846413135529 ],
					"proportion" : 0.5,
					"rounded" : 0
				}

			}
 ],
		"lines" : [ 			{
				"patchline" : 				{
					"destination" : [ "obj-18", 0 ],
					"midpoints" : [ 139.5, 480.0, 139.5, 480.0 ],
					"source" : [ "obj-1", 1 ]
				}

			}
, 			{
				"patchline" : 				{
					"destination" : [ "obj-20", 1 ],
					"midpoints" : [ 96.6877336576174, 480.0, 96.6877336576174, 480.0 ],
					"source" : [ "obj-1", 0 ]
				}

			}
, 			{
				"patchline" : 				{
					"destination" : [ "obj-20", 0 ],
					"midpoints" : [ 61.5, 573.0, 61.6877336576174, 573.0 ],
					"source" : [ "obj-10", 0 ]
				}

			}
, 			{
				"patchline" : 				{
					"destination" : [ "obj-14", 0 ],
					"hidden" : 1,
					"midpoints" : [ 1348.5, 795.0, 1348.5, 795.0 ],
					"source" : [ "obj-12", 0 ]
				}

			}
, 			{
				"patchline" : 				{
					"destination" : [ "obj-2", 0 ],
					"midpoints" : [ 96.6877336576174, 204.0, 96.6877336576174, 204.0 ],
					"source" : [ "obj-13", 0 ]
				}

			}
, 			{
				"patchline" : 				{
					"destination" : [ "obj-24", 0 ],
					"hidden" : 1,
					"midpoints" : [ 1348.5, 822.0, 1348.5, 822.0 ],
					"source" : [ "obj-14", 0 ]
				}

			}
, 			{
				"patchline" : 				{
					"destination" : [ "obj-155", 0 ],
					"midpoints" : [ 244.6877336576174, 480.0, 244.6877336576174, 480.0 ],
					"source" : [ "obj-147", 0 ]
				}

			}
, 			{
				"patchline" : 				{
					"destination" : [ "obj-9", 0 ],
					"midpoints" : [ 244.6877336576174, 516.0, 244.6877336576174, 516.0 ],
					"source" : [ "obj-155", 0 ]
				}

			}
, 			{
				"patchline" : 				{
					"destination" : [ "obj-21", 0 ],
					"midpoints" : [ 139.5, 516.0, 139.5, 516.0 ],
					"source" : [ "obj-18", 0 ]
				}

			}
, 			{
				"patchline" : 				{
					"destination" : [ "obj-22", 0 ],
					"midpoints" : [ 487.749070038398145, 81.0, 421.358322477340835, 81.0 ],
					"source" : [ "obj-19", 0 ]
				}

			}
, 			{
				"patchline" : 				{
					"destination" : [ "obj-236", 0 ],
					"midpoints" : [ 96.6877336576174, 255.0, 96.6877336576174, 255.0 ],
					"source" : [ "obj-2", 0 ]
				}

			}
, 			{
				"patchline" : 				{
					"destination" : [ "obj-8", 0 ],
					"midpoints" : [ 61.6877336576174, 603.0, 61.6877336576174, 603.0 ],
					"source" : [ "obj-20", 0 ]
				}

			}
, 			{
				"patchline" : 				{
					"destination" : [ "obj-20", 0 ],
					"midpoints" : [ 139.5, 564.0, 61.6877336576174, 564.0 ],
					"source" : [ "obj-21", 0 ]
				}

			}
, 			{
				"patchline" : 				{
					"destination" : [ "obj-11", 0 ],
					"midpoints" : [ 504.608322477340835, 120.0, 504.608322477340835, 120.0 ],
					"source" : [ "obj-22", 3 ]
				}

			}
, 			{
				"patchline" : 				{
					"destination" : [ "obj-236", 0 ],
					"midpoints" : [ 421.358322477340835, 216.0, 72.0, 216.0, 72.0, 270.0, 96.6877336576174, 270.0 ],
					"source" : [ "obj-22", 0 ]
				}

			}
, 			{
				"patchline" : 				{
					"destination" : [ "obj-3", 0 ],
					"midpoints" : [ 449.108322477340835, 174.0, 134.75, 174.0 ],
					"source" : [ "obj-22", 1 ]
				}

			}
, 			{
				"patchline" : 				{
					"destination" : [ "obj-5", 0 ],
					"midpoints" : [ 476.858322477340835, 216.0, 367.306426948309081, 216.0 ],
					"source" : [ "obj-22", 2 ]
				}

			}
, 			{
				"patchline" : 				{
					"destination" : [ "obj-25", 0 ],
					"midpoints" : [ 367.306426948309081, 57.0, 367.306426948309081, 57.0 ],
					"source" : [ "obj-23", 0 ]
				}

			}
, 			{
				"patchline" : 				{
					"destination" : [ "obj-1", 0 ],
					"midpoints" : [ 96.6877336576174, 441.0, 96.6877336576174, 441.0 ],
					"source" : [ "obj-236", 0 ]
				}

			}
, 			{
				"patchline" : 				{
					"destination" : [ "obj-147", 0 ],
					"midpoints" : [ 244.380933178008377, 441.0, 244.6877336576174, 441.0 ],
					"source" : [ "obj-236", 2 ]
				}

			}
, 			{
				"patchline" : 				{
					"destination" : [ "obj-22", 0 ],
					"midpoints" : [ 421.306426948309081, 81.0, 421.358322477340835, 81.0 ],
					"source" : [ "obj-25", 1 ]
				}

			}
, 			{
				"patchline" : 				{
					"destination" : [ "obj-5", 0 ],
					"midpoints" : [ 367.306426948309081, 81.0, 367.306426948309081, 81.0 ],
					"source" : [ "obj-25", 0 ]
				}

			}
, 			{
				"patchline" : 				{
					"destination" : [ "obj-2", 1 ],
					"midpoints" : [ 134.75, 204.0, 134.6877336576174, 204.0 ],
					"source" : [ "obj-3", 0 ]
				}

			}
, 			{
				"patchline" : 				{
					"destination" : [ "obj-2", 2 ],
					"midpoints" : [ 172.75, 204.0, 172.6877336576174, 204.0 ],
					"source" : [ "obj-56", 0 ]
				}

			}
, 			{
				"patchline" : 				{
					"destination" : [ "obj-10", 0 ],
					"midpoints" : [ 61.6877336576174, 108.0, 61.5, 108.0 ],
					"source" : [ "obj-6", 0 ]
				}

			}
 ],
		"textcolor" : [ 0.0, 0.0, 0.0, 1.0 ],
		"bgcolor" : [ 0.898, 0.898, 0.898, 1.0 ],
		"editing_bgcolor" : [ 0.898, 0.898, 0.898, 1.0 ]
	}

}
