{
	"patcher" : 	{
		"fileversion" : 1,
		"appversion" : 		{
			"major" : 8,
			"minor" : 5,
			"revision" : 5,
			"architecture" : "x64",
			"modernui" : 1
		}
,
		"classnamespace" : "box",
		"rect" : [ 0.0, 66.0, 1478.0, 882.0 ],
		"openrect" : [ 0.0, 0.0, 142.0, 57.5 ],
		"bglocked" : 0,
		"openinpresentation" : 1,
		"default_fontsize" : 12.0,
		"default_fontface" : 0,
		"default_fontname" : "Ableton Sans Medium",
		"gridonopen" : 1,
		"gridsize" : [ 15.0, 15.0 ],
		"gridsnaponopen" : 1,
		"objectsnaponopen" : 1,
		"statusbarvisible" : 2,
		"toolbarvisible" : 1,
		"lefttoolbarpinned" : 0,
		"toptoolbarpinned" : 0,
		"righttoolbarpinned" : 0,
		"bottomtoolbarpinned" : 0,
		"toolbars_unpinned_last_save" : 3,
		"tallnewobj" : 0,
		"boxanimatetime" : 200,
		"enablehscroll" : 1,
		"enablevscroll" : 1,
		"devicewidth" : 0.0,
		"description" : "",
		"digest" : "",
		"tags" : "",
		"style" : "",
		"subpatcher_template" : "",
		"assistshowspatchername" : 0,
		"boxes" : [ 			{
				"box" : 				{
					"fontname" : "Ableton Sans Medium",
					"id" : "obj-2",
					"maxclass" : "newobj",
					"numinlets" : 1,
					"numoutlets" : 3,
					"outlettype" : [ "", "", "" ],
					"patching_rect" : [ 495.479002447922653, 387.249999642372245, 202.0, 23.0 ],
					"saved_object_attributes" : 					{
						"initial" : [ 0 ],
						"parameter_enable" : 0,
						"parameter_mappable" : 0
					}
,
					"text" : "pattr mute @bindto mute- @initial 0",
					"varname" : "mute"
				}

			}
, 			{
				"box" : 				{
					"fontname" : "Ableton Sans Medium",
					"id" : "obj-31",
					"maxclass" : "newobj",
					"numinlets" : 2,
					"numoutlets" : 2,
					"outlettype" : [ "", "" ],
					"patching_rect" : [ 160.0, 509.699999570846671, 60.0, 23.0 ],
					"text" : "zl.change"
				}

			}
, 			{
				"box" : 				{
					"fontface" : 0,
					"fontname" : "Ableton Sans Medium",
					"fontsize" : 12.0,
					"id" : "obj-32",
					"maxclass" : "number~",
					"mode" : 2,
					"numinlets" : 2,
					"numoutlets" : 2,
					"outlettype" : [ "signal", "float" ],
					"patching_rect" : [ 121.0, 480.699999570846671, 58.0, 23.0 ],
					"sig" : 0.0
				}

			}
, 			{
				"box" : 				{
					"fontname" : "Ableton Sans Medium",
					"id" : "obj-35",
					"maxclass" : "newobj",
					"numinlets" : 1,
					"numoutlets" : 2,
					"outlettype" : [ "int", "signal" ],
					"patching_rect" : [ 33.0, 448.249999642372245, 107.0, 23.0 ],
					"text" : "mc.channelcount~"
				}

			}
, 			{
				"box" : 				{
					"fontname" : "Ableton Sans Medium",
					"id" : "obj-30",
					"maxclass" : "message",
					"numinlets" : 2,
					"numoutlets" : 1,
					"outlettype" : [ "" ],
					"patching_rect" : [ 353.0, 344.249999642372245, 57.0, 23.0 ],
					"text" : "chans $1"
				}

			}
, 			{
				"box" : 				{
					"fontname" : "Ableton Sans Medium",
					"id" : "obj-6",
					"maxclass" : "newobj",
					"numinlets" : 4,
					"numoutlets" : 4,
					"outlettype" : [ "", "", "", "" ],
					"patching_rect" : [ 296.0, 163.0, 189.0, 23.0 ],
					"text" : "route device int mute"
				}

			}
, 			{
				"box" : 				{
					"comment" : "(list) input",
					"id" : "obj-5",
					"index" : 0,
					"maxclass" : "inlet",
					"numinlets" : 0,
					"numoutlets" : 1,
					"outlettype" : [ "" ],
					"patching_rect" : [ 341.0, 90.0, 30.0, 30.0 ]
				}

			}
, 			{
				"box" : 				{
					"fontname" : "Ableton Sans Medium",
					"id" : "obj-23",
					"maxclass" : "newobj",
					"numinlets" : 2,
					"numoutlets" : 1,
					"outlettype" : [ "int" ],
					"patching_rect" : [ 33.0, 308.799999713897819, 30.0, 23.0 ],
					"text" : "!- 1"
				}

			}
, 			{
				"box" : 				{
					"fontname" : "Ableton Sans Medium",
					"id" : "obj-8",
					"maxclass" : "newobj",
					"numinlets" : 2,
					"numoutlets" : 1,
					"outlettype" : [ "multichannelsignal" ],
					"patching_rect" : [ 33.0, 344.0, 187.0, 23.0 ],
					"text" : "mc.selector~ 1 1 @ramptime 200"
				}

			}
, 			{
				"box" : 				{
					"fontname" : "Ableton Sans Medium",
					"id" : "obj-7",
					"maxclass" : "message",
					"numinlets" : 2,
					"numoutlets" : 1,
					"outlettype" : [ "" ],
					"patching_rect" : [ 242.0, 220.899999856948909, 75.0, 23.0 ],
					"text" : "set $1, bang"
				}

			}
, 			{
				"box" : 				{
					"fontname" : "Ableton Sans Medium",
					"id" : "obj-4",
					"maxclass" : "newobj",
					"numinlets" : 1,
					"numoutlets" : 2,
					"outlettype" : [ "", "" ],
					"patching_rect" : [ 242.0, 122.449999928474455, 73.0, 23.0 ],
					"text" : "patcherargs"
				}

			}
, 			{
				"box" : 				{
					"fontname" : "Ableton Sans Medium",
					"id" : "obj-3",
					"maxclass" : "newobj",
					"numinlets" : 1,
					"numoutlets" : 1,
					"outlettype" : [ "bang" ],
					"patching_rect" : [ 242.0, 90.0, 58.0, 23.0 ],
					"text" : "loadbang"
				}

			}
, 			{
				"box" : 				{
					"comment" : "(list) input",
					"id" : "obj-9",
					"index" : 0,
					"maxclass" : "inlet",
					"numinlets" : 0,
					"numoutlets" : 1,
					"outlettype" : [ "" ],
					"patching_rect" : [ 125.0, 90.0, 30.0, 30.0 ]
				}

			}
, 			{
				"box" : 				{
					"fontname" : "Ableton Sans Medium",
					"id" : "obj-75",
					"maxclass" : "newobj",
					"numinlets" : 1,
					"numoutlets" : 1,
					"outlettype" : [ "" ],
					"patching_rect" : [ 242.0, 344.0, 72.0, 23.0 ],
					"text" : "prepend set"
				}

			}
, 			{
				"box" : 				{
					"fontname" : "Ableton Sans Medium",
					"id" : "obj-76",
					"maxclass" : "newobj",
					"numinlets" : 2,
					"numoutlets" : 2,
					"outlettype" : [ "", "" ],
					"patching_rect" : [ 242.0, 308.799999713897819, 62.0, 23.0 ],
					"text" : "route text"
				}

			}
, 			{
				"box" : 				{
					"color" : [ 0.156862745098039, 0.8, 0.549019607843137, 1.0 ],
					"fontname" : "Ableton Sans Medium",
					"id" : "obj-80",
					"maxclass" : "newobj",
					"numinlets" : 1,
					"numoutlets" : 0,
					"patching_rect" : [ 242.0, 448.249999642372245, 61.0, 23.0 ],
					"text" : "mc.send~"
				}

			}
, 			{
				"box" : 				{
					"fontname" : "Ableton Sans Medium",
					"id" : "obj-1",
					"maxclass" : "newobj",
					"numinlets" : 1,
					"numoutlets" : 3,
					"outlettype" : [ "", "", "" ],
					"patching_rect" : [ 495.479002447922539, 300.349999785423392, 211.0, 23.0 ],
					"saved_object_attributes" : 					{
						"initial" : [ 1 ],
						"parameter_enable" : 0,
						"parameter_mappable" : 0
					}
,
					"text" : "pattr chans @bindto chans- @initial 1",
					"varname" : "chans"
				}

			}
, 			{
				"box" : 				{
					"activebgcolor" : [ 0.298037976026535, 0.298046916723251, 0.298041820526123, 0.0 ],
					"bordercolor" : [ 0.0, 0.0, 0.0, 1.0 ],
					"id" : "obj-56",
					"maxclass" : "live.numbox",
					"numinlets" : 1,
					"numoutlets" : 2,
					"outlettype" : [ "", "float" ],
					"parameter_enable" : 1,
					"patching_rect" : [ 353.0, 292.499999642372245, 45.0, 15.0 ],
					"presentation" : 1,
					"presentation_rect" : [ 74.903999477624893, 7.0, 22.0, 15.0 ],
					"saved_attribute_attributes" : 					{
						"activebgcolor" : 						{
							"expression" : ""
						}
,
						"bordercolor" : 						{
							"expression" : ""
						}
,
						"textcolor" : 						{
							"expression" : ""
						}
,
						"valueof" : 						{
							"parameter_longname" : "live.numbox[3]",
							"parameter_mmax" : 32.0,
							"parameter_mmin" : 1.0,
							"parameter_shortname" : "live.numbox",
							"parameter_type" : 0,
							"parameter_unitstyle" : 0
						}

					}
,
					"varname" : "chans-"
				}

			}
, 			{
				"box" : 				{
					"fontname" : "Ableton Sans Medium",
					"id" : "obj-16",
					"maxclass" : "newobj",
					"numinlets" : 1,
					"numoutlets" : 3,
					"outlettype" : [ "", "", "" ],
					"patching_rect" : [ 495.479002447922539, 343.799999713897819, 224.0, 23.0 ],
					"saved_object_attributes" : 					{
						"initial" : [ " " ],
						"parameter_enable" : 0,
						"parameter_mappable" : 0
					}
,
					"text" : "pattr device @bindto device- @initial \" \"",
					"varname" : "device"
				}

			}
, 			{
				"box" : 				{
					"bgcolor" : [ 0.168627450980392, 0.168627450980392, 0.168627450980392, 0.0 ],
					"border" : 1.0,
					"bordercolor" : [ 0.188235294117647, 0.188235294117647, 0.188235294117647, 1.0 ],
					"fontface" : 0,
					"fontname" : "Ableton Sans Medium",
					"fontsize" : 9.5,
					"id" : "obj-26",
					"keymode" : 1,
					"lines" : 1,
					"maxclass" : "textedit",
					"nosymquotes" : 1,
					"numinlets" : 1,
					"numoutlets" : 4,
					"outlettype" : [ "", "int", "", "" ],
					"parameter_enable" : 0,
					"patching_rect" : [ 242.0, 262.349999785423392, 91.0, 16.0 ],
					"presentation" : 1,
					"presentation_rect" : [ 7.125821217894554, 36.371792723306498, 128.0, 16.0 ],
					"rounded" : 0.0,
					"textcolor" : [ 0.0, 0.0, 0.0, 1.0 ],
					"textjustification" : 1,
					"varname" : "device-"
				}

			}
, 			{
				"box" : 				{
					"activebgcolor" : [ 0.298037976026535, 0.298046916723251, 0.298041820526123, 0.0 ],
					"activebgoncolor" : [ 1.0, 0.345098039215686, 0.298039215686275, 1.0 ],
					"bordercolor" : [ 0.0, 0.0, 0.0, 1.0 ],
					"id" : "obj-153",
					"maxclass" : "live.text",
					"numinlets" : 1,
					"numoutlets" : 2,
					"outlettype" : [ "", "" ],
					"parameter_enable" : 1,
					"patching_rect" : [ 33.0, 259.349999785423392, 44.0, 15.0 ],
					"pictures" : [ "unlock.svg", "lock.svg" ],
					"presentation" : 1,
					"presentation_rect" : [ 97.905875280499458, 7.0, 37.094124719500542, 15.0 ],
					"remapsvgcolors" : 1,
					"saved_attribute_attributes" : 					{
						"activebgcolor" : 						{
							"expression" : ""
						}
,
						"activebgoncolor" : 						{
							"expression" : "themecolor.live_active_automation"
						}
,
						"activetextcolor" : 						{
							"expression" : ""
						}
,
						"bordercolor" : 						{
							"expression" : ""
						}
,
						"textcolor" : 						{
							"expression" : ""
						}
,
						"valueof" : 						{
							"parameter_enum" : [ "val1", "val2" ],
							"parameter_longname" : "live.text[3]",
							"parameter_mmax" : 1,
							"parameter_shortname" : "live.text",
							"parameter_type" : 2
						}

					}
,
					"text" : "ON",
					"textcolor" : [ 0.0, 0.0, 0.0, 1.0 ],
					"texton" : "OFF",
					"usepicture" : 1,
					"varname" : "mute-"
				}

			}
, 			{
				"box" : 				{
					"id" : "obj-17",
					"linecolor" : [ 0.0, 0.0, 0.0, 1.0 ],
					"maxclass" : "live.line",
					"numinlets" : 1,
					"numoutlets" : 0,
					"patching_rect" : [ 13.842786306142557, 38.126276284456253, 150.442643090089064, 5.0 ],
					"presentation" : 1,
					"presentation_rect" : [ 0.0, 28.0, 142.0, 5.0 ],
					"saved_attribute_attributes" : 					{
						"linecolor" : 						{
							"expression" : ""
						}

					}

				}

			}
, 			{
				"box" : 				{
					"fontface" : 0,
					"fontname" : "Ableton Sans Medium",
					"fontsize" : 12.0,
					"id" : "obj-58",
					"maxclass" : "comment",
					"numinlets" : 1,
					"numoutlets" : 0,
					"patching_rect" : [ 13.842786306142557, 14.126276284456253, 41.0, 21.0 ],
					"presentation" : 1,
					"presentation_rect" : [ 3.0, 4.0, 54.0, 21.0 ],
					"text" : "send~",
					"textcolor" : [ 0.0, 0.0, 0.0, 1.0 ]
				}

			}
 ],
		"lines" : [ 			{
				"patchline" : 				{
					"destination" : [ "obj-23", 0 ],
					"midpoints" : [ 42.5, 276.0, 42.5, 276.0 ],
					"source" : [ "obj-153", 0 ]
				}

			}
, 			{
				"patchline" : 				{
					"destination" : [ "obj-8", 0 ],
					"midpoints" : [ 42.5, 333.0, 42.5, 333.0 ],
					"source" : [ "obj-23", 0 ]
				}

			}
, 			{
				"patchline" : 				{
					"destination" : [ "obj-76", 0 ],
					"midpoints" : [ 251.5, 279.0, 251.5, 279.0 ],
					"source" : [ "obj-26", 0 ]
				}

			}
, 			{
				"patchline" : 				{
					"destination" : [ "obj-4", 0 ],
					"midpoints" : [ 251.5, 114.0, 251.5, 114.0 ],
					"source" : [ "obj-3", 0 ]
				}

			}
, 			{
				"patchline" : 				{
					"destination" : [ "obj-80", 0 ],
					"midpoints" : [ 362.5, 435.0, 251.5, 435.0 ],
					"source" : [ "obj-30", 0 ]
				}

			}
, 			{
				"patchline" : 				{
					"destination" : [ "obj-56", 0 ],
					"midpoints" : [ 169.5, 543.0, 339.0, 543.0, 339.0, 288.0, 362.5, 288.0 ],
					"source" : [ "obj-31", 0 ]
				}

			}
, 			{
				"patchline" : 				{
					"destination" : [ "obj-31", 0 ],
					"midpoints" : [ 169.5, 504.0, 169.5, 504.0 ],
					"source" : [ "obj-32", 1 ]
				}

			}
, 			{
				"patchline" : 				{
					"destination" : [ "obj-32", 0 ],
					"midpoints" : [ 130.5, 474.0, 130.5, 474.0 ],
					"source" : [ "obj-35", 1 ]
				}

			}
, 			{
				"patchline" : 				{
					"destination" : [ "obj-6", 0 ],
					"midpoints" : [ 305.5, 147.0, 305.5, 147.0 ],
					"source" : [ "obj-4", 1 ]
				}

			}
, 			{
				"patchline" : 				{
					"destination" : [ "obj-7", 0 ],
					"midpoints" : [ 251.5, 147.0, 251.5, 147.0 ],
					"source" : [ "obj-4", 0 ]
				}

			}
, 			{
				"patchline" : 				{
					"destination" : [ "obj-6", 0 ],
					"midpoints" : [ 350.5, 150.0, 305.5, 150.0 ],
					"source" : [ "obj-5", 0 ]
				}

			}
, 			{
				"patchline" : 				{
					"destination" : [ "obj-30", 0 ],
					"midpoints" : [ 362.5, 309.0, 362.5, 309.0 ],
					"source" : [ "obj-56", 0 ]
				}

			}
, 			{
				"patchline" : 				{
					"destination" : [ "obj-153", 0 ],
					"midpoints" : [ 418.833333333333314, 207.0, 42.5, 207.0 ],
					"source" : [ "obj-6", 2 ]
				}

			}
, 			{
				"patchline" : 				{
					"destination" : [ "obj-56", 0 ],
					"midpoints" : [ 362.166666666666629, 189.0, 362.5, 189.0 ],
					"source" : [ "obj-6", 1 ]
				}

			}
, 			{
				"patchline" : 				{
					"destination" : [ "obj-7", 0 ],
					"midpoints" : [ 305.5, 207.0, 251.5, 207.0 ],
					"source" : [ "obj-6", 0 ]
				}

			}
, 			{
				"patchline" : 				{
					"destination" : [ "obj-26", 0 ],
					"midpoints" : [ 251.5, 246.0, 251.5, 246.0 ],
					"source" : [ "obj-7", 0 ]
				}

			}
, 			{
				"patchline" : 				{
					"destination" : [ "obj-80", 0 ],
					"midpoints" : [ 251.5, 369.0, 251.5, 369.0 ],
					"source" : [ "obj-75", 0 ]
				}

			}
, 			{
				"patchline" : 				{
					"destination" : [ "obj-75", 0 ],
					"midpoints" : [ 251.5, 333.0, 251.5, 333.0 ],
					"source" : [ "obj-76", 0 ]
				}

			}
, 			{
				"patchline" : 				{
					"destination" : [ "obj-35", 0 ],
					"midpoints" : [ 42.5, 369.0, 42.5, 369.0 ],
					"order" : 1,
					"source" : [ "obj-8", 0 ]
				}

			}
, 			{
				"patchline" : 				{
					"destination" : [ "obj-80", 0 ],
					"midpoints" : [ 42.5, 435.0, 251.5, 435.0 ],
					"order" : 0,
					"source" : [ "obj-8", 0 ]
				}

			}
, 			{
				"patchline" : 				{
					"destination" : [ "obj-8", 1 ],
					"midpoints" : [ 134.5, 330.0, 210.5, 330.0 ],
					"source" : [ "obj-9", 0 ]
				}

			}
 ],
		"parameters" : 		{
			"obj-153" : [ "live.text[3]", "live.text", 0 ],
			"obj-56" : [ "live.numbox[3]", "live.numbox", 0 ],
			"parameterbanks" : 			{
				"0" : 				{
					"index" : 0,
					"name" : "",
					"parameters" : [ "-", "-", "-", "-", "-", "-", "-", "-" ]
				}

			}
,
			"inherited_shortname" : 1
		}
,
		"dependency_cache" : [ 			{
				"name" : "lock.svg",
				"bootpath" : "C74:/interfaces",
				"type" : "svg",
				"implicit" : 1
			}
, 			{
				"name" : "unlock.svg",
				"bootpath" : "C74:/interfaces",
				"type" : "svg",
				"implicit" : 1
			}
 ],
		"autosave" : 0,
		"bgcolor" : [ 0.898, 0.898, 0.898, 1.0 ],
		"editing_bgcolor" : [ 0.898, 0.898, 0.898, 1.0 ]
	}

}
