{
    "patcher": {
        "fileversion": 1,
        "appversion": {
            "major": 9,
            "minor": 1,
            "revision": 0,
            "architecture": "x64",
            "modernui": 1
        },
        "classnamespace": "box",
        "rect": [ 34.0, 92.0, 1372.0, 806.0 ],
        "openrect": [ 0.0, 0.0, 214.0, 15.0 ],
        "openrectmode": 0,
        "openinpresentation": 1,
        "default_fontname": "Ableton Sans Medium",
        "gridonopen": 2,
        "gridsize": [ 10.0, 10.0 ],
        "subpatcher_template": " ",
        "helpsidebarclosed": 1,
        "boxes": [
            {
                "box": {
                    "bgcolor": [ 0.168627450980392, 0.168627450980392, 0.168627450980392, 0.0 ],
                    "border": 0.0,
                    "bordercolor": [ 0.0, 0.0, 0.0, 1.0 ],
                    "fontface": 0,
                    "fontname": "Ableton Sans Medium",
                    "fontsize": 9.5,
                    "id": "obj-26",
                    "keymode": 1,
                    "lines": 1,
                    "maxclass": "textedit",
                    "nosymquotes": 1,
                    "numinlets": 1,
                    "numoutlets": 4,
                    "outlettype": [ "", "int", "", "" ],
                    "parameter_enable": 0,
                    "patching_rect": [ 167.5, 193.5, 93.5, 16.0 ],
                    "presentation": 1,
                    "presentation_rect": [ 27.0, 1.0, 181.0, 15.0 ],
                    "rounded": 0.0,
                    "saved_attribute_attributes": {
                        "textcolor": {
                            "expression": "themecolor.live_control_text_selection"
                        }
                    },
                    "textcolor": [ 0.85, 0.85, 0.85, 1.0 ],
                    "varname": "send-"
                }
            },
            {
                "box": {
                    "angle": 270.0,
                    "bgcolor": [ 0.2, 0.2, 0.2, 0.0 ],
                    "border": 1,
                    "bordercolor": [ 0.0, 0.0, 0.0, 1.0 ],
                    "id": "obj-8",
                    "maxclass": "panel",
                    "mode": 0,
                    "numinlets": 1,
                    "numoutlets": 0,
                    "patching_rect": [ 169.0, 193.5, 92.0, 16.0 ],
                    "presentation": 1,
                    "presentation_rect": [ 25.99641134690191, 0.871792723306498, 183.48361882094596, 13.593006536364555 ],
                    "proportion": 0.5,
                    "rounded": 0
                }
            },
            {
                "box": {
                    "id": "obj-20",
                    "maxclass": "newobj",
                    "numinlets": 3,
                    "numoutlets": 1,
                    "outlettype": [ "" ],
                    "patcher": {
                        "fileversion": 1,
                        "appversion": {
                            "major": 9,
                            "minor": 1,
                            "revision": 0,
                            "architecture": "x64",
                            "modernui": 1
                        },
                        "classnamespace": "box",
                        "rect": [ 59.0, 106.0, 484.0, 455.0 ],
                        "default_fontname": "Ableton Sans Medium",
                        "gridonopen": 2,
                        "gridsize": [ 10.0, 10.0 ],
                        "gridsnaponopen": 2,
                        "subpatcher_template": "mo.main",
                        "boxes": [
                            {
                                "box": {
                                    "id": "obj-1",
                                    "maxclass": "newobj",
                                    "numinlets": 2,
                                    "numoutlets": 2,
                                    "outlettype": [ "", "" ],
                                    "patching_rect": [ 46.0, 85.0, 59.0, 23.0 ],
                                    "text": "zl.change"
                                }
                            },
                            {
                                "box": {
                                    "id": "obj-68",
                                    "maxclass": "message",
                                    "numinlets": 2,
                                    "numoutlets": 1,
                                    "outlettype": [ "" ],
                                    "patching_rect": [ 194.33333333333334, 170.0, 175.66666666666666, 23.0 ],
                                    "text": "bang"
                                }
                            },
                            {
                                "box": {
                                    "id": "obj-67",
                                    "maxclass": "newobj",
                                    "numinlets": 1,
                                    "numoutlets": 2,
                                    "outlettype": [ "bang", "int" ],
                                    "patching_rect": [ 379.0, 122.1514077021186, 33.0, 23.0 ],
                                    "text": "t b 0"
                                }
                            },
                            {
                                "box": {
                                    "id": "obj-66",
                                    "maxclass": "gswitch2",
                                    "numinlets": 2,
                                    "numoutlets": 2,
                                    "outlettype": [ "", "" ],
                                    "parameter_enable": 0,
                                    "patching_rect": [ 174.0, 229.87849450770267, 39.0, 32.0 ]
                                }
                            },
                            {
                                "box": {
                                    "id": "obj-65",
                                    "maxclass": "gswitch2",
                                    "numinlets": 2,
                                    "numoutlets": 2,
                                    "outlettype": [ "", "" ],
                                    "parameter_enable": 0,
                                    "patching_rect": [ 25.833336000000003, 229.87849450770267, 39.0, 32.0 ]
                                }
                            },
                            {
                                "box": {
                                    "id": "obj-64",
                                    "maxclass": "newobj",
                                    "numinlets": 2,
                                    "numoutlets": 1,
                                    "outlettype": [ "" ],
                                    "patching_rect": [ 60.5, 345.37849450770267, 94.0, 23.0 ],
                                    "text": "join @triggers 1"
                                }
                            },
                            {
                                "box": {
                                    "id": "obj-63",
                                    "maxclass": "message",
                                    "numinlets": 2,
                                    "numoutlets": 1,
                                    "outlettype": [ "" ],
                                    "patching_rect": [ 194.33333333333334, 290.87849450770267, 175.66666666666666, 23.0 ],
                                    "text": "bang"
                                }
                            },
                            {
                                "box": {
                                    "id": "obj-62",
                                    "maxclass": "newobj",
                                    "numinlets": 1,
                                    "numoutlets": 3,
                                    "outlettype": [ "bang", "int", "" ],
                                    "patching_rect": [ 427.0, 122.1514077021186, 41.0, 23.0 ],
                                    "text": "t b 1 s"
                                }
                            },
                            {
                                "box": {
                                    "id": "obj-60",
                                    "maxclass": "newobj",
                                    "numinlets": 1,
                                    "numoutlets": 1,
                                    "outlettype": [ "" ],
                                    "patching_rect": [ 174.0, 345.37849450770267, 81.0, 23.0 ],
                                    "text": "prepend send"
                                }
                            },
                            {
                                "box": {
                                    "fontname": "Ableton Sans Medium",
                                    "id": "obj-41",
                                    "maxclass": "newobj",
                                    "numinlets": 2,
                                    "numoutlets": 2,
                                    "outlettype": [ "", "" ],
                                    "patching_rect": [ 379.0, 85.0, 67.0, 23.0 ],
                                    "text": "route bang"
                                }
                            },
                            {
                                "box": {
                                    "fontname": "Ableton Sans Medium",
                                    "fontsize": 12.0,
                                    "id": "obj-45",
                                    "maxclass": "newobj",
                                    "numinlets": 2,
                                    "numoutlets": 2,
                                    "outlettype": [ "", "" ],
                                    "patching_rect": [ 194.33333333333334, 85.0, 62.0, 23.0 ],
                                    "text": "route text"
                                }
                            },
                            {
                                "box": {
                                    "comment": "",
                                    "id": "obj-8",
                                    "index": 1,
                                    "maxclass": "inlet",
                                    "numinlets": 0,
                                    "numoutlets": 1,
                                    "outlettype": [ "" ],
                                    "patching_rect": [ 46.0, 24.999984507702663, 30.0, 30.0 ]
                                }
                            },
                            {
                                "box": {
                                    "comment": "",
                                    "id": "obj-15",
                                    "index": 2,
                                    "maxclass": "inlet",
                                    "numinlets": 0,
                                    "numoutlets": 1,
                                    "outlettype": [ "" ],
                                    "patching_rect": [ 194.333328, 24.999984507702663, 30.0, 30.0 ]
                                }
                            },
                            {
                                "box": {
                                    "comment": "",
                                    "id": "obj-16",
                                    "index": 3,
                                    "maxclass": "inlet",
                                    "numinlets": 0,
                                    "numoutlets": 1,
                                    "outlettype": [ "" ],
                                    "patching_rect": [ 379.0, 24.999984507702663, 30.0, 30.0 ]
                                }
                            },
                            {
                                "box": {
                                    "comment": "",
                                    "id": "obj-18",
                                    "index": 1,
                                    "maxclass": "outlet",
                                    "numinlets": 1,
                                    "numoutlets": 0,
                                    "patching_rect": [ 25.833336000000003, 402.3784945077027, 30.0, 30.0 ]
                                }
                            }
                        ],
                        "lines": [
                            {
                                "patchline": {
                                    "destination": [ "obj-65", 1 ],
                                    "midpoints": [ 55.5, 111.0, 55.333336, 111.0 ],
                                    "source": [ "obj-1", 0 ]
                                }
                            },
                            {
                                "patchline": {
                                    "destination": [ "obj-45", 0 ],
                                    "midpoints": [ 203.833328, 57.0, 203.83333333333334, 57.0 ],
                                    "source": [ "obj-15", 0 ]
                                }
                            },
                            {
                                "patchline": {
                                    "destination": [ "obj-41", 0 ],
                                    "midpoints": [ 388.5, 57.0, 388.5, 57.0 ],
                                    "source": [ "obj-16", 0 ]
                                }
                            },
                            {
                                "patchline": {
                                    "destination": [ "obj-62", 0 ],
                                    "midpoints": [ 436.5, 111.0, 436.5, 111.0 ],
                                    "source": [ "obj-41", 1 ]
                                }
                            },
                            {
                                "patchline": {
                                    "destination": [ "obj-67", 0 ],
                                    "midpoints": [ 388.5, 111.0, 388.5, 111.0 ],
                                    "source": [ "obj-41", 0 ]
                                }
                            },
                            {
                                "patchline": {
                                    "destination": [ "obj-68", 1 ],
                                    "midpoints": [ 203.83333333333334, 156.0, 360.5, 156.0 ],
                                    "order": 0,
                                    "source": [ "obj-45", 0 ]
                                }
                            },
                            {
                                "patchline": {
                                    "destination": [ "obj-68", 0 ],
                                    "midpoints": [ 203.83333333333334, 111.0, 203.83333333333334, 111.0 ],
                                    "order": 1,
                                    "source": [ "obj-45", 0 ]
                                }
                            },
                            {
                                "patchline": {
                                    "destination": [ "obj-18", 0 ],
                                    "midpoints": [ 183.5, 387.0, 35.333336, 387.0 ],
                                    "source": [ "obj-60", 0 ]
                                }
                            },
                            {
                                "patchline": {
                                    "destination": [ "obj-60", 0 ],
                                    "midpoints": [ 458.5, 330.0, 183.5, 330.0 ],
                                    "source": [ "obj-62", 2 ]
                                }
                            },
                            {
                                "patchline": {
                                    "destination": [ "obj-65", 0 ],
                                    "midpoints": [ 447.5, 216.0, 35.333336, 216.0 ],
                                    "order": 1,
                                    "source": [ "obj-62", 1 ]
                                }
                            },
                            {
                                "patchline": {
                                    "destination": [ "obj-66", 0 ],
                                    "midpoints": [ 447.5, 216.0, 183.5, 216.0 ],
                                    "order": 0,
                                    "source": [ "obj-62", 1 ]
                                }
                            },
                            {
                                "patchline": {
                                    "destination": [ "obj-68", 0 ],
                                    "midpoints": [ 436.5, 156.0, 203.83333333333334, 156.0 ],
                                    "source": [ "obj-62", 0 ]
                                }
                            },
                            {
                                "patchline": {
                                    "destination": [ "obj-64", 0 ],
                                    "midpoints": [ 203.83333333333334, 330.0, 70.0, 330.0 ],
                                    "source": [ "obj-63", 0 ]
                                }
                            },
                            {
                                "patchline": {
                                    "destination": [ "obj-18", 0 ],
                                    "midpoints": [ 70.0, 387.0, 35.333336, 387.0 ],
                                    "source": [ "obj-64", 0 ]
                                }
                            },
                            {
                                "patchline": {
                                    "destination": [ "obj-18", 0 ],
                                    "midpoints": [ 35.333336, 264.0, 35.333336, 264.0 ],
                                    "source": [ "obj-65", 0 ]
                                }
                            },
                            {
                                "patchline": {
                                    "destination": [ "obj-64", 1 ],
                                    "midpoints": [ 55.333336, 330.0, 145.0, 330.0 ],
                                    "source": [ "obj-65", 1 ]
                                }
                            },
                            {
                                "patchline": {
                                    "destination": [ "obj-60", 0 ],
                                    "midpoints": [ 183.5, 264.0, 183.5, 264.0 ],
                                    "source": [ "obj-66", 0 ]
                                }
                            },
                            {
                                "patchline": {
                                    "destination": [ "obj-63", 1 ],
                                    "midpoints": [ 203.5, 276.0, 360.5, 276.0 ],
                                    "order": 0,
                                    "source": [ "obj-66", 1 ]
                                }
                            },
                            {
                                "patchline": {
                                    "destination": [ "obj-63", 0 ],
                                    "midpoints": [ 203.5, 264.0, 203.83333333333334, 264.0 ],
                                    "order": 1,
                                    "source": [ "obj-66", 1 ]
                                }
                            },
                            {
                                "patchline": {
                                    "destination": [ "obj-65", 0 ],
                                    "midpoints": [ 402.5, 216.0, 35.333336, 216.0 ],
                                    "order": 1,
                                    "source": [ "obj-67", 1 ]
                                }
                            },
                            {
                                "patchline": {
                                    "destination": [ "obj-66", 0 ],
                                    "midpoints": [ 402.5, 216.0, 183.5, 216.0 ],
                                    "order": 0,
                                    "source": [ "obj-67", 1 ]
                                }
                            },
                            {
                                "patchline": {
                                    "destination": [ "obj-68", 0 ],
                                    "midpoints": [ 388.5, 156.0, 203.83333333333334, 156.0 ],
                                    "source": [ "obj-67", 0 ]
                                }
                            },
                            {
                                "patchline": {
                                    "destination": [ "obj-66", 1 ],
                                    "midpoints": [ 203.83333333333334, 195.0, 203.5, 195.0 ],
                                    "source": [ "obj-68", 0 ]
                                }
                            },
                            {
                                "patchline": {
                                    "destination": [ "obj-1", 0 ],
                                    "midpoints": [ 55.5, 57.0, 55.5, 57.0 ],
                                    "source": [ "obj-8", 0 ]
                                }
                            }
                        ],
                        "textcolor": [ 0.0, 0.0, 0.0, 1.0 ],
                        "bgcolor": [ 0.898, 0.898, 0.898, 1.0 ],
                        "editing_bgcolor": [ 0.898, 0.898, 0.898, 1.0 ]
                    },
                    "patching_rect": [ 19.5, 332.20281561881393, 315.0, 23.0 ],
                    "saved_object_attributes": {
                        "editing_bgcolor": [ 0.898, 0.898, 0.898, 1.0 ],
                        "fontname": "Ableton Sans Medium",
                        "locked_bgcolor": [ 0.898, 0.898, 0.898, 1.0 ],
                        "textcolor": [ 0.0, 0.0, 0.0, 1.0 ]
                    },
                    "text": "p \"solo or duo\""
                }
            },
            {
                "box": {
                    "fontname": "Ableton Sans Medium",
                    "id": "obj-4",
                    "maxclass": "newobj",
                    "numinlets": 1,
                    "numoutlets": 3,
                    "outlettype": [ "", "", "" ],
                    "patching_rect": [ 361.5, 332.20281561881393, 202.0, 23.0 ],
                    "saved_object_attributes": {
                        "initial": [ 0 ],
                        "parameter_enable": 0,
                        "parameter_mappable": 0
                    },
                    "text": "pattr mute @bindto mute- @initial 0",
                    "varname": "mute"
                }
            },
            {
                "box": {
                    "activebgcolor": [ 0.298037976026535, 0.298046916723251, 0.298041820526123, 0.0 ],
                    "activebgoncolor": [ 1.0, 0.4, 0.3, 1.0 ],
                    "bordercolor": [ 0.0, 0.0, 0.0, 1.0 ],
                    "focusbordercolor": [ 0.313725, 0.313725, 0.313725, 0.0 ],
                    "id": "obj-1",
                    "maxclass": "live.text",
                    "numinlets": 1,
                    "numoutlets": 2,
                    "outlettype": [ "", "" ],
                    "parameter_enable": 1,
                    "patching_rect": [ 19.5, 194.5, 44.0, 15.0 ],
                    "presentation": 1,
                    "presentation_rect": [ 4.225206084628866, -0.058990031480789, 19.00000000000003, 15.0 ],
                    "saved_attribute_attributes": {
                        "activebgcolor": {
                            "expression": ""
                        },
                        "activebgoncolor": {
                            "expression": "themecolor.live_active_automation"
                        },
                        "bordercolor": {
                            "expression": ""
                        },
                        "focusbordercolor": {
                            "expression": ""
                        },
                        "valueof": {
                            "parameter_enum": [ "val1", "val2" ],
                            "parameter_longname": "live.text[220]",
                            "parameter_mmax": 1,
                            "parameter_modmode": 0,
                            "parameter_shortname": "live.text",
                            "parameter_type": 2
                        }
                    },
                    "text": "1",
                    "texton": "1",
                    "varname": "mute-"
                }
            },
            {
                "box": {
                    "fontname": "Ableton Sans Medium",
                    "id": "obj-21",
                    "maxclass": "newobj",
                    "numinlets": 2,
                    "numoutlets": 1,
                    "outlettype": [ "" ],
                    "patching_rect": [ 19.5, 280.55555555555566, 127.0, 23.0 ],
                    "text": "gate 1 1"
                }
            },
            {
                "box": {
                    "fontname": "Ableton Sans Medium",
                    "id": "obj-22",
                    "maxclass": "newobj",
                    "numinlets": 2,
                    "numoutlets": 1,
                    "outlettype": [ "int" ],
                    "patching_rect": [ 19.5, 222.80555555555566, 30.0, 23.0 ],
                    "text": "!- 1"
                }
            },
            {
                "box": {
                    "id": "obj-24",
                    "maxclass": "newobj",
                    "numinlets": 1,
                    "numoutlets": 0,
                    "patching_rect": [ 19.5, 381.20281561881393, 51.0, 23.0 ],
                    "text": "forward"
                }
            },
            {
                "box": {
                    "fontname": "Ableton Sans Medium",
                    "id": "obj-25",
                    "maxclass": "newobj",
                    "numinlets": 1,
                    "numoutlets": 3,
                    "outlettype": [ "", "", "" ],
                    "patching_rect": [ 361.5, 280.55555555555566, 205.0, 23.0 ],
                    "saved_object_attributes": {
                        "initial": [ " " ],
                        "parameter_enable": 0,
                        "parameter_mappable": 0
                    },
                    "text": "pattr send @bindto send- @initial \" \"",
                    "varname": "send"
                }
            },
            {
                "box": {
                    "fontname": "Ableton Sans Medium",
                    "id": "obj-2",
                    "maxclass": "message",
                    "numinlets": 2,
                    "numoutlets": 1,
                    "outlettype": [ "" ],
                    "patching_rect": [ 361.5, 222.80555555555566, 68.0, 23.0 ],
                    "text": "invisible $1"
                }
            },
            {
                "box": {
                    "fontname": "Ableton Sans Medium",
                    "id": "obj-6",
                    "maxclass": "newobj",
                    "numinlets": 3,
                    "numoutlets": 3,
                    "outlettype": [ "", "", "" ],
                    "patching_rect": [ 316.1666666666667, 153.05555555555566, 111.0, 23.0 ],
                    "text": "route send invisible"
                }
            },
            {
                "box": {
                    "fontname": "Ableton Sans Medium",
                    "id": "obj-5",
                    "maxclass": "newobj",
                    "numinlets": 2,
                    "numoutlets": 2,
                    "outlettype": [ "", "" ],
                    "patching_rect": [ 316.1666666666667, 105.05555555555566, 37.0, 23.0 ],
                    "text": "route"
                }
            },
            {
                "box": {
                    "comment": "",
                    "id": "obj-3",
                    "index": 0,
                    "maxclass": "inlet",
                    "numinlets": 0,
                    "numoutlets": 1,
                    "outlettype": [ "" ],
                    "patching_rect": [ 316.1666666666667, 20.0, 30.0, 30.0 ]
                }
            },
            {
                "box": {
                    "fontname": "Ableton Sans Medium",
                    "id": "obj-7",
                    "maxclass": "newobj",
                    "numinlets": 1,
                    "numoutlets": 1,
                    "outlettype": [ "bang" ],
                    "patching_rect": [ 20.0, 20.0, 58.0, 23.0 ],
                    "text": "loadbang"
                }
            },
            {
                "box": {
                    "fontname": "Ableton Sans Medium",
                    "id": "obj-12",
                    "maxclass": "newobj",
                    "numinlets": 1,
                    "numoutlets": 2,
                    "outlettype": [ "", "" ],
                    "patching_rect": [ 20.0, 52.5, 73.0, 23.0 ],
                    "text": "patcherargs"
                }
            },
            {
                "box": {
                    "comment": "",
                    "id": "obj-50",
                    "index": 0,
                    "maxclass": "inlet",
                    "numinlets": 0,
                    "numoutlets": 1,
                    "outlettype": [ "" ],
                    "patching_rect": [ 127.49999999999997, 20.0, 30.0, 30.0 ]
                }
            },
            {
                "box": {
                    "id": "obj-10",
                    "maxclass": "message",
                    "numinlets": 2,
                    "numoutlets": 1,
                    "outlettype": [ "" ],
                    "patching_rect": [ 20.0, 153.05555555555566, 105.0, 23.0 ],
                    "text": "text $1, texton $1"
                }
            }
        ],
        "lines": [
            {
                "patchline": {
                    "destination": [ "obj-22", 0 ],
                    "midpoints": [ 29.0, 210.0, 29.0, 210.0 ],
                    "source": [ "obj-1", 0 ]
                }
            },
            {
                "patchline": {
                    "destination": [ "obj-1", 0 ],
                    "midpoints": [ 29.5, 177.0, 29.0, 177.0 ],
                    "source": [ "obj-10", 0 ]
                }
            },
            {
                "patchline": {
                    "destination": [ "obj-10", 0 ],
                    "midpoints": [ 29.5, 78.0, 29.5, 78.0 ],
                    "order": 1,
                    "source": [ "obj-12", 0 ]
                }
            },
            {
                "patchline": {
                    "destination": [ "obj-5", 1 ],
                    "midpoints": [ 29.5, 90.0, 343.6666666666667, 90.0 ],
                    "order": 0,
                    "source": [ "obj-12", 0 ]
                }
            },
            {
                "patchline": {
                    "destination": [ "obj-25", 0 ],
                    "midpoints": [ 371.0, 246.0, 371.0, 246.0 ],
                    "order": 1,
                    "source": [ "obj-2", 0 ]
                }
            },
            {
                "patchline": {
                    "destination": [ "obj-4", 0 ],
                    "midpoints": [ 371.0, 267.0, 348.0, 267.0, 348.0, 318.0, 371.0, 318.0 ],
                    "order": 0,
                    "source": [ "obj-2", 0 ]
                }
            },
            {
                "patchline": {
                    "destination": [ "obj-24", 0 ],
                    "midpoints": [ 29.0, 357.0, 29.0, 357.0 ],
                    "source": [ "obj-20", 0 ]
                }
            },
            {
                "patchline": {
                    "destination": [ "obj-20", 0 ],
                    "midpoints": [ 29.0, 306.0, 29.0, 306.0 ],
                    "source": [ "obj-21", 0 ]
                }
            },
            {
                "patchline": {
                    "destination": [ "obj-21", 0 ],
                    "midpoints": [ 29.0, 246.0, 29.0, 246.0 ],
                    "source": [ "obj-22", 0 ]
                }
            },
            {
                "patchline": {
                    "destination": [ "obj-20", 1 ],
                    "midpoints": [ 177.0, 210.0, 177.0, 210.0 ],
                    "source": [ "obj-26", 0 ]
                }
            },
            {
                "patchline": {
                    "destination": [ "obj-5", 0 ],
                    "midpoints": [ 325.6666666666667, 51.0, 325.6666666666667, 51.0 ],
                    "source": [ "obj-3", 0 ]
                }
            },
            {
                "patchline": {
                    "destination": [ "obj-6", 0 ],
                    "midpoints": [ 325.6666666666667, 129.0, 325.6666666666667, 129.0 ],
                    "source": [ "obj-5", 0 ]
                }
            },
            {
                "patchline": {
                    "destination": [ "obj-21", 1 ],
                    "midpoints": [ 136.99999999999997, 51.0, 137.0, 51.0 ],
                    "source": [ "obj-50", 0 ]
                }
            },
            {
                "patchline": {
                    "destination": [ "obj-2", 0 ],
                    "midpoints": [ 371.6666666666667, 177.0, 371.0, 177.0 ],
                    "source": [ "obj-6", 1 ]
                }
            },
            {
                "patchline": {
                    "destination": [ "obj-20", 2 ],
                    "midpoints": [ 325.6666666666667, 177.0, 325.0, 177.0 ],
                    "source": [ "obj-6", 0 ]
                }
            },
            {
                "patchline": {
                    "destination": [ "obj-12", 0 ],
                    "midpoints": [ 29.5, 45.0, 29.5, 45.0 ],
                    "source": [ "obj-7", 0 ]
                }
            }
        ],
        "parameters": {
            "obj-1": [ "live.text[220]", "live.text", 0 ],
            "inherited_shortname": 1
        },
        "autosave": 0
    }
}