{
	"patcher" : 	{
		"fileversion" : 1,
		"appversion" : 		{
			"major" : 8,
			"minor" : 5,
			"revision" : 5,
			"architecture" : "x64",
			"modernui" : 1
		}
,
		"classnamespace" : "box",
		"rect" : [ 0.0, 66.0, 1478.0, 882.0 ],
		"openrect" : [ 0.0, 0.0, 214.0, 265.0 ],
		"bglocked" : 0,
		"openinpresentation" : 1,
		"default_fontsize" : 12.0,
		"default_fontface" : 0,
		"default_fontname" : "Ableton Sans Medium",
		"gridonopen" : 1,
		"gridsize" : [ 15.0, 15.0 ],
		"gridsnaponopen" : 1,
		"objectsnaponopen" : 1,
		"statusbarvisible" : 2,
		"toolbarvisible" : 1,
		"lefttoolbarpinned" : 2,
		"toptoolbarpinned" : 2,
		"righttoolbarpinned" : 0,
		"bottomtoolbarpinned" : 0,
		"toolbars_unpinned_last_save" : 3,
		"tallnewobj" : 0,
		"boxanimatetime" : 200,
		"enablehscroll" : 1,
		"enablevscroll" : 1,
		"devicewidth" : 0.0,
		"description" : "",
		"digest" : "",
		"tags" : "",
		"style" : "",
		"subpatcher_template" : "",
		"assistshowspatchername" : 0,
		"boxes" : [ 			{
				"box" : 				{
					"fontname" : "Ableton Sans Medium",
					"fontsize" : 12.0,
					"id" : "obj-25",
					"maxclass" : "newobj",
					"numinlets" : 2,
					"numoutlets" : 2,
					"outlettype" : [ "", "" ],
					"patching_rect" : [ 1331.615552005313475, 161.5, 54.0, 23.0 ],
					"text" : "route int"
				}

			}
, 			{
				"box" : 				{
					"fontname" : "Ableton Sans Medium",
					"id" : "obj-33",
					"maxclass" : "message",
					"numinlets" : 2,
					"numoutlets" : 1,
					"outlettype" : [ "" ],
					"patching_rect" : [ 1331.996504386265997, 254.713240159145698, 75.0, 23.0 ],
					"text" : "set $1, bang"
				}

			}
, 			{
				"box" : 				{
					"id" : "obj-4",
					"maxclass" : "newobj",
					"numinlets" : 1,
					"numoutlets" : 3,
					"outlettype" : [ "", "", "" ],
					"patching_rect" : [ 1100.999999999999773, 254.713240159145698, 195.0, 23.0 ],
					"saved_object_attributes" : 					{
						"initial" : [ 1 ],
						"parameter_enable" : 0,
						"parameter_mappable" : 0
					}
,
					"text" : "pattr port @bindto port- @initial 1",
					"varname" : "port"
				}

			}
, 			{
				"box" : 				{
					"fontsize" : 9.5,
					"id" : "obj-60",
					"maxclass" : "comment",
					"numinlets" : 1,
					"numoutlets" : 0,
					"patching_rect" : [ 198.176119639476042, 760.5, 42.0, 18.0 ],
					"presentation" : 1,
					"presentation_rect" : [ 166.898296998039314, 241.930181072991218, 42.0, 18.0 ],
					"text" : "channel"
				}

			}
, 			{
				"box" : 				{
					"id" : "obj-59",
					"maxclass" : "newobj",
					"numinlets" : 1,
					"numoutlets" : 3,
					"outlettype" : [ "", "", "" ],
					"patching_rect" : [ 1064.0, 161.5, 232.0, 23.0 ],
					"saved_object_attributes" : 					{
						"initial" : [ 1 ],
						"parameter_enable" : 0,
						"parameter_mappable" : 0
					}
,
					"text" : "pattr channel @bindto channel- @initial 1",
					"varname" : "channel"
				}

			}
, 			{
				"box" : 				{
					"activebgcolor" : [ 0.298037976026535, 0.298046916723251, 0.298041820526123, 0.0 ],
					"bordercolor" : [ 0.0, 0.0, 0.0, 1.0 ],
					"id" : "obj-72",
					"maxclass" : "live.numbox",
					"numinlets" : 1,
					"numoutlets" : 2,
					"outlettype" : [ "", "float" ],
					"parameter_enable" : 1,
					"patching_rect" : [ 147.842786306142557, 761.5, 45.0, 15.0 ],
					"presentation" : 1,
					"presentation_rect" : [ 144.80552536357979, 243.430181072991218, 21.0, 15.0 ],
					"saved_attribute_attributes" : 					{
						"activebgcolor" : 						{
							"expression" : ""
						}
,
						"bordercolor" : 						{
							"expression" : ""
						}
,
						"textcolor" : 						{
							"expression" : ""
						}
,
						"valueof" : 						{
							"parameter_longname" : "live.numbox[36]",
							"parameter_mmax" : 16.0,
							"parameter_mmin" : 1.0,
							"parameter_shortname" : "live.numbox",
							"parameter_type" : 0,
							"parameter_unitstyle" : 0
						}

					}
,
					"varname" : "channel-"
				}

			}
, 			{
				"box" : 				{
					"id" : "obj-53",
					"maxclass" : "newobj",
					"numinlets" : 2,
					"numoutlets" : 1,
					"outlettype" : [ "" ],
					"patching_rect" : [ 41.842786306142557, 757.5, 82.0, 23.0 ],
					"text" : "gate"
				}

			}
, 			{
				"box" : 				{
					"id" : "obj-52",
					"maxclass" : "newobj",
					"numinlets" : 2,
					"numoutlets" : 1,
					"outlettype" : [ "" ],
					"patching_rect" : [ 104.842786306142557, 653.185500099317437, 94.0, 23.0 ],
					"text" : "join @triggers 0"
				}

			}
, 			{
				"box" : 				{
					"activebgcolor" : [ 0.298037976026535, 0.298046916723251, 0.298041820526123, 0.0 ],
					"activebgoncolor" : [ 0.427450980392157, 0.843137254901961, 1.0, 1.0 ],
					"appearance" : 1,
					"bordercolor" : [ 0.0, 0.0, 0.0, 1.0 ],
					"id" : "obj-46",
					"maxclass" : "live.text",
					"mode" : 0,
					"numinlets" : 1,
					"numoutlets" : 2,
					"outlettype" : [ "", "" ],
					"parameter_enable" : 1,
					"patching_rect" : [ 950.90126629102781, 202.850896841581516, 56.0, 16.0 ],
					"presentation" : 1,
					"presentation_rect" : [ 10.5, 243.430181072991218, 16.906333163380623, 15.0 ],
					"saved_attribute_attributes" : 					{
						"activebgcolor" : 						{
							"expression" : ""
						}
,
						"activebgoncolor" : 						{
							"expression" : "themecolor.live_value_bar"
						}
,
						"activetextcolor" : 						{
							"expression" : ""
						}
,
						"bordercolor" : 						{
							"expression" : ""
						}
,
						"textcolor" : 						{
							"expression" : ""
						}
,
						"valueof" : 						{
							"parameter_enum" : [ "val1", "val2" ],
							"parameter_longname" : "live.text[44]",
							"parameter_mmax" : 1,
							"parameter_shortname" : "live.text",
							"parameter_type" : 2
						}

					}
,
					"text" : "refresh",
					"textcolor" : [ 0.0, 0.0, 0.0, 1.0 ],
					"texton" : "OFF",
					"varname" : "live.text[1]"
				}

			}
, 			{
				"box" : 				{
					"id" : "obj-47",
					"maxclass" : "newobj",
					"numinlets" : 1,
					"numoutlets" : 1,
					"outlettype" : [ "bang" ],
					"patching_rect" : [ 950.90126629102781, 145.5, 23.0, 23.0 ],
					"text" : "t b"
				}

			}
, 			{
				"box" : 				{
					"id" : "obj-48",
					"maxclass" : "newobj",
					"numinlets" : 1,
					"numoutlets" : 3,
					"outlettype" : [ "", "", "" ],
					"patching_rect" : [ 1030.204837719599254, 199.350896841581516, 202.0, 23.0 ],
					"saved_object_attributes" : 					{
						"initial" : [ 0 ],
						"parameter_enable" : 0,
						"parameter_mappable" : 0
					}
,
					"text" : "pattr mute @bindto mute- @initial 0",
					"varname" : "mute[1]"
				}

			}
, 			{
				"box" : 				{
					"fontname" : "Ableton Sans Medium",
					"id" : "obj-23",
					"maxclass" : "newobj",
					"numinlets" : 2,
					"numoutlets" : 1,
					"outlettype" : [ "int" ],
					"patching_rect" : [ 41.842786306142557, 653.185500099317437, 30.0, 23.0 ],
					"text" : "!- 1"
				}

			}
, 			{
				"box" : 				{
					"activebgcolor" : [ 0.298037976026535, 0.298046916723251, 0.298041820526123, 0.0 ],
					"activebgoncolor" : [ 1.0, 0.345098039215686, 0.298039215686275, 1.0 ],
					"bordercolor" : [ 0.0, 0.0, 0.0, 1.0 ],
					"id" : "obj-153",
					"maxclass" : "live.text",
					"numinlets" : 1,
					"numoutlets" : 2,
					"outlettype" : [ "", "" ],
					"parameter_enable" : 1,
					"patching_rect" : [ 41.842786306142557, 612.235500170843011, 44.0, 15.0 ],
					"pictures" : [ "unlock.svg", "lock.svg" ],
					"presentation" : 1,
					"presentation_rect" : [ 167.804172278538772, 7.0, 37.094124719500542, 15.0 ],
					"remapsvgcolors" : 1,
					"saved_attribute_attributes" : 					{
						"activebgcolor" : 						{
							"expression" : ""
						}
,
						"activebgoncolor" : 						{
							"expression" : "themecolor.live_active_automation"
						}
,
						"activetextcolor" : 						{
							"expression" : ""
						}
,
						"bordercolor" : 						{
							"expression" : ""
						}
,
						"textcolor" : 						{
							"expression" : ""
						}
,
						"valueof" : 						{
							"parameter_enum" : [ "val1", "val2" ],
							"parameter_longname" : "live.text[19]",
							"parameter_mmax" : 1,
							"parameter_shortname" : "live.text",
							"parameter_type" : 2
						}

					}
,
					"text" : "ON",
					"textcolor" : [ 0.0, 0.0, 0.0, 1.0 ],
					"texton" : "OFF",
					"usepicture" : 1,
					"varname" : "mute-"
				}

			}
, 			{
				"box" : 				{
					"id" : "obj-41",
					"linecolor" : [ 0.0, 0.0, 0.0, 1.0 ],
					"maxclass" : "live.line",
					"numinlets" : 1,
					"numoutlets" : 0,
					"patching_rect" : [ 43.643171966075897, 54.0, 150.442643090089064, 5.0 ],
					"presentation" : 1,
					"presentation_rect" : [ 0.0, 236.930181072991218, 214.0, 5.0 ],
					"saved_attribute_attributes" : 					{
						"linecolor" : 						{
							"expression" : ""
						}

					}

				}

			}
, 			{
				"box" : 				{
					"id" : "obj-34",
					"linecolor" : [ 0.0, 0.0, 0.0, 1.0 ],
					"maxclass" : "live.line",
					"numinlets" : 1,
					"numoutlets" : 0,
					"patching_rect" : [ 43.643171966075897, 46.063138142228127, 150.442643090089064, 5.0 ],
					"presentation" : 1,
					"presentation_rect" : [ 0.0, 142.920712947845459, 214.0, 5.0 ],
					"saved_attribute_attributes" : 					{
						"linecolor" : 						{
							"expression" : ""
						}

					}

				}

			}
, 			{
				"box" : 				{
					"id" : "obj-28",
					"maxclass" : "newobj",
					"numinlets" : 1,
					"numoutlets" : 3,
					"outlettype" : [ "", "", "" ],
					"patching_rect" : [ 731.5, 145.5, 192.0, 23.0 ],
					"restore" : [ 0.0 ],
					"saved_object_attributes" : 					{
						"parameter_enable" : 0,
						"parameter_mappable" : 0
					}
,
					"text" : "pattr semitone @bindto semitone-",
					"varname" : "semitone"
				}

			}
, 			{
				"box" : 				{
					"id" : "obj-29",
					"maxclass" : "newobj",
					"numinlets" : 1,
					"numoutlets" : 3,
					"outlettype" : [ "", "", "" ],
					"patching_rect" : [ 630.0, 180.0, 167.0, 23.0 ],
					"restore" : [ 0.0 ],
					"saved_object_attributes" : 					{
						"parameter_enable" : 0,
						"parameter_mappable" : 0
					}
,
					"text" : "pattr octave @bindto octave-",
					"varname" : "octave"
				}

			}
, 			{
				"box" : 				{
					"appearance" : 3,
					"id" : "obj-27",
					"maxclass" : "live.dial",
					"numinlets" : 1,
					"numoutlets" : 2,
					"outlettype" : [ "", "float" ],
					"parameter_enable" : 1,
					"patching_rect" : [ 226.842786306142557, 409.277826401086884, 50.0, 63.0 ],
					"presentation" : 1,
					"presentation_rect" : [ 152.80552536357979, 169.930181072991218, 50.0, 63.0 ],
					"saved_attribute_attributes" : 					{
						"valueof" : 						{
							"parameter_initial" : [ 0 ],
							"parameter_initial_enable" : 1,
							"parameter_longname" : "semitone",
							"parameter_mmax" : 12.0,
							"parameter_mmin" : -12.0,
							"parameter_shortname" : "semitone",
							"parameter_type" : 0,
							"parameter_units" : "oct",
							"parameter_unitstyle" : 7
						}

					}
,
					"varname" : "semitone-"
				}

			}
, 			{
				"box" : 				{
					"appearance" : 3,
					"id" : "obj-75",
					"maxclass" : "live.dial",
					"numinlets" : 1,
					"numoutlets" : 2,
					"outlettype" : [ "", "float" ],
					"parameter_enable" : 1,
					"patching_rect" : [ 165.842786306142557, 409.277826401086884, 50.0, 63.0 ],
					"presentation" : 1,
					"presentation_rect" : [ 96.655994535217943, 169.930181072991218, 50.0, 63.0 ],
					"saved_attribute_attributes" : 					{
						"valueof" : 						{
							"parameter_initial" : [ 0 ],
							"parameter_initial_enable" : 1,
							"parameter_longname" : "octave",
							"parameter_mmax" : 4.0,
							"parameter_mmin" : -4.0,
							"parameter_shortname" : "octave",
							"parameter_type" : 1,
							"parameter_units" : "oct",
							"parameter_unitstyle" : 9
						}

					}
,
					"varname" : "octave-"
				}

			}
, 			{
				"box" : 				{
					"fontsize" : 9.5,
					"id" : "obj-26",
					"maxclass" : "comment",
					"numinlets" : 1,
					"numoutlets" : 0,
					"patching_rect" : [ 569.351557552814484, 150.5, 32.0, 18.0 ],
					"presentation" : 1,
					"presentation_rect" : [ 105.340793073177338, 147.920712947845459, 32.0, 18.0 ],
					"text" : "mode"
				}

			}
, 			{
				"box" : 				{
					"id" : "obj-22",
					"maxclass" : "newobj",
					"numinlets" : 2,
					"numoutlets" : 1,
					"outlettype" : [ "int" ],
					"patching_rect" : [ 468.0, 114.0, 29.5, 23.0 ],
					"text" : "- 1"
				}

			}
, 			{
				"box" : 				{
					"align" : 1,
					"bgcolor" : [ 0.701957941055298, 0.701978802680969, 0.701966941356659, 0.0 ],
					"bgfillcolor_angle" : 270.0,
					"bgfillcolor_autogradient" : 0.0,
					"bgfillcolor_color" : [ 0.701957941055298, 0.701978802680969, 0.701966941356659, 0.0 ],
					"bgfillcolor_color1" : [ 0.301961, 0.301961, 0.301961, 1.0 ],
					"bgfillcolor_color2" : [ 0.2, 0.2, 0.2, 1.0 ],
					"bgfillcolor_proportion" : 0.5,
					"bgfillcolor_type" : "color",
					"fontname" : "Ableton Sans Medium",
					"fontsize" : 10.5,
					"id" : "obj-21",
					"items" : [ "monophonic", ",", "polyphonic", ",", "touchscreen" ],
					"maxclass" : "umenu",
					"numinlets" : 1,
					"numoutlets" : 3,
					"outlettype" : [ "int", "", "" ],
					"parameter_enable" : 0,
					"patching_rect" : [ 468.0, 149.0, 91.707317113876343, 21.0 ],
					"presentation" : 1,
					"presentation_rect" : [ 12.964233219623566, 146.920712947845459, 88.40940842032434, 21.0 ],
					"textcolor" : [ 0.0, 0.0, 0.0, 1.0 ],
					"textjustification" : 1,
					"varname" : "mode-"
				}

			}
, 			{
				"box" : 				{
					"angle" : 270.0,
					"bgcolor" : [ 0.427450980392157, 0.843137254901961, 1.0, 0.0 ],
					"border" : 1,
					"bordercolor" : [ 0.0, 0.0, 0.0, 1.0 ],
					"id" : "obj-38",
					"maxclass" : "panel",
					"mode" : 0,
					"numinlets" : 1,
					"numoutlets" : 0,
					"patching_rect" : [ 468.0, 149.0, 92.707317113876343, 22.0 ],
					"presentation" : 1,
					"presentation_rect" : [ 11.964233219623566, 150.732321552932262, 89.40940842032434, 14.793213412165642 ],
					"proportion" : 0.5,
					"rounded" : 0
				}

			}
, 			{
				"box" : 				{
					"id" : "obj-20",
					"maxclass" : "newobj",
					"numinlets" : 1,
					"numoutlets" : 3,
					"outlettype" : [ "", "", "" ],
					"patching_rect" : [ 411.0, 296.682142857142708, 207.0, 23.0 ],
					"saved_object_attributes" : 					{
						"initial" : [ 2 ],
						"parameter_enable" : 0,
						"parameter_mappable" : 0
					}
,
					"text" : "pattr mode @bindto mode- @initial 2",
					"varname" : "mode"
				}

			}
, 			{
				"box" : 				{
					"id" : "obj-19",
					"maxclass" : "message",
					"numinlets" : 2,
					"numoutlets" : 1,
					"outlettype" : [ "" ],
					"patching_rect" : [ 468.0, 180.0, 55.0, 23.0 ],
					"text" : "mode $1"
				}

			}
, 			{
				"box" : 				{
					"id" : "obj-18",
					"maxclass" : "newobj",
					"numinlets" : 9,
					"numoutlets" : 9,
					"outlettype" : [ "", "", "", "", "", "", "", "", "" ],
					"patching_rect" : [ 425.0, 71.0, 840.0, 23.0 ],
					"text" : "route flush mode octave semitone refresh mute channel port"
				}

			}
, 			{
				"box" : 				{
					"comment" : "",
					"id" : "obj-15",
					"index" : 2,
					"maxclass" : "inlet",
					"numinlets" : 0,
					"numoutlets" : 1,
					"outlettype" : [ "" ],
					"patching_rect" : [ 425.0, 29.0, 30.0, 30.0 ]
				}

			}
, 			{
				"box" : 				{
					"id" : "obj-10",
					"maxclass" : "newobj",
					"numinlets" : 1,
					"numoutlets" : 3,
					"outlettype" : [ "", "", "" ],
					"patching_rect" : [ 411.0, 250.682142857142708, 194.0, 23.0 ],
					"restore" : [ -1 ],
					"saved_object_attributes" : 					{
						"parameter_enable" : 0,
						"parameter_mappable" : 0
					}
,
					"text" : "pattr keyboard @bindto keyboard-",
					"varname" : "keyboard"
				}

			}
, 			{
				"box" : 				{
					"id" : "obj-16",
					"maxclass" : "message",
					"numinlets" : 2,
					"numoutlets" : 1,
					"outlettype" : [ "" ],
					"patching_rect" : [ 182.342786306142557, 150.0, 99.0, 23.0 ],
					"text" : "flush, set $1 100"
				}

			}
, 			{
				"box" : 				{
					"id" : "obj-13",
					"maxclass" : "newobj",
					"numinlets" : 3,
					"numoutlets" : 3,
					"outlettype" : [ "", "", "" ],
					"patching_rect" : [ 104.842786306142557, 114.0, 174.0, 23.0 ],
					"text" : "route list int"
				}

			}
, 			{
				"box" : 				{
					"id" : "obj-8",
					"maxclass" : "newobj",
					"numinlets" : 1,
					"numoutlets" : 2,
					"outlettype" : [ "int", "int" ],
					"patching_rect" : [ 104.842786306142557, 150.0, 67.0, 23.0 ],
					"text" : "unpack 0 0"
				}

			}
, 			{
				"box" : 				{
					"comment" : "",
					"id" : "obj-7",
					"index" : 1,
					"maxclass" : "inlet",
					"numinlets" : 0,
					"numoutlets" : 1,
					"outlettype" : [ "" ],
					"patching_rect" : [ 104.842786306142557, 71.0, 30.0, 30.0 ]
				}

			}
, 			{
				"box" : 				{
					"id" : "obj-36",
					"maxclass" : "newobj",
					"numinlets" : 3,
					"numoutlets" : 1,
					"outlettype" : [ "int" ],
					"patcher" : 					{
						"fileversion" : 1,
						"appversion" : 						{
							"major" : 8,
							"minor" : 5,
							"revision" : 5,
							"architecture" : "x64",
							"modernui" : 1
						}
,
						"classnamespace" : "box",
						"rect" : [ 59.0, 119.0, 380.0, 296.0 ],
						"bglocked" : 0,
						"openinpresentation" : 0,
						"default_fontsize" : 12.0,
						"default_fontface" : 0,
						"default_fontname" : "Arial",
						"gridonopen" : 1,
						"gridsize" : [ 15.0, 15.0 ],
						"gridsnaponopen" : 1,
						"objectsnaponopen" : 1,
						"statusbarvisible" : 2,
						"toolbarvisible" : 1,
						"lefttoolbarpinned" : 0,
						"toptoolbarpinned" : 0,
						"righttoolbarpinned" : 0,
						"bottomtoolbarpinned" : 0,
						"toolbars_unpinned_last_save" : 0,
						"tallnewobj" : 0,
						"boxanimatetime" : 200,
						"enablehscroll" : 1,
						"enablevscroll" : 1,
						"devicewidth" : 0.0,
						"description" : "",
						"digest" : "",
						"tags" : "",
						"style" : "",
						"subpatcher_template" : "",
						"assistshowspatchername" : 0,
						"boxes" : [ 							{
								"box" : 								{
									"fontname" : "Ableton Sans Medium",
									"id" : "obj-16",
									"maxclass" : "newobj",
									"numinlets" : 2,
									"numoutlets" : 1,
									"outlettype" : [ "int" ],
									"patching_rect" : [ 244.0, 124.0, 101.0, 23.0 ],
									"text" : "+"
								}

							}
, 							{
								"box" : 								{
									"fontname" : "Ableton Sans Medium",
									"id" : "obj-9",
									"maxclass" : "newobj",
									"numinlets" : 2,
									"numoutlets" : 1,
									"outlettype" : [ "float" ],
									"patching_rect" : [ 244.0, 88.0, 36.0, 23.0 ],
									"text" : "* 12."
								}

							}
, 							{
								"box" : 								{
									"fontname" : "Ableton Sans Medium",
									"id" : "obj-4",
									"maxclass" : "comment",
									"numinlets" : 1,
									"numoutlets" : 0,
									"patching_rect" : [ 240.0, 18.0, 44.0, 21.0 ],
									"text" : "octave"
								}

							}
, 							{
								"box" : 								{
									"comment" : "",
									"id" : "obj-3",
									"index" : 2,
									"maxclass" : "inlet",
									"numinlets" : 0,
									"numoutlets" : 1,
									"outlettype" : [ "" ],
									"patching_rect" : [ 244.0, 44.0, 30.0, 30.0 ]
								}

							}
, 							{
								"box" : 								{
									"fontname" : "Ableton Sans Medium",
									"id" : "obj-12",
									"maxclass" : "comment",
									"numinlets" : 1,
									"numoutlets" : 0,
									"patching_rect" : [ 27.0, 18.0, 48.0, 21.0 ],
									"text" : "carrier"
								}

							}
, 							{
								"box" : 								{
									"comment" : "",
									"id" : "obj-10",
									"index" : 1,
									"maxclass" : "inlet",
									"numinlets" : 0,
									"numoutlets" : 1,
									"outlettype" : [ "int" ],
									"patching_rect" : [ 31.5, 44.0, 30.0, 30.0 ]
								}

							}
, 							{
								"box" : 								{
									"fontname" : "Ableton Sans Medium",
									"id" : "obj-6",
									"maxclass" : "comment",
									"numinlets" : 1,
									"numoutlets" : 0,
									"patching_rect" : [ 304.0, 18.0, 57.0, 21.0 ],
									"text" : "semitone"
								}

							}
, 							{
								"box" : 								{
									"comment" : "",
									"id" : "obj-188",
									"index" : 1,
									"maxclass" : "outlet",
									"numinlets" : 1,
									"numoutlets" : 0,
									"patching_rect" : [ 31.5, 250.0, 30.0, 30.0 ]
								}

							}
, 							{
								"box" : 								{
									"fontname" : "Ableton Sans Medium",
									"id" : "obj-1",
									"maxclass" : "newobj",
									"numinlets" : 1,
									"numoutlets" : 2,
									"outlettype" : [ "bang", "int" ],
									"patching_rect" : [ 313.5, 88.0, 31.0, 23.0 ],
									"text" : "t b i"
								}

							}
, 							{
								"box" : 								{
									"fontname" : "Ableton Sans Medium",
									"id" : "obj-20",
									"maxclass" : "newobj",
									"numinlets" : 2,
									"numoutlets" : 1,
									"outlettype" : [ "int" ],
									"patching_rect" : [ 31.5, 204.0, 231.5, 23.0 ],
									"text" : "+ 0"
								}

							}
, 							{
								"box" : 								{
									"comment" : "",
									"id" : "obj-30",
									"index" : 3,
									"maxclass" : "inlet",
									"numinlets" : 0,
									"numoutlets" : 1,
									"outlettype" : [ "" ],
									"patching_rect" : [ 313.5, 44.0, 30.0, 30.0 ]
								}

							}
 ],
						"lines" : [ 							{
								"patchline" : 								{
									"destination" : [ "obj-16", 1 ],
									"source" : [ "obj-1", 1 ]
								}

							}
, 							{
								"patchline" : 								{
									"destination" : [ "obj-16", 0 ],
									"midpoints" : [ 323.0, 117.0, 253.5, 117.0 ],
									"source" : [ "obj-1", 0 ]
								}

							}
, 							{
								"patchline" : 								{
									"destination" : [ "obj-20", 0 ],
									"source" : [ "obj-10", 0 ]
								}

							}
, 							{
								"patchline" : 								{
									"destination" : [ "obj-20", 1 ],
									"source" : [ "obj-16", 0 ]
								}

							}
, 							{
								"patchline" : 								{
									"destination" : [ "obj-188", 0 ],
									"source" : [ "obj-20", 0 ]
								}

							}
, 							{
								"patchline" : 								{
									"destination" : [ "obj-9", 0 ],
									"source" : [ "obj-3", 0 ]
								}

							}
, 							{
								"patchline" : 								{
									"destination" : [ "obj-1", 0 ],
									"source" : [ "obj-30", 0 ]
								}

							}
, 							{
								"patchline" : 								{
									"destination" : [ "obj-16", 0 ],
									"source" : [ "obj-9", 0 ]
								}

							}
 ]
					}
,
					"patching_rect" : [ 104.842786306142557, 488.299986302852631, 141.0, 23.0 ],
					"saved_object_attributes" : 					{
						"description" : "",
						"digest" : "",
						"globalpatchername" : "",
						"tags" : ""
					}
,
					"text" : "p transposition"
				}

			}
, 			{
				"box" : 				{
					"id" : "obj-1",
					"maxclass" : "newobj",
					"numinlets" : 1,
					"numoutlets" : 2,
					"outlettype" : [ "bang", "" ],
					"patching_rect" : [ 307.0, 626.682142857142708, 29.5, 23.0 ],
					"text" : "t b l"
				}

			}
, 			{
				"box" : 				{
					"fontsize" : 9.5,
					"id" : "obj-6",
					"maxclass" : "comment",
					"numinlets" : 1,
					"numoutlets" : 0,
					"patching_rect" : [ 200.058359652757645, 579.0, 41.0, 18.0 ],
					"presentation" : 1,
					"presentation_rect" : [ 51.54223048723253, 167.087015539882032, 41.0, 18.0 ],
					"text" : "velocity"
				}

			}
, 			{
				"box" : 				{
					"fontsize" : 9.5,
					"id" : "obj-14",
					"maxclass" : "comment",
					"numinlets" : 1,
					"numoutlets" : 0,
					"patching_rect" : [ 125.842786306142557, 579.0, 30.0, 18.0 ],
					"presentation" : 1,
					"presentation_rect" : [ 13.964233219623566, 167.087015539882032, 30.0, 18.0 ],
					"text" : "pitch"
				}

			}
, 			{
				"box" : 				{
					"activebgcolor" : [ 0.298037976026535, 0.298046916723251, 0.298041820526123, 0.0 ],
					"bordercolor" : [ 0.0, 0.0, 0.0, 1.0 ],
					"id" : "obj-39",
					"maxclass" : "live.numbox",
					"numinlets" : 1,
					"numoutlets" : 2,
					"outlettype" : [ "", "float" ],
					"parameter_enable" : 1,
					"patching_rect" : [ 179.842786306142557, 555.688857341492167, 44.0, 15.0 ],
					"presentation" : 1,
					"presentation_rect" : [ 53.577997267608971, 184.309927510063972, 36.928466439247131, 15.0 ],
					"saved_attribute_attributes" : 					{
						"activebgcolor" : 						{
							"expression" : ""
						}
,
						"bordercolor" : 						{
							"expression" : ""
						}
,
						"textcolor" : 						{
							"expression" : ""
						}
,
						"valueof" : 						{
							"parameter_longname" : "live.numbox[140]",
							"parameter_shortname" : "live.numbox",
							"parameter_type" : 1,
							"parameter_unitstyle" : 0
						}

					}
,
					"varname" : "Out-NB"
				}

			}
, 			{
				"box" : 				{
					"activebgcolor" : [ 0.298037976026535, 0.298046916723251, 0.298041820526123, 0.0 ],
					"bordercolor" : [ 0.0, 0.0, 0.0, 1.0 ],
					"id" : "obj-37",
					"maxclass" : "live.numbox",
					"numinlets" : 1,
					"numoutlets" : 2,
					"outlettype" : [ "", "float" ],
					"parameter_enable" : 1,
					"patching_rect" : [ 104.842786306142557, 555.688857341492167, 44.0, 15.0 ],
					"presentation" : 1,
					"presentation_rect" : [ 10.5, 184.309927510063972, 36.928466439247131, 15.0 ],
					"saved_attribute_attributes" : 					{
						"activebgcolor" : 						{
							"expression" : ""
						}
,
						"bordercolor" : 						{
							"expression" : ""
						}
,
						"textcolor" : 						{
							"expression" : ""
						}
,
						"valueof" : 						{
							"parameter_longname" : "live.numbox[8]",
							"parameter_shortname" : "live.numbox",
							"parameter_type" : 1,
							"parameter_unitstyle" : 8
						}

					}
,
					"varname" : "In-NB"
				}

			}
, 			{
				"box" : 				{
					"id" : "obj-2",
					"maxclass" : "newobj",
					"numinlets" : 1,
					"numoutlets" : 1,
					"outlettype" : [ "" ],
					"patching_rect" : [ 307.0, 552.0, 68.0, 23.0 ],
					"text" : "loadmess 1"
				}

			}
, 			{
				"box" : 				{
					"align" : 1,
					"bgcolor" : [ 1.0, 1.0, 1.0, 0.0 ],
					"bgfillcolor_angle" : 270.0,
					"bgfillcolor_autogradient" : 0.0,
					"bgfillcolor_color" : [ 1.0, 1.0, 1.0, 0.0 ],
					"bgfillcolor_color1" : [ 0.156862745098039, 0.156862745098039, 0.156862745098039, 0.0 ],
					"bgfillcolor_color2" : [ 0.2, 0.2, 0.2, 1.0 ],
					"bgfillcolor_proportion" : 0.5,
					"bgfillcolor_type" : "color",
					"fontname" : "Ableton Sans Medium",
					"fontsize" : 9.5,
					"id" : "obj-24",
					"items" : [ "AU DLS Synth 1", ",", "IAC Driver Bus 1", ",", "from Max 1", ",", "from Max 2", ",", "SLMIXUSB Port 1", ",", "SLMIXUSB Port 2", ",", "SLMIXUSB Port 3" ],
					"maxclass" : "umenu",
					"numinlets" : 1,
					"numoutlets" : 3,
					"outlettype" : [ "int", "", "" ],
					"parameter_enable" : 0,
					"patching_rect" : [ 307.0, 682.5, 123.0, 20.0 ],
					"pattrmode" : 1,
					"presentation" : 1,
					"presentation_rect" : [ 29.406333163380623, 240.930181072991218, 110.90475694835186, 20.0 ],
					"textcolor" : [ 0.0, 0.0, 0.0, 1.0 ],
					"textjustification" : 1,
					"varname" : "port-"
				}

			}
, 			{
				"box" : 				{
					"angle" : 270.0,
					"bgcolor" : [ 0.2, 0.2, 0.2, 0.0 ],
					"border" : 1,
					"bordercolor" : [ 0.0, 0.0, 0.0, 1.0 ],
					"id" : "obj-43",
					"maxclass" : "panel",
					"mode" : 0,
					"numinlets" : 1,
					"numoutlets" : 0,
					"patching_rect" : [ 307.0, 682.5, 123.0, 20.0 ],
					"presentation" : 1,
					"presentation_rect" : [ 29.406333163380623, 244.430181072991218, 110.90475694835186, 13.530068526665389 ],
					"proportion" : 0.5,
					"rounded" : 0
				}

			}
, 			{
				"box" : 				{
					"id" : "obj-3",
					"maxclass" : "newobj",
					"numinlets" : 2,
					"numoutlets" : 1,
					"outlettype" : [ "" ],
					"patching_rect" : [ 307.0, 588.864285714285415, 51.0, 23.0 ],
					"text" : "midiinfo"
				}

			}
, 			{
				"box" : 				{
					"activebgcolor" : [ 0.647058823529412, 0.647058823529412, 0.647058823529412, 0.0 ],
					"activebgoncolor" : [ 0.427450980392157, 0.843137254901961, 1.0, 1.0 ],
					"bordercolor" : [ 0.0, 0.0, 0.0, 1.0 ],
					"id" : "obj-56",
					"maxclass" : "live.text",
					"mode" : 0,
					"numinlets" : 1,
					"numoutlets" : 2,
					"outlettype" : [ "", "" ],
					"parameter_enable" : 1,
					"patching_rect" : [ 333.842786306142557, 118.0, 44.0, 15.0 ],
					"pictures" : [ "clear.svg", "clear.svg" ],
					"presentation" : 1,
					"presentation_rect" : [ 128.804172278538772, 7.0, 37.001353085041046, 15.0 ],
					"saved_attribute_attributes" : 					{
						"activebgcolor" : 						{
							"expression" : ""
						}
,
						"activebgoncolor" : 						{
							"expression" : "themecolor.live_numbox_triangle"
						}
,
						"bordercolor" : 						{
							"expression" : ""
						}
,
						"focusbordercolor" : 						{
							"expression" : ""
						}
,
						"valueof" : 						{
							"parameter_enum" : [ "val1", "val2" ],
							"parameter_longname" : "live.text[145]",
							"parameter_mmax" : 1,
							"parameter_shortname" : "live.text",
							"parameter_type" : 2
						}

					}
,
					"text" : "flush",
					"texton" : "clear",
					"varname" : "live.text"
				}

			}
, 			{
				"box" : 				{
					"hkeycolor" : [ 0.427450980392157, 0.843137254901961, 1.0, 1.0 ],
					"id" : "obj-49",
					"maxclass" : "kslider",
					"mode" : 2,
					"numinlets" : 2,
					"numoutlets" : 2,
					"offset" : 60,
					"outlettype" : [ "int", "int" ],
					"parameter_enable" : 0,
					"patching_rect" : [ 104.842786306142557, 250.682142857142708, 264.0, 133.0 ],
					"presentation" : 1,
					"presentation_rect" : [ 10.805525363579797, 36.0, 192.0, 98.0 ],
					"range" : 13,
					"saved_attribute_attributes" : 					{
						"hkeycolor" : 						{
							"expression" : "themecolor.live_numbox_triangle"
						}
,
						"selectioncolor" : 						{
							"expression" : "themecolor.live_numbox_triangle"
						}

					}
,
					"selectioncolor" : [ 0.427450980392157, 0.843137254901961, 1.0, 1.0 ],
					"varname" : "keyboard-"
				}

			}
, 			{
				"box" : 				{
					"id" : "obj-35",
					"maxclass" : "newobj",
					"numinlets" : 3,
					"numoutlets" : 0,
					"patching_rect" : [ 41.842786306142557, 831.682142857142708, 125.0, 23.0 ],
					"text" : "noteout"
				}

			}
, 			{
				"box" : 				{
					"id" : "obj-17",
					"linecolor" : [ 0.0, 0.0, 0.0, 1.0 ],
					"maxclass" : "live.line",
					"numinlets" : 1,
					"numoutlets" : 0,
					"patching_rect" : [ 43.842786306142557, 38.126276284456253, 150.442643090089064, 5.0 ],
					"presentation" : 1,
					"presentation_rect" : [ 0.0, 28.0, 214.0, 5.0 ],
					"saved_attribute_attributes" : 					{
						"linecolor" : 						{
							"expression" : ""
						}

					}

				}

			}
, 			{
				"box" : 				{
					"fontface" : 0,
					"fontname" : "Ableton Sans Medium",
					"fontsize" : 12.0,
					"id" : "obj-58",
					"maxclass" : "comment",
					"numinlets" : 1,
					"numoutlets" : 0,
					"patching_rect" : [ 43.842786306142557, 14.126276284456253, 58.0, 21.0 ],
					"presentation" : 1,
					"presentation_rect" : [ 3.0, 4.0, 58.0, 21.0 ],
					"text" : "keyboard",
					"textcolor" : [ 0.0, 0.0, 0.0, 1.0 ]
				}

			}
 ],
		"lines" : [ 			{
				"patchline" : 				{
					"destination" : [ "obj-24", 0 ],
					"midpoints" : [ 327.0, 669.0, 316.5, 669.0 ],
					"source" : [ "obj-1", 1 ]
				}

			}
, 			{
				"patchline" : 				{
					"destination" : [ "obj-24", 0 ],
					"midpoints" : [ 316.5, 651.0, 316.5, 651.0 ],
					"source" : [ "obj-1", 0 ]
				}

			}
, 			{
				"patchline" : 				{
					"destination" : [ "obj-16", 0 ],
					"midpoints" : [ 191.842786306142557, 138.0, 191.842786306142557, 138.0 ],
					"source" : [ "obj-13", 1 ]
				}

			}
, 			{
				"patchline" : 				{
					"destination" : [ "obj-8", 0 ],
					"midpoints" : [ 114.342786306142557, 138.0, 114.342786306142557, 138.0 ],
					"source" : [ "obj-13", 0 ]
				}

			}
, 			{
				"patchline" : 				{
					"destination" : [ "obj-18", 0 ],
					"midpoints" : [ 434.5, 60.0, 434.5, 60.0 ],
					"source" : [ "obj-15", 0 ]
				}

			}
, 			{
				"patchline" : 				{
					"destination" : [ "obj-23", 0 ],
					"midpoints" : [ 51.342786306142557, 630.0, 51.342786306142557, 630.0 ],
					"source" : [ "obj-153", 0 ]
				}

			}
, 			{
				"patchline" : 				{
					"destination" : [ "obj-49", 0 ],
					"midpoints" : [ 191.842786306142557, 237.0, 114.342786306142557, 237.0 ],
					"source" : [ "obj-16", 0 ]
				}

			}
, 			{
				"patchline" : 				{
					"destination" : [ "obj-22", 0 ],
					"midpoints" : [ 537.125, 108.0, 477.5, 108.0 ],
					"source" : [ "obj-18", 1 ]
				}

			}
, 			{
				"patchline" : 				{
					"destination" : [ "obj-25", 0 ],
					"midpoints" : [ 1152.875, 147.0, 1341.115552005313475, 147.0 ],
					"source" : [ "obj-18", 7 ]
				}

			}
, 			{
				"patchline" : 				{
					"destination" : [ "obj-28", 0 ],
					"midpoints" : [ 742.375, 96.0, 741.0, 96.0 ],
					"source" : [ "obj-18", 3 ]
				}

			}
, 			{
				"patchline" : 				{
					"destination" : [ "obj-29", 0 ],
					"midpoints" : [ 639.75, 96.0, 639.5, 96.0 ],
					"source" : [ "obj-18", 2 ]
				}

			}
, 			{
				"patchline" : 				{
					"destination" : [ "obj-47", 0 ],
					"midpoints" : [ 845.0, 132.0, 960.40126629102781, 132.0 ],
					"source" : [ "obj-18", 4 ]
				}

			}
, 			{
				"patchline" : 				{
					"destination" : [ "obj-48", 0 ],
					"midpoints" : [ 947.625, 132.0, 1039.704837719599254, 132.0 ],
					"source" : [ "obj-18", 5 ]
				}

			}
, 			{
				"patchline" : 				{
					"destination" : [ "obj-56", 0 ],
					"midpoints" : [ 434.5, 105.0, 343.342786306142557, 105.0 ],
					"source" : [ "obj-18", 0 ]
				}

			}
, 			{
				"patchline" : 				{
					"destination" : [ "obj-59", 0 ],
					"midpoints" : [ 1050.25, 147.0, 1073.5, 147.0 ],
					"source" : [ "obj-18", 6 ]
				}

			}
, 			{
				"patchline" : 				{
					"destination" : [ "obj-49", 0 ],
					"midpoints" : [ 477.5, 237.0, 114.342786306142557, 237.0 ],
					"source" : [ "obj-19", 0 ]
				}

			}
, 			{
				"patchline" : 				{
					"destination" : [ "obj-3", 0 ],
					"midpoints" : [ 316.5, 576.0, 316.5, 576.0 ],
					"source" : [ "obj-2", 0 ]
				}

			}
, 			{
				"patchline" : 				{
					"destination" : [ "obj-19", 0 ],
					"midpoints" : [ 477.5, 171.0, 477.5, 171.0 ],
					"source" : [ "obj-21", 0 ]
				}

			}
, 			{
				"patchline" : 				{
					"destination" : [ "obj-21", 0 ],
					"midpoints" : [ 477.5, 138.0, 477.5, 138.0 ],
					"source" : [ "obj-22", 0 ]
				}

			}
, 			{
				"patchline" : 				{
					"destination" : [ "obj-53", 0 ],
					"midpoints" : [ 51.342786306142557, 678.0, 51.342786306142557, 678.0 ],
					"source" : [ "obj-23", 0 ]
				}

			}
, 			{
				"patchline" : 				{
					"destination" : [ "obj-35", 0 ],
					"midpoints" : [ 368.5, 816.0, 51.342786306142557, 816.0 ],
					"source" : [ "obj-24", 1 ]
				}

			}
, 			{
				"patchline" : 				{
					"destination" : [ "obj-33", 0 ],
					"midpoints" : [ 1376.115552005313475, 240.0, 1341.496504386265997, 240.0 ],
					"source" : [ "obj-25", 1 ]
				}

			}
, 			{
				"patchline" : 				{
					"destination" : [ "obj-33", 0 ],
					"midpoints" : [ 1341.115552005313475, 186.0, 1341.496504386265997, 186.0 ],
					"source" : [ "obj-25", 0 ]
				}

			}
, 			{
				"patchline" : 				{
					"destination" : [ "obj-36", 2 ],
					"midpoints" : [ 236.342786306142557, 474.0, 236.342786306142557, 474.0 ],
					"source" : [ "obj-27", 0 ]
				}

			}
, 			{
				"patchline" : 				{
					"destination" : [ "obj-1", 0 ],
					"midpoints" : [ 316.5, 612.0, 316.5, 612.0 ],
					"source" : [ "obj-3", 0 ]
				}

			}
, 			{
				"patchline" : 				{
					"destination" : [ "obj-24", 0 ],
					"midpoints" : [ 1341.496504386265997, 669.0, 316.5, 669.0 ],
					"source" : [ "obj-33", 0 ]
				}

			}
, 			{
				"patchline" : 				{
					"destination" : [ "obj-37", 0 ],
					"midpoints" : [ 114.342786306142557, 513.0, 114.342786306142557, 513.0 ],
					"source" : [ "obj-36", 0 ]
				}

			}
, 			{
				"patchline" : 				{
					"destination" : [ "obj-52", 0 ],
					"midpoints" : [ 114.342786306142557, 573.0, 114.342786306142557, 573.0 ],
					"source" : [ "obj-37", 0 ]
				}

			}
, 			{
				"patchline" : 				{
					"destination" : [ "obj-52", 1 ],
					"midpoints" : [ 189.342786306142557, 573.0, 189.342786306142557, 573.0 ],
					"source" : [ "obj-39", 0 ]
				}

			}
, 			{
				"patchline" : 				{
					"destination" : [ "obj-2", 0 ],
					"midpoints" : [ 960.40126629102781, 537.0, 316.5, 537.0 ],
					"source" : [ "obj-46", 0 ]
				}

			}
, 			{
				"patchline" : 				{
					"destination" : [ "obj-46", 0 ],
					"midpoints" : [ 960.40126629102781, 171.0, 960.40126629102781, 171.0 ],
					"source" : [ "obj-47", 0 ]
				}

			}
, 			{
				"patchline" : 				{
					"destination" : [ "obj-36", 0 ],
					"midpoints" : [ 114.342786306142557, 384.0, 114.342786306142557, 384.0 ],
					"source" : [ "obj-49", 0 ]
				}

			}
, 			{
				"patchline" : 				{
					"destination" : [ "obj-39", 0 ],
					"midpoints" : [ 359.342786306142557, 537.0, 189.342786306142557, 537.0 ],
					"source" : [ "obj-49", 1 ]
				}

			}
, 			{
				"patchline" : 				{
					"destination" : [ "obj-53", 1 ],
					"midpoints" : [ 114.342786306142557, 678.0, 114.342786306142557, 678.0 ],
					"source" : [ "obj-52", 0 ]
				}

			}
, 			{
				"patchline" : 				{
					"destination" : [ "obj-35", 0 ],
					"midpoints" : [ 51.342786306142557, 783.0, 51.342786306142557, 783.0 ],
					"source" : [ "obj-53", 0 ]
				}

			}
, 			{
				"patchline" : 				{
					"destination" : [ "obj-49", 0 ],
					"midpoints" : [ 368.342786306142557, 237.0, 114.342786306142557, 237.0 ],
					"source" : [ "obj-56", 1 ]
				}

			}
, 			{
				"patchline" : 				{
					"destination" : [ "obj-13", 0 ],
					"midpoints" : [ 114.342786306142557, 102.0, 114.342786306142557, 102.0 ],
					"source" : [ "obj-7", 0 ]
				}

			}
, 			{
				"patchline" : 				{
					"destination" : [ "obj-35", 2 ],
					"midpoints" : [ 157.342786306142557, 777.0, 157.342786306142557, 777.0 ],
					"source" : [ "obj-72", 0 ]
				}

			}
, 			{
				"patchline" : 				{
					"destination" : [ "obj-36", 1 ],
					"midpoints" : [ 175.342786306142557, 474.0, 175.342786306142557, 474.0 ],
					"source" : [ "obj-75", 0 ]
				}

			}
, 			{
				"patchline" : 				{
					"destination" : [ "obj-49", 1 ],
					"midpoints" : [ 162.342786306142557, 237.0, 359.342786306142557, 237.0 ],
					"source" : [ "obj-8", 1 ]
				}

			}
, 			{
				"patchline" : 				{
					"destination" : [ "obj-49", 0 ],
					"midpoints" : [ 114.342786306142557, 174.0, 114.342786306142557, 174.0 ],
					"source" : [ "obj-8", 0 ]
				}

			}
 ],
		"bgcolor" : [ 0.898, 0.898, 0.898, 1.0 ],
		"editing_bgcolor" : [ 0.898, 0.898, 0.898, 1.0 ]
	}

}
