{
	"patcher" : 	{
		"fileversion" : 1,
		"appversion" : 		{
			"major" : 8,
			"minor" : 5,
			"revision" : 5,
			"architecture" : "x64",
			"modernui" : 1
		}
,
		"classnamespace" : "box",
		"rect" : [ 0.0, 66.0, 1478.0, 882.0 ],
		"openrect" : [ 0.0, 0.0, 70.0, 57.5 ],
		"bglocked" : 0,
		"openinpresentation" : 1,
		"default_fontsize" : 12.0,
		"default_fontface" : 0,
		"default_fontname" : "Ableton Sans Medium",
		"gridonopen" : 2,
		"gridsize" : [ 10.0, 10.0 ],
		"gridsnaponopen" : 2,
		"objectsnaponopen" : 1,
		"statusbarvisible" : 2,
		"toolbarvisible" : 1,
		"lefttoolbarpinned" : 0,
		"toptoolbarpinned" : 0,
		"righttoolbarpinned" : 0,
		"bottomtoolbarpinned" : 0,
		"toolbars_unpinned_last_save" : 3,
		"tallnewobj" : 0,
		"boxanimatetime" : 200,
		"enablehscroll" : 1,
		"enablevscroll" : 1,
		"devicewidth" : 0.0,
		"description" : "",
		"digest" : "",
		"tags" : "",
		"style" : "",
		"subpatcher_template" : "mo.main",
		"assistshowspatchername" : 0,
		"boxes" : [ 			{
				"box" : 				{
					"hidden" : 1,
					"id" : "obj-6",
					"maxclass" : "newobj",
					"numinlets" : 1,
					"numoutlets" : 1,
					"outlettype" : [ "bang" ],
					"patching_rect" : [ 1339.0, 771.626276284456253, 58.0, 23.0 ],
					"text" : "loadbang"
				}

			}
, 			{
				"box" : 				{
					"hidden" : 1,
					"id" : "obj-10",
					"maxclass" : "newobj",
					"numinlets" : 1,
					"numoutlets" : 1,
					"outlettype" : [ "" ],
					"patching_rect" : [ 1339.0, 796.626276284456253, 82.0, 23.0 ],
					"text" : "a-mo.settings"
				}

			}
, 			{
				"box" : 				{
					"hidden" : 1,
					"id" : "obj-22",
					"maxclass" : "newobj",
					"numinlets" : 1,
					"numoutlets" : 2,
					"outlettype" : [ "", "" ],
					"patching_rect" : [ 1396.0, 846.626276284456253, 70.0, 23.0 ],
					"save" : [ "#N", "thispatcher", ";", "#Q", "end", ";" ],
					"text" : "thispatcher"
				}

			}
, 			{
				"box" : 				{
					"hidden" : 1,
					"id" : "obj-23",
					"maxclass" : "newobj",
					"numinlets" : 1,
					"numoutlets" : 0,
					"patching_rect" : [ 1339.0, 821.626276284456253, 127.0, 23.0 ],
					"text" : "universal @descend 1"
				}

			}
, 			{
				"box" : 				{
					"id" : "obj-25",
					"maxclass" : "newobj",
					"numinlets" : 2,
					"numoutlets" : 2,
					"outlettype" : [ "", "" ],
					"patching_rect" : [ 37.125337662629818, 139.466692631508778, 67.0, 23.0 ],
					"text" : "route bang"
				}

			}
, 			{
				"box" : 				{
					"id" : "obj-20",
					"maxclass" : "newobj",
					"numinlets" : 2,
					"numoutlets" : 1,
					"outlettype" : [ "int" ],
					"patching_rect" : [ 37.125337662629818, 57.488897543836259, 29.5, 23.0 ],
					"text" : "!- 1"
				}

			}
, 			{
				"box" : 				{
					"id" : "obj-15",
					"maxclass" : "newobj",
					"numinlets" : 2,
					"numoutlets" : 1,
					"outlettype" : [ "" ],
					"patching_rect" : [ 37.125337662629818, 93.977795087672519, 52.0, 23.0 ],
					"text" : "gate 1 1"
				}

			}
, 			{
				"box" : 				{
					"activebgcolor" : [ 0.647058823529412, 0.647058823529412, 0.647058823529412, 0.0 ],
					"activebgoncolor" : [ 1.0, 0.345098039215686, 0.298039215686275, 1.0 ],
					"appearance" : 1,
					"bordercolor" : [ 0.0, 0.0, 0.0, 1.0 ],
					"focusbordercolor" : [ 0.313725, 0.313725, 0.313725, 0.0 ],
					"id" : "obj-9",
					"maxclass" : "live.text",
					"numinlets" : 1,
					"numoutlets" : 2,
					"outlettype" : [ "", "" ],
					"parameter_enable" : 1,
					"patching_rect" : [ 37.125337662629818, 29.0, 67.0, 14.0 ],
					"pictures" : [ "unlock.svg", "lock.svg" ],
					"presentation" : 1,
					"presentation_rect" : [ 4.0, 4.0, 63.0, 15.0 ],
					"remapsvgcolors" : 1,
					"saved_attribute_attributes" : 					{
						"activebgcolor" : 						{
							"expression" : ""
						}
,
						"activebgoncolor" : 						{
							"expression" : "themecolor.live_active_automation"
						}
,
						"bordercolor" : 						{
							"expression" : ""
						}
,
						"focusbordercolor" : 						{
							"expression" : ""
						}
,
						"valueof" : 						{
							"parameter_enum" : [ "val1", "val2" ],
							"parameter_longname" : "live.text[428]",
							"parameter_mmax" : 1,
							"parameter_shortname" : "live.text",
							"parameter_type" : 2
						}

					}
,
					"text" : "debounce",
					"texton" : "debounce",
					"varname" : "mute-"
				}

			}
, 			{
				"box" : 				{
					"fontname" : "Ableton Sans Medium",
					"id" : "obj-18",
					"maxclass" : "newobj",
					"numinlets" : 2,
					"numoutlets" : 1,
					"outlettype" : [ "bang" ],
					"patching_rect" : [ 83.125337662629818, 317.525632772355266, 49.0, 23.0 ],
					"text" : "del 250"
				}

			}
, 			{
				"box" : 				{
					"fontname" : "Ableton Sans Medium",
					"id" : "obj-19",
					"maxclass" : "newobj",
					"numinlets" : 2,
					"numoutlets" : 2,
					"outlettype" : [ "bang", "bang" ],
					"patching_rect" : [ 37.125337662629818, 452.389330970003698, 65.0, 23.0 ],
					"text" : "onebang 1"
				}

			}
, 			{
				"box" : 				{
					"comment" : "(int) time",
					"id" : "obj-7",
					"index" : 0,
					"maxclass" : "inlet",
					"numinlets" : 0,
					"numoutlets" : 1,
					"outlettype" : [ "" ],
					"patching_rect" : [ 545.506750941276096, 29.0, 30.0, 30.0 ]
				}

			}
, 			{
				"box" : 				{
					"fontsize" : 9.5,
					"id" : "obj-3",
					"maxclass" : "comment",
					"numinlets" : 1,
					"numoutlets" : 0,
					"patching_rect" : [ 189.811080531278947, 252.5512318642526, 27.0, 18.0 ],
					"presentation" : 1,
					"presentation_rect" : [ 21.5, 22.0, 27.0, 18.0 ],
					"text" : "time"
				}

			}
, 			{
				"box" : 				{
					"fontname" : "Ableton Sans Medium",
					"id" : "obj-12",
					"maxclass" : "newobj",
					"numinlets" : 2,
					"numoutlets" : 1,
					"outlettype" : [ "" ],
					"patching_rect" : [ 159.872310342721676, 317.525632772355266, 49.0, 23.0 ],
					"text" : "pipe 50"
				}

			}
, 			{
				"box" : 				{
					"fontname" : "Ableton Sans Medium",
					"id" : "obj-11",
					"maxclass" : "newobj",
					"numinlets" : 1,
					"numoutlets" : 3,
					"outlettype" : [ "int", "int", "" ],
					"patching_rect" : [ 159.872310342721676, 223.1965562569643, 170.0, 23.0 ],
					"text" : "t 1 0 l"
				}

			}
, 			{
				"box" : 				{
					"fontname" : "Ableton Sans Medium",
					"id" : "obj-8",
					"maxclass" : "newobj",
					"numinlets" : 2,
					"numoutlets" : 1,
					"outlettype" : [ "" ],
					"patching_rect" : [ 235.409644186496735, 452.389330970003698, 52.0, 23.0 ],
					"text" : "gate 1 1"
				}

			}
, 			{
				"box" : 				{
					"id" : "obj-4",
					"maxclass" : "newobj",
					"numinlets" : 1,
					"numoutlets" : 2,
					"outlettype" : [ "", "" ],
					"patching_rect" : [ 425.064107851187146, 69.532164633274078, 73.0, 23.0 ],
					"text" : "patcherargs",
					"varname" : "u528002315"
				}

			}
, 			{
				"box" : 				{
					"id" : "obj-2",
					"maxclass" : "newobj",
					"numinlets" : 1,
					"numoutlets" : 1,
					"outlettype" : [ "bang" ],
					"patching_rect" : [ 425.064107851187146, 29.0, 58.0, 23.0 ],
					"text" : "loadbang"
				}

			}
, 			{
				"box" : 				{
					"id" : "obj-1",
					"maxclass" : "newobj",
					"numinlets" : 1,
					"numoutlets" : 3,
					"outlettype" : [ "", "", "" ],
					"patching_rect" : [ 546.0, 219.284666690736003, 203.0, 23.0 ],
					"saved_object_attributes" : 					{
						"initial" : [ 50 ],
						"parameter_enable" : 0,
						"parameter_mappable" : 0
					}
,
					"text" : "pattr time @bindto time- @initial 50",
					"varname" : "time"
				}

			}
, 			{
				"box" : 				{
					"comment" : "(list) debounced",
					"id" : "obj-98",
					"index" : 0,
					"maxclass" : "outlet",
					"numinlets" : 1,
					"numoutlets" : 0,
					"patching_rect" : [ 37.125337662629818, 532.582846731295263, 30.0, 30.0 ]
				}

			}
, 			{
				"box" : 				{
					"comment" : "(list) to debounce",
					"id" : "obj-32",
					"index" : 0,
					"maxclass" : "inlet",
					"numinlets" : 0,
					"numoutlets" : 1,
					"outlettype" : [ "" ],
					"patching_rect" : [ 116.125337662629818, 29.0, 30.0, 30.0 ]
				}

			}
, 			{
				"box" : 				{
					"activebgcolor" : [ 0.647058823529412, 0.647058823529412, 0.647058823529412, 0.0 ],
					"activetricolor" : [ 0.427450980392157, 0.843137254901961, 1.0, 1.0 ],
					"appearance" : 1,
					"bordercolor" : [ 0.0, 0.0, 0.0, 1.0 ],
					"focusbordercolor" : [ 0.313725, 0.313725, 0.313725, 0.0 ],
					"id" : "obj-5",
					"maxclass" : "live.numbox",
					"numinlets" : 1,
					"numoutlets" : 2,
					"outlettype" : [ "", "float" ],
					"parameter_enable" : 1,
					"patching_rect" : [ 189.811080531278947, 272.5512318642526, 44.0, 15.0 ],
					"presentation" : 1,
					"presentation_rect" : [ 3.5, 38.371792723306498, 62.03719088435173, 15.0 ],
					"saved_attribute_attributes" : 					{
						"activebgcolor" : 						{
							"expression" : ""
						}
,
						"activetricolor" : 						{
							"expression" : "themecolor.live_value_bar"
						}
,
						"activetricolor2" : 						{
							"expression" : "themecolor.live_value_bar"
						}
,
						"bordercolor" : 						{
							"expression" : ""
						}
,
						"focusbordercolor" : 						{
							"expression" : ""
						}
,
						"valueof" : 						{
							"parameter_initial" : [ 250 ],
							"parameter_initial_enable" : 1,
							"parameter_longname" : "live.dial[14]",
							"parameter_mmax" : 10000.0,
							"parameter_shortname" : "live.dial[20]",
							"parameter_type" : 0,
							"parameter_unitstyle" : 2
						}

					}
,
					"varname" : "time-"
				}

			}
, 			{
				"box" : 				{
					"id" : "obj-17",
					"linecolor" : [ 0.0, 0.0, 0.0, 1.0 ],
					"maxclass" : "live.line",
					"numinlets" : 1,
					"numoutlets" : 0,
					"patching_rect" : [ 425.064107851187146, 22.0, 150.442643090089064, 5.0 ],
					"presentation" : 1,
					"presentation_rect" : [ 0.0, 22.0, 70.0, 5.0 ],
					"saved_attribute_attributes" : 					{
						"linecolor" : 						{
							"expression" : ""
						}

					}

				}

			}
 ],
		"lines" : [ 			{
				"patchline" : 				{
					"destination" : [ "obj-23", 0 ],
					"hidden" : 1,
					"source" : [ "obj-10", 0 ]
				}

			}
, 			{
				"patchline" : 				{
					"destination" : [ "obj-12", 0 ],
					"midpoints" : [ 169.372310342721676, 249.0, 169.372310342721676, 249.0 ],
					"source" : [ "obj-11", 0 ]
				}

			}
, 			{
				"patchline" : 				{
					"destination" : [ "obj-8", 1 ],
					"midpoints" : [ 320.372310342721676, 438.0, 277.909644186496735, 438.0 ],
					"source" : [ "obj-11", 2 ]
				}

			}
, 			{
				"patchline" : 				{
					"destination" : [ "obj-8", 0 ],
					"midpoints" : [ 244.872310342721676, 249.0, 244.909644186496735, 249.0 ],
					"source" : [ "obj-11", 1 ]
				}

			}
, 			{
				"patchline" : 				{
					"destination" : [ "obj-8", 0 ],
					"midpoints" : [ 169.372310342721676, 438.0, 244.909644186496735, 438.0 ],
					"source" : [ "obj-12", 0 ]
				}

			}
, 			{
				"patchline" : 				{
					"destination" : [ "obj-25", 0 ],
					"midpoints" : [ 46.625337662629818, 117.0, 46.625337662629818, 117.0 ],
					"source" : [ "obj-15", 0 ]
				}

			}
, 			{
				"patchline" : 				{
					"destination" : [ "obj-19", 1 ],
					"midpoints" : [ 92.625337662629818, 342.0, 92.625337662629818, 342.0 ],
					"source" : [ "obj-18", 0 ]
				}

			}
, 			{
				"patchline" : 				{
					"destination" : [ "obj-98", 0 ],
					"midpoints" : [ 46.625337662629818, 477.0, 46.625337662629818, 477.0 ],
					"source" : [ "obj-19", 0 ]
				}

			}
, 			{
				"patchline" : 				{
					"destination" : [ "obj-4", 0 ],
					"midpoints" : [ 434.564107851187146, 54.0, 434.564107851187146, 54.0 ],
					"source" : [ "obj-2", 0 ]
				}

			}
, 			{
				"patchline" : 				{
					"destination" : [ "obj-15", 0 ],
					"midpoints" : [ 46.625337662629818, 81.0, 46.625337662629818, 81.0 ],
					"source" : [ "obj-20", 0 ]
				}

			}
, 			{
				"patchline" : 				{
					"destination" : [ "obj-11", 0 ],
					"midpoints" : [ 94.625337662629818, 210.0, 169.372310342721676, 210.0 ],
					"source" : [ "obj-25", 1 ]
				}

			}
, 			{
				"patchline" : 				{
					"destination" : [ "obj-18", 0 ],
					"midpoints" : [ 46.625337662629818, 303.0, 92.625337662629818, 303.0 ],
					"order" : 0,
					"source" : [ "obj-25", 0 ]
				}

			}
, 			{
				"patchline" : 				{
					"destination" : [ "obj-19", 0 ],
					"midpoints" : [ 46.625337662629818, 165.0, 46.625337662629818, 165.0 ],
					"order" : 1,
					"source" : [ "obj-25", 0 ]
				}

			}
, 			{
				"patchline" : 				{
					"destination" : [ "obj-15", 1 ],
					"midpoints" : [ 125.625337662629818, 78.0, 79.625337662629818, 78.0 ],
					"source" : [ "obj-32", 0 ]
				}

			}
, 			{
				"patchline" : 				{
					"destination" : [ "obj-1", 0 ],
					"midpoints" : [ 434.564107851187146, 204.0, 555.5, 204.0 ],
					"source" : [ "obj-4", 0 ]
				}

			}
, 			{
				"patchline" : 				{
					"destination" : [ "obj-12", 1 ],
					"midpoints" : [ 199.311080531278947, 288.0, 199.372310342721676, 288.0 ],
					"order" : 0,
					"source" : [ "obj-5", 0 ]
				}

			}
, 			{
				"patchline" : 				{
					"destination" : [ "obj-18", 1 ],
					"midpoints" : [ 199.311080531278947, 303.0, 122.625337662629818, 303.0 ],
					"order" : 1,
					"source" : [ "obj-5", 0 ]
				}

			}
, 			{
				"patchline" : 				{
					"destination" : [ "obj-10", 0 ],
					"hidden" : 1,
					"source" : [ "obj-6", 0 ]
				}

			}
, 			{
				"patchline" : 				{
					"destination" : [ "obj-1", 0 ],
					"midpoints" : [ 555.006750941276096, 60.0, 555.5, 60.0 ],
					"source" : [ "obj-7", 0 ]
				}

			}
, 			{
				"patchline" : 				{
					"destination" : [ "obj-98", 0 ],
					"midpoints" : [ 244.909644186496735, 519.0, 46.625337662629818, 519.0 ],
					"source" : [ "obj-8", 0 ]
				}

			}
, 			{
				"patchline" : 				{
					"destination" : [ "obj-20", 0 ],
					"midpoints" : [ 46.625337662629818, 45.0, 46.625337662629818, 45.0 ],
					"source" : [ "obj-9", 0 ]
				}

			}
 ],
		"parameters" : 		{
			"obj-5" : [ "live.dial[14]", "live.dial[20]", 0 ],
			"obj-9" : [ "live.text[428]", "live.text", 0 ],
			"parameterbanks" : 			{
				"0" : 				{
					"index" : 0,
					"name" : "",
					"parameters" : [ "-", "-", "-", "-", "-", "-", "-", "-" ]
				}

			}
,
			"inherited_shortname" : 1
		}
,
		"dependency_cache" : [ 			{
				"name" : "a-mo.settings.maxpat",
				"bootpath" : "~/Documents/Max 8/Packages/modulo/misc/abstractions",
				"patcherrelativepath" : "../../misc/abstractions",
				"type" : "JSON",
				"implicit" : 1
			}
 ],
		"autosave" : 0,
		"textcolor" : [ 0.0, 0.0, 0.0, 1.0 ],
		"bgcolor" : [ 0.898, 0.898, 0.898, 1.0 ],
		"editing_bgcolor" : [ 0.898, 0.898, 0.898, 1.0 ]
	}

}
