{
    "patcher": {
        "fileversion": 1,
        "appversion": {
            "major": 9,
            "minor": 1,
            "revision": 0,
            "architecture": "x64",
            "modernui": 1
        },
        "classnamespace": "box",
        "rect": [ 34.0, 96.0, 559.0, 541.0 ],
        "gridonopen": 2,
        "gridsize": [ 10.0, 10.0 ],
        "subpatcher_template": " ",
        "helpsidebarclosed": 1,
        "boxes": [
            {
                "box": {
                    "bubble": 1,
                    "fontname": "Ableton Sans Medium",
                    "fontsize": 12.0,
                    "id": "obj-16",
                    "maxclass": "comment",
                    "numinlets": 1,
                    "numoutlets": 0,
                    "patching_rect": [ 359.25579157406054, 257.5, 112.0, 25.0 ],
                    "text": "unipolar/bipolar"
                }
            },
            {
                "box": {
                    "id": "obj-17",
                    "maxclass": "toggle",
                    "numinlets": 1,
                    "numoutlets": 1,
                    "outlettype": [ "int" ],
                    "parameter_enable": 0,
                    "patching_rect": [ 328.0, 258.0, 24.0, 24.0 ]
                }
            },
            {
                "box": {
                    "id": "obj-18",
                    "maxclass": "message",
                    "numinlets": 2,
                    "numoutlets": 1,
                    "outlettype": [ "" ],
                    "patching_rect": [ 328.0, 306.0, 67.0, 22.0 ],
                    "text": "polarity $1"
                }
            },
            {
                "box": {
                    "bubble": 1,
                    "fontname": "Ableton Sans Medium",
                    "fontsize": 12.0,
                    "id": "obj-4",
                    "maxclass": "comment",
                    "numinlets": 1,
                    "numoutlets": 0,
                    "patching_rect": [ 467.7557915740606, 305.0, 72.0, 25.0 ],
                    "text": "set color"
                }
            },
            {
                "box": {
                    "id": "obj-11",
                    "maxclass": "number",
                    "maximum": 15,
                    "minimum": 0,
                    "numinlets": 1,
                    "numoutlets": 2,
                    "outlettype": [ "", "bang" ],
                    "parameter_enable": 0,
                    "patching_rect": [ 411.2557915740606, 306.0, 50.0, 22.0 ]
                }
            },
            {
                "box": {
                    "id": "obj-12",
                    "maxclass": "message",
                    "numinlets": 2,
                    "numoutlets": 1,
                    "outlettype": [ "" ],
                    "patching_rect": [ 411.2557915740606, 350.0, 53.0, 22.0 ],
                    "text": "color $1"
                }
            },
            {
                "box": {
                    "bgcolor": [ 1.0, 0.788235, 0.470588, 1.0 ],
                    "fontname": "Ableton Sans Medium",
                    "fontsize": 10.0,
                    "hint": "",
                    "id": "obj-35",
                    "ignoreclick": 1,
                    "legacytextcolor": 1,
                    "maxclass": "textbutton",
                    "numinlets": 1,
                    "numoutlets": 3,
                    "outlettype": [ "", "", "int" ],
                    "parameter_enable": 0,
                    "patching_rect": [ 98.0, 167.5, 20.0, 20.0 ],
                    "rounded": 60.0,
                    "text": "1",
                    "textcolor": [ 0.34902, 0.34902, 0.34902, 1.0 ]
                }
            },
            {
                "box": {
                    "bubble": 1,
                    "fontname": "Ableton Sans Medium",
                    "fontsize": 12.0,
                    "id": "obj-15",
                    "maxclass": "comment",
                    "numinlets": 1,
                    "numoutlets": 0,
                    "patching_rect": [ 123.25579157406054, 165.0, 148.0, 25.0 ],
                    "text": "floating points (0. / 1.)"
                }
            },
            {
                "box": {
                    "bubble": 1,
                    "fontname": "Ableton Sans Medium",
                    "fontsize": 12.0,
                    "id": "obj-10",
                    "maxclass": "comment",
                    "numinlets": 1,
                    "numoutlets": 0,
                    "patching_rect": [ 331.0, 210.0, 74.0, 25.0 ],
                    "text": "set name"
                }
            },
            {
                "box": {
                    "bubble": 1,
                    "fontname": "Ableton Sans Medium",
                    "fontsize": 12.0,
                    "id": "obj-32",
                    "maxclass": "comment",
                    "numinlets": 1,
                    "numoutlets": 0,
                    "patching_rect": [ 123.25579157406054, 210.5, 92.0, 25.0 ],
                    "text": "mute output"
                }
            },
            {
                "box": {
                    "format": 6,
                    "id": "obj-8",
                    "maxclass": "flonum",
                    "numinlets": 1,
                    "numoutlets": 2,
                    "outlettype": [ "", "bang" ],
                    "parameter_enable": 0,
                    "patching_rect": [ 41.0, 166.0, 50.0, 22.0 ]
                }
            },
            {
                "box": {
                    "id": "obj-2",
                    "maxclass": "message",
                    "numinlets": 2,
                    "numoutlets": 1,
                    "outlettype": [ "" ],
                    "patching_rect": [ 290.5, 211.0, 32.0, 22.0 ],
                    "text": "spat"
                }
            },
            {
                "box": {
                    "id": "obj-6",
                    "maxclass": "message",
                    "numinlets": 2,
                    "numoutlets": 1,
                    "outlettype": [ "" ],
                    "patching_rect": [ 227.25579157406054, 211.0, 52.0, 22.0 ],
                    "text": "encoder"
                }
            },
            {
                "box": {
                    "id": "obj-3",
                    "maxclass": "newobj",
                    "numinlets": 1,
                    "numoutlets": 1,
                    "outlettype": [ "" ],
                    "patching_rect": [ 227.25579157406054, 259.0, 72.0, 22.0 ],
                    "text": "prepend set"
                }
            },
            {
                "box": {
                    "format": 6,
                    "id": "obj-9",
                    "maxclass": "flonum",
                    "numinlets": 1,
                    "numoutlets": 2,
                    "outlettype": [ "", "bang" ],
                    "parameter_enable": 0,
                    "patching_rect": [ 41.0, 495.0, 50.0, 22.0 ]
                }
            },
            {
                "box": {
                    "id": "obj-7",
                    "maxclass": "toggle",
                    "numinlets": 1,
                    "numoutlets": 1,
                    "outlettype": [ "int" ],
                    "parameter_enable": 0,
                    "patching_rect": [ 92.0, 211.0, 24.0, 24.0 ]
                }
            },
            {
                "box": {
                    "id": "obj-5",
                    "maxclass": "message",
                    "numinlets": 2,
                    "numoutlets": 1,
                    "outlettype": [ "" ],
                    "patching_rect": [ 92.0, 259.0, 53.0, 22.0 ],
                    "text": "mute $1"
                }
            },
            {
                "box": {
                    "bgmode": 0,
                    "border": 1,
                    "clickthrough": 0,
                    "enablehscroll": 0,
                    "enablevscroll": 0,
                    "id": "obj-1",
                    "lockeddragscroll": 0,
                    "lockedsize": 0,
                    "maxclass": "bpatcher",
                    "name": "mo.encoder.maxpat",
                    "numinlets": 2,
                    "numoutlets": 1,
                    "offset": [ 0.0, 0.0 ],
                    "outlettype": [ "" ],
                    "patching_rect": [ 41.0, 405.0, 70.0, 70.0 ],
                    "varname": "mo.encoder",
                    "viewvisibility": 1
                }
            },
            {
                "box": {
                    "fontname": "Ableton Sans Medium",
                    "fontsize": 13.0,
                    "id": "obj-30",
                    "maxclass": "comment",
                    "numinlets": 1,
                    "numoutlets": 0,
                    "patching_rect": [ 9.0, 102.0, 515.0, 22.0 ],
                    "saved_attribute_attributes": {
                        "textcolor": {
                            "expression": "themecolor.live_control_fg_off_zombie"
                        }
                    },
                    "text": "Map this object to a MIDI controller. Can be controlled by any value (standard is 63-65).",
                    "textcolor": [ 0.57636836783545, 0.576368229540612, 0.576368265679262, 1.0 ]
                }
            },
            {
                "box": {
                    "fontname": "Ableton Sans Medium",
                    "fontsize": 14.0,
                    "id": "obj-26",
                    "maxclass": "comment",
                    "numinlets": 1,
                    "numoutlets": 0,
                    "patching_rect": [ 9.0, 83.0, 127.0, 23.0 ],
                    "text": "An encoder object."
                }
            },
            {
                "box": {
                    "fontface": 0,
                    "fontname": "Ableton Sans Medium",
                    "fontsize": 54.0,
                    "id": "obj-24",
                    "maxclass": "comment",
                    "numinlets": 1,
                    "numoutlets": 0,
                    "patching_rect": [ 9.0, 9.0, 292.0, 71.0 ],
                    "text": "mo.encoder"
                }
            }
        ],
        "lines": [
            {
                "patchline": {
                    "destination": [ "obj-9", 0 ],
                    "midpoints": [ 50.5, 477.0, 50.5, 477.0 ],
                    "source": [ "obj-1", 0 ]
                }
            },
            {
                "patchline": {
                    "destination": [ "obj-12", 0 ],
                    "midpoints": [ 420.7557915740606, 330.0, 420.7557915740606, 330.0 ],
                    "source": [ "obj-11", 0 ]
                }
            },
            {
                "patchline": {
                    "destination": [ "obj-1", 1 ],
                    "midpoints": [ 420.7557915740606, 390.0, 101.5, 390.0 ],
                    "source": [ "obj-12", 0 ]
                }
            },
            {
                "patchline": {
                    "destination": [ "obj-18", 0 ],
                    "midpoints": [ 337.5, 285.0, 337.5, 285.0 ],
                    "source": [ "obj-17", 0 ]
                }
            },
            {
                "patchline": {
                    "destination": [ "obj-1", 1 ],
                    "midpoints": [ 337.5, 390.0, 101.5, 390.0 ],
                    "source": [ "obj-18", 0 ]
                }
            },
            {
                "patchline": {
                    "destination": [ "obj-3", 0 ],
                    "midpoints": [ 300.0, 246.0, 236.75579157406054, 246.0 ],
                    "source": [ "obj-2", 0 ]
                }
            },
            {
                "patchline": {
                    "destination": [ "obj-1", 1 ],
                    "midpoints": [ 236.75579157406054, 390.0, 101.5, 390.0 ],
                    "source": [ "obj-3", 0 ]
                }
            },
            {
                "patchline": {
                    "destination": [ "obj-1", 1 ],
                    "midpoints": [ 101.5, 285.0, 101.5, 285.0 ],
                    "source": [ "obj-5", 0 ]
                }
            },
            {
                "patchline": {
                    "destination": [ "obj-3", 0 ],
                    "midpoints": [ 236.75579157406054, 237.0, 236.75579157406054, 237.0 ],
                    "source": [ "obj-6", 0 ]
                }
            },
            {
                "patchline": {
                    "destination": [ "obj-5", 0 ],
                    "midpoints": [ 101.5, 237.0, 101.5, 237.0 ],
                    "source": [ "obj-7", 0 ]
                }
            },
            {
                "patchline": {
                    "destination": [ "obj-1", 0 ],
                    "midpoints": [ 50.5, 192.0, 50.5, 192.0 ],
                    "source": [ "obj-8", 0 ]
                }
            }
        ],
        "parameters": {
            "obj-1::obj-12": [ "live.text[804]", "live.text", 0 ],
            "obj-1::obj-21": [ "dial-[1]", "dial", 0 ],
            "obj-1::obj-5": [ "live.text[907]", "live.text", 0 ],
            "parameterbanks": {
                "0": {
                    "index": 0,
                    "name": "",
                    "parameters": [ "-", "-", "-", "-", "-", "-", "-", "-" ],
                    "buttons": [ "-", "-", "-", "-", "-", "-", "-", "-" ]
                }
            },
            "parameter_overrides": {
                "obj-1::obj-12": {
                    "parameter_longname": "live.text[804]"
                },
                "obj-1::obj-5": {
                    "parameter_longname": "live.text[907]"
                }
            },
            "inherited_shortname": 1
        },
        "autosave": 0
    }
}