{
    "patcher": {
        "fileversion": 1,
        "appversion": {
            "major": 9,
            "minor": 1,
            "revision": 0,
            "architecture": "x64",
            "modernui": 1
        },
        "classnamespace": "box",
        "rect": [ 34.0, 96.0, 434.0, 643.0 ],
        "default_fontname": "Ableton Sans Medium",
        "gridonopen": 2,
        "gridsize": [ 10.0, 10.0 ],
        "subpatcher_template": " ",
        "helpsidebarclosed": 1,
        "boxes": [
            {
                "box": {
                    "dontreplace": 1,
                    "id": "obj-9",
                    "maxclass": "message",
                    "numinlets": 2,
                    "numoutlets": 1,
                    "outlettype": [ "" ],
                    "patching_rect": [ 41.0, 604.0, 226.0, 23.0 ]
                }
            },
            {
                "box": {
                    "bubble": 1,
                    "fontname": "Ableton Sans Medium",
                    "fontsize": 12.0,
                    "id": "obj-5",
                    "maxclass": "comment",
                    "numinlets": 1,
                    "numoutlets": 0,
                    "patching_rect": [ 244.25579157406054, 242.0, 92.0, 25.0 ],
                    "text": "mute output"
                }
            },
            {
                "box": {
                    "id": "obj-2",
                    "maxclass": "toggle",
                    "numinlets": 1,
                    "numoutlets": 1,
                    "outlettype": [ "int" ],
                    "parameter_enable": 0,
                    "patching_rect": [ 215.25579157406054, 242.0, 24.0, 24.0 ]
                }
            },
            {
                "box": {
                    "id": "obj-4",
                    "maxclass": "message",
                    "numinlets": 2,
                    "numoutlets": 1,
                    "outlettype": [ "" ],
                    "patching_rect": [ 215.25579157406054, 291.0, 53.0, 23.0 ],
                    "text": "mute $1"
                }
            },
            {
                "box": {
                    "bgcolor": [ 1.0, 0.788235, 0.470588, 1.0 ],
                    "fontname": "Ableton Sans Medium",
                    "fontsize": 10.0,
                    "hint": "",
                    "id": "obj-1",
                    "ignoreclick": 1,
                    "legacytextcolor": 1,
                    "maxclass": "textbutton",
                    "numinlets": 1,
                    "numoutlets": 3,
                    "outlettype": [ "", "", "int" ],
                    "parameter_enable": 0,
                    "patching_rect": [ 155.70731711387634, 167.5, 20.0, 20.0 ],
                    "rounded": 60.0,
                    "text": "1",
                    "textcolor": [ 0.34902, 0.34902, 0.34902, 1.0 ]
                }
            },
            {
                "box": {
                    "bubble": 1,
                    "fontname": "Ableton Sans Medium",
                    "fontsize": 12.0,
                    "id": "obj-14",
                    "maxclass": "comment",
                    "numinlets": 1,
                    "numoutlets": 0,
                    "patching_rect": [ 215.25579157406054, 203.5, 115.0, 25.0 ],
                    "text": "number of nodes"
                }
            },
            {
                "box": {
                    "bubble": 1,
                    "fontname": "Ableton Sans Medium",
                    "fontsize": 12.0,
                    "id": "obj-15",
                    "maxclass": "comment",
                    "numinlets": 1,
                    "numoutlets": 0,
                    "patching_rect": [ 180.25579157406054, 166.0, 161.0, 25.0 ],
                    "text": "floating numbers (0. / 1.)"
                }
            },
            {
                "box": {
                    "id": "obj-10",
                    "maxclass": "newobj",
                    "numinlets": 2,
                    "numoutlets": 1,
                    "outlettype": [ "" ],
                    "patching_rect": [ 41.0, 204.5, 74.0, 23.0 ],
                    "text": "pak 0. 0."
                }
            },
            {
                "box": {
                    "format": 6,
                    "id": "obj-6",
                    "maxclass": "flonum",
                    "maximum": 1.0,
                    "minimum": 0.0,
                    "numinlets": 1,
                    "numoutlets": 2,
                    "outlettype": [ "", "bang" ],
                    "parameter_enable": 0,
                    "patching_rect": [ 96.0, 166.0, 50.0, 23.0 ]
                }
            },
            {
                "box": {
                    "format": 6,
                    "id": "obj-11",
                    "maxclass": "flonum",
                    "maximum": 1.0,
                    "minimum": 0.0,
                    "numinlets": 1,
                    "numoutlets": 2,
                    "outlettype": [ "", "bang" ],
                    "parameter_enable": 0,
                    "patching_rect": [ 41.0, 166.0, 50.0, 23.0 ]
                }
            },
            {
                "box": {
                    "id": "obj-7",
                    "maxclass": "number",
                    "numinlets": 1,
                    "numoutlets": 2,
                    "outlettype": [ "", "bang" ],
                    "parameter_enable": 0,
                    "patching_rect": [ 159.25579157406054, 204.5, 50.0, 23.0 ]
                }
            },
            {
                "box": {
                    "bubble": 1,
                    "fontname": "Ableton Sans Medium",
                    "fontsize": 12.0,
                    "id": "obj-32",
                    "linecount": 3,
                    "maxclass": "comment",
                    "numinlets": 1,
                    "numoutlets": 0,
                    "patching_rect": [ 350.0, 275.5, 68.0, 54.0 ],
                    "text": "nodes random\nposition"
                }
            },
            {
                "box": {
                    "fontname": "Ableton Sans Medium",
                    "fontsize": 13.0,
                    "id": "obj-30",
                    "maxclass": "comment",
                    "numinlets": 1,
                    "numoutlets": 0,
                    "patching_rect": [ 9.0, 102.0, 171.0, 22.0 ],
                    "saved_attribute_attributes": {
                        "textcolor": {
                            "expression": "themecolor.live_control_fg_off_zombie"
                        }
                    },
                    "text": "Interpolate data graphically.",
                    "textcolor": [ 0.57636836783545, 0.576368229540612, 0.576368265679262, 1.0 ]
                }
            },
            {
                "box": {
                    "fontname": "Ableton Sans Medium",
                    "fontsize": 14.0,
                    "id": "obj-26",
                    "maxclass": "comment",
                    "numinlets": 1,
                    "numoutlets": 0,
                    "patching_rect": [ 9.0, 83.0, 105.0, 23.0 ],
                    "text": "A nodes object."
                }
            },
            {
                "box": {
                    "fontface": 0,
                    "fontname": "Ableton Sans Medium",
                    "fontsize": 54.0,
                    "id": "obj-24",
                    "maxclass": "comment",
                    "numinlets": 1,
                    "numoutlets": 0,
                    "patching_rect": [ 9.0, 9.0, 240.0, 71.0 ],
                    "text": "mo.nodes"
                }
            },
            {
                "box": {
                    "id": "obj-3",
                    "maxclass": "message",
                    "numinlets": 2,
                    "numoutlets": 1,
                    "outlettype": [ "" ],
                    "patching_rect": [ 306.25579157406054, 291.0, 33.0, 23.0 ],
                    "text": "rand"
                }
            },
            {
                "box": {
                    "bgmode": 0,
                    "border": 1,
                    "clickthrough": 0,
                    "enablehscroll": 0,
                    "enablevscroll": 0,
                    "id": "obj-13",
                    "lockeddragscroll": 0,
                    "lockedsize": 0,
                    "maxclass": "bpatcher",
                    "name": "mo.nodes.maxpat",
                    "numinlets": 1,
                    "numoutlets": 1,
                    "offset": [ 0.0, 0.0 ],
                    "outlettype": [ "" ],
                    "patching_rect": [ 41.0, 356.0, 214.0, 214.0 ],
                    "varname": "mo.nodes",
                    "viewvisibility": 1
                }
            }
        ],
        "lines": [
            {
                "patchline": {
                    "destination": [ "obj-13", 0 ],
                    "midpoints": [ 50.5, 228.0, 50.5, 228.0 ],
                    "source": [ "obj-10", 0 ]
                }
            },
            {
                "patchline": {
                    "destination": [ "obj-10", 0 ],
                    "midpoints": [ 50.5, 192.0, 50.5, 192.0 ],
                    "source": [ "obj-11", 0 ]
                }
            },
            {
                "patchline": {
                    "destination": [ "obj-9", 1 ],
                    "midpoints": [ 50.5, 591.0, 257.5, 591.0 ],
                    "source": [ "obj-13", 0 ]
                }
            },
            {
                "patchline": {
                    "destination": [ "obj-4", 0 ],
                    "midpoints": [ 224.75579157406054, 267.0, 224.75579157406054, 267.0 ],
                    "source": [ "obj-2", 0 ]
                }
            },
            {
                "patchline": {
                    "destination": [ "obj-13", 0 ],
                    "midpoints": [ 315.75579157406054, 342.0, 50.5, 342.0 ],
                    "source": [ "obj-3", 0 ]
                }
            },
            {
                "patchline": {
                    "destination": [ "obj-13", 0 ],
                    "midpoints": [ 224.75579157406054, 342.0, 50.5, 342.0 ],
                    "source": [ "obj-4", 0 ]
                }
            },
            {
                "patchline": {
                    "destination": [ "obj-10", 1 ],
                    "midpoints": [ 105.5, 192.0, 105.5, 192.0 ],
                    "source": [ "obj-6", 0 ]
                }
            },
            {
                "patchline": {
                    "destination": [ "obj-13", 0 ],
                    "midpoints": [ 168.75579157406054, 342.0, 50.5, 342.0 ],
                    "source": [ "obj-7", 0 ]
                }
            }
        ],
        "parameters": {
            "obj-13::obj-13": [ "live.text[26]", "live.text", 0 ],
            "obj-13::obj-3": [ "live.text[716]", "live.text", 0 ],
            "obj-13::obj-56": [ "live.numbox[660]", "live.numbox", 0 ],
            "obj-13::obj-6": [ "live.text[25]", "live.text", 0 ],
            "obj-13::obj-9": [ "multislider[3]", "multislider[2]", 0 ],
            "inherited_shortname": 1
        },
        "autosave": 0
    }
}