{
	"patcher" : 	{
		"fileversion" : 1,
		"appversion" : 		{
			"major" : 8,
			"minor" : 5,
			"revision" : 5,
			"architecture" : "x64",
			"modernui" : 1
		}
,
		"classnamespace" : "box",
		"rect" : [ 34.0, 100.0, 562.0, 618.0 ],
		"bglocked" : 0,
		"openinpresentation" : 1,
		"default_fontsize" : 12.0,
		"default_fontface" : 0,
		"default_fontname" : "Ableton Sans Medium",
		"gridonopen" : 1,
		"gridsize" : [ 15.0, 15.0 ],
		"gridsnaponopen" : 1,
		"objectsnaponopen" : 1,
		"statusbarvisible" : 2,
		"toolbarvisible" : 1,
		"lefttoolbarpinned" : 0,
		"toptoolbarpinned" : 0,
		"righttoolbarpinned" : 0,
		"bottomtoolbarpinned" : 0,
		"toolbars_unpinned_last_save" : 0,
		"tallnewobj" : 0,
		"boxanimatetime" : 200,
		"enablehscroll" : 1,
		"enablevscroll" : 1,
		"devicewidth" : 0.0,
		"description" : "",
		"digest" : "",
		"tags" : "",
		"style" : "",
		"subpatcher_template" : "",
		"assistshowspatchername" : 0,
		"boxes" : [ 			{
				"box" : 				{
					"id" : "obj-45",
					"maxclass" : "newobj",
					"numinlets" : 2,
					"numoutlets" : 1,
					"outlettype" : [ "float" ],
					"patching_rect" : [ 631.0, 248.235243055555515, 29.5, 23.0 ],
					"text" : "- 1."
				}

			}
, 			{
				"box" : 				{
					"id" : "obj-46",
					"maxclass" : "newobj",
					"numinlets" : 2,
					"numoutlets" : 1,
					"outlettype" : [ "float" ],
					"patching_rect" : [ 631.0, 215.1475694444444, 29.5, 23.0 ],
					"text" : "* 2."
				}

			}
, 			{
				"box" : 				{
					"id" : "obj-47",
					"maxclass" : "newobj",
					"numinlets" : 2,
					"numoutlets" : 1,
					"outlettype" : [ "float" ],
					"patching_rect" : [ 631.0, 182.059895833333286, 42.0, 23.0 ],
					"text" : "/ 127."
				}

			}
, 			{
				"box" : 				{
					"id" : "obj-48",
					"maxclass" : "newobj",
					"numinlets" : 2,
					"numoutlets" : 1,
					"outlettype" : [ "float" ],
					"patching_rect" : [ 559.0, 248.235243055555515, 29.5, 23.0 ],
					"text" : "- 1."
				}

			}
, 			{
				"box" : 				{
					"id" : "obj-49",
					"maxclass" : "newobj",
					"numinlets" : 2,
					"numoutlets" : 1,
					"outlettype" : [ "float" ],
					"patching_rect" : [ 559.0, 215.1475694444444, 29.5, 23.0 ],
					"text" : "* 2."
				}

			}
, 			{
				"box" : 				{
					"id" : "obj-50",
					"maxclass" : "newobj",
					"numinlets" : 2,
					"numoutlets" : 1,
					"outlettype" : [ "float" ],
					"patching_rect" : [ 559.0, 182.059895833333286, 42.0, 23.0 ],
					"text" : "/ 127."
				}

			}
, 			{
				"box" : 				{
					"id" : "obj-42",
					"maxclass" : "newobj",
					"numinlets" : 2,
					"numoutlets" : 1,
					"outlettype" : [ "float" ],
					"patching_rect" : [ 487.0, 248.235243055555515, 29.5, 23.0 ],
					"text" : "- 1."
				}

			}
, 			{
				"box" : 				{
					"id" : "obj-43",
					"maxclass" : "newobj",
					"numinlets" : 2,
					"numoutlets" : 1,
					"outlettype" : [ "float" ],
					"patching_rect" : [ 487.0, 215.1475694444444, 29.5, 23.0 ],
					"text" : "* 2."
				}

			}
, 			{
				"box" : 				{
					"id" : "obj-44",
					"maxclass" : "newobj",
					"numinlets" : 2,
					"numoutlets" : 1,
					"outlettype" : [ "float" ],
					"patching_rect" : [ 487.0, 182.059895833333286, 42.0, 23.0 ],
					"text" : "/ 127."
				}

			}
, 			{
				"box" : 				{
					"id" : "obj-40",
					"maxclass" : "newobj",
					"numinlets" : 2,
					"numoutlets" : 1,
					"outlettype" : [ "float" ],
					"patching_rect" : [ 415.0, 248.235243055555515, 29.5, 23.0 ],
					"text" : "- 1."
				}

			}
, 			{
				"box" : 				{
					"id" : "obj-41",
					"maxclass" : "newobj",
					"numinlets" : 2,
					"numoutlets" : 1,
					"outlettype" : [ "float" ],
					"patching_rect" : [ 415.0, 215.1475694444444, 29.5, 23.0 ],
					"text" : "* 2."
				}

			}
, 			{
				"box" : 				{
					"id" : "obj-21",
					"maxclass" : "newobj",
					"numinlets" : 2,
					"numoutlets" : 1,
					"outlettype" : [ "float" ],
					"patching_rect" : [ 415.0, 182.059895833333286, 42.0, 23.0 ],
					"text" : "/ 127."
				}

			}
, 			{
				"box" : 				{
					"id" : "obj-20",
					"maxclass" : "newobj",
					"numinlets" : 2,
					"numoutlets" : 1,
					"outlettype" : [ "float" ],
					"patching_rect" : [ 255.0, 182.059895833333286, 42.0, 23.0 ],
					"text" : "/ 127."
				}

			}
, 			{
				"box" : 				{
					"id" : "obj-17",
					"maxclass" : "newobj",
					"numinlets" : 2,
					"numoutlets" : 1,
					"outlettype" : [ "float" ],
					"patching_rect" : [ 183.0, 182.059895833333286, 42.0, 23.0 ],
					"text" : "/ 127."
				}

			}
, 			{
				"box" : 				{
					"id" : "obj-9",
					"maxclass" : "newobj",
					"numinlets" : 2,
					"numoutlets" : 1,
					"outlettype" : [ "float" ],
					"patching_rect" : [ 111.0, 182.059895833333286, 42.0, 23.0 ],
					"text" : "/ 127."
				}

			}
, 			{
				"box" : 				{
					"id" : "obj-8",
					"maxclass" : "newobj",
					"numinlets" : 2,
					"numoutlets" : 1,
					"outlettype" : [ "float" ],
					"patching_rect" : [ 39.0, 182.059895833333286, 42.0, 23.0 ],
					"text" : "/ 127."
				}

			}
, 			{
				"box" : 				{
					"args" : [ "@device", "vibrato" ],
					"bgmode" : 0,
					"border" : 1,
					"clickthrough" : 0,
					"enablehscroll" : 0,
					"enablevscroll" : 0,
					"id" : "obj-7",
					"lockeddragscroll" : 0,
					"lockedsize" : 0,
					"maxclass" : "bpatcher",
					"name" : "mo.vslider.maxpat",
					"numinlets" : 2,
					"numoutlets" : 1,
					"offset" : [ 0.0, 0.0 ],
					"outlettype" : [ "" ],
					"patching_rect" : [ 631.0, 281.322916666666629, 70.0, 265.0 ],
					"presentation" : 1,
					"presentation_rect" : [ 230.0, 87.571428571428584, 70.0, 265.0 ],
					"varname" : "mo.slider[3]",
					"viewvisibility" : 1
				}

			}
, 			{
				"box" : 				{
					"args" : [ "@mode", 1, "@device", "tap" ],
					"bgmode" : 0,
					"border" : 1,
					"clickthrough" : 0,
					"enablehscroll" : 0,
					"enablevscroll" : 0,
					"id" : "obj-3",
					"lockeddragscroll" : 0,
					"lockedsize" : 0,
					"maxclass" : "bpatcher",
					"name" : "mo.pad.maxpat",
					"numinlets" : 2,
					"numoutlets" : 1,
					"offset" : [ 0.0, 0.0 ],
					"outlettype" : [ "" ],
					"patching_rect" : [ 255.0, 281.322916666666629, 70.0, 87.0 ],
					"presentation" : 1,
					"presentation_rect" : [ 230.0, 354.571428571428555, 70.0, 87.0 ],
					"varname" : "mo.pad[3]",
					"viewvisibility" : 1
				}

			}
, 			{
				"box" : 				{
					"id" : "obj-201",
					"maxclass" : "newobj",
					"numinlets" : 5,
					"numoutlets" : 5,
					"outlettype" : [ "", "", "", "", "" ],
					"patching_rect" : [ 39.0, 148.972222222222172, 307.0, 23.0 ],
					"text" : "route 0 2 4 21"
				}

			}
, 			{
				"box" : 				{
					"id" : "obj-24",
					"maxclass" : "newobj",
					"numinlets" : 5,
					"numoutlets" : 5,
					"outlettype" : [ "", "", "", "", "" ],
					"patching_rect" : [ 415.0, 148.972222222222172, 307.0, 23.0 ],
					"text" : "route 17 19 18 20"
				}

			}
, 			{
				"box" : 				{
					"bgmode" : 0,
					"border" : 1,
					"clickthrough" : 0,
					"enablehscroll" : 0,
					"enablevscroll" : 0,
					"id" : "obj-18",
					"lockeddragscroll" : 0,
					"lockedsize" : 0,
					"maxclass" : "bpatcher",
					"name" : "mo.send.maxpat",
					"numinlets" : 2,
					"numoutlets" : 0,
					"offset" : [ 0.0, 0.0 ],
					"patching_rect" : [ 39.0, 592.322916666666629, 142.0, 57.5 ],
					"presentation" : 1,
					"presentation_rect" : [ 158.0, 443.571428571428555, 142.0, 57.5 ],
					"varname" : "mo.send[1]",
					"viewvisibility" : 1
				}

			}
, 			{
				"box" : 				{
					"id" : "obj-19",
					"maxclass" : "newobj",
					"numinlets" : 4,
					"numoutlets" : 1,
					"outlettype" : [ "" ],
					"patching_rect" : [ 39.0, 557.322916666666629, 235.0, 23.0 ],
					"text" : "join 4 @triggers -1"
				}

			}
, 			{
				"box" : 				{
					"args" : [ "@device", "low" ],
					"bgmode" : 0,
					"border" : 1,
					"clickthrough" : 0,
					"enablehscroll" : 0,
					"enablevscroll" : 0,
					"id" : "obj-16",
					"lockeddragscroll" : 0,
					"lockedsize" : 0,
					"maxclass" : "bpatcher",
					"name" : "mo.pad.maxpat",
					"numinlets" : 2,
					"numoutlets" : 1,
					"offset" : [ 0.0, 0.0 ],
					"outlettype" : [ "" ],
					"patching_rect" : [ 183.0, 281.322916666666629, 70.0, 87.0 ],
					"presentation" : 1,
					"presentation_rect" : [ 158.0, 354.571428571428555, 70.0, 87.0 ],
					"varname" : "mo.pad[2]",
					"viewvisibility" : 1
				}

			}
, 			{
				"box" : 				{
					"args" : [ "@device", "mid" ],
					"bgmode" : 0,
					"border" : 1,
					"clickthrough" : 0,
					"enablehscroll" : 0,
					"enablevscroll" : 0,
					"id" : "obj-10",
					"lockeddragscroll" : 0,
					"lockedsize" : 0,
					"maxclass" : "bpatcher",
					"name" : "mo.pad.maxpat",
					"numinlets" : 2,
					"numoutlets" : 1,
					"offset" : [ 0.0, 0.0 ],
					"outlettype" : [ "" ],
					"patching_rect" : [ 111.0, 281.322916666666629, 70.0, 87.0 ],
					"presentation" : 1,
					"presentation_rect" : [ 86.0, 354.571428571428555, 70.0, 87.0 ],
					"varname" : "mo.pad[1]",
					"viewvisibility" : 1
				}

			}
, 			{
				"box" : 				{
					"bgmode" : 0,
					"border" : 1,
					"clickthrough" : 0,
					"enablehscroll" : 0,
					"enablevscroll" : 0,
					"id" : "obj-11",
					"lockeddragscroll" : 0,
					"lockedsize" : 0,
					"maxclass" : "bpatcher",
					"name" : "mo.send.maxpat",
					"numinlets" : 2,
					"numoutlets" : 0,
					"offset" : [ 0.0, 0.0 ],
					"patching_rect" : [ 415.0, 592.322916666666629, 142.0, 57.5 ],
					"presentation" : 1,
					"presentation_rect" : [ 14.0, 443.571428571428555, 142.0, 57.5 ],
					"varname" : "mo.send",
					"viewvisibility" : 1
				}

			}
, 			{
				"box" : 				{
					"id" : "obj-2",
					"maxclass" : "newobj",
					"numinlets" : 4,
					"numoutlets" : 1,
					"outlettype" : [ "" ],
					"patching_rect" : [ 415.0, 557.322916666666629, 235.0, 23.0 ],
					"text" : "join 4 @triggers -1"
				}

			}
, 			{
				"box" : 				{
					"bgcolor" : [ 1.0, 0.788235, 0.470588, 1.0 ],
					"bgoncolor" : [ 0.55, 0.55, 0.55, 1.0 ],
					"fontname" : "Ableton Sans Medium",
					"fontsize" : 10.0,
					"hint" : "",
					"id" : "obj-14",
					"ignoreclick" : 1,
					"legacytextcolor" : 1,
					"maxclass" : "textbutton",
					"numinlets" : 1,
					"numoutlets" : 3,
					"outlettype" : [ "", "", "int" ],
					"parameter_enable" : 0,
					"patching_rect" : [ 1079.666666666666742, 143.0, 20.0, 20.0 ],
					"presentation" : 1,
					"presentation_rect" : [ 438.666666666666742, 49.307379284060289, 20.0, 20.0 ],
					"rounded" : 60.0,
					"text" : "1",
					"textcolor" : [ 0.34902, 0.34902, 0.34902, 1.0 ],
					"textoncolor" : [ 1.0, 1.0, 1.0, 1.0 ],
					"textovercolor" : [ 0.1, 0.1, 0.1, 1.0 ],
					"usebgoncolor" : 1,
					"usetextovercolor" : 1
				}

			}
, 			{
				"box" : 				{
					"fontface" : 1,
					"fontname" : "Ableton Sans Bold Regular",
					"id" : "obj-12",
					"linecount" : 7,
					"maxclass" : "comment",
					"numinlets" : 1,
					"numoutlets" : 0,
					"patching_rect" : [ 1022.0, 188.350694444444457, 342.0, 107.0 ],
					"presentation" : 1,
					"presentation_linecount" : 6,
					"presentation_rect" : [ 14.0, 513.5, 368.0, 93.0 ],
					"text" : "INSTRUCTIONS:\n\n1. Open the Software app, and load the a preset.\n2. Open Audio MIDI Setup.app and connect the ring via Bluetooth.\n3. Set the MIDI input device to be the Genki \"Wave\" ring.\n3. (Optional) Send data to a sound device."
				}

			}
, 			{
				"box" : 				{
					"bubble" : 1,
					"id" : "obj-32",
					"maxclass" : "comment",
					"numinlets" : 1,
					"numoutlets" : 0,
					"patching_rect" : [ 294.666666666666742, 88.0, 79.0, 25.0 ],
					"presentation" : 1,
					"presentation_rect" : [ 261.166666666666742, 45.356455599544006, 79.0, 25.0 ],
					"text" : "set device",
					"textjustification" : 1
				}

			}
, 			{
				"box" : 				{
					"bgcolor" : [ 1.0, 0.788235, 0.470588, 1.0 ],
					"bgoncolor" : [ 0.55, 0.55, 0.55, 1.0 ],
					"fontname" : "Ableton Sans Medium",
					"fontsize" : 10.0,
					"hint" : "",
					"id" : "obj-33",
					"ignoreclick" : 1,
					"legacytextcolor" : 1,
					"maxclass" : "textbutton",
					"numinlets" : 1,
					"numoutlets" : 3,
					"outlettype" : [ "", "", "int" ],
					"parameter_enable" : 0,
					"patching_rect" : [ 266.666666666666742, 90.5, 20.0, 20.0 ],
					"presentation" : 1,
					"presentation_rect" : [ 237.11886337647843, 47.856455599544006, 20.0, 20.0 ],
					"rounded" : 60.0,
					"text" : "2",
					"textcolor" : [ 0.34902, 0.34902, 0.34902, 1.0 ],
					"textoncolor" : [ 1.0, 1.0, 1.0, 1.0 ],
					"textovercolor" : [ 0.1, 0.1, 0.1, 1.0 ],
					"usebgoncolor" : 1,
					"usetextovercolor" : 1
				}

			}
, 			{
				"box" : 				{
					"bubble" : 1,
					"id" : "obj-13",
					"maxclass" : "comment",
					"numinlets" : 1,
					"numoutlets" : 0,
					"patching_rect" : [ 1105.5, 141.0, 85.0, 25.0 ],
					"presentation" : 1,
					"presentation_rect" : [ 464.5, 45.356455599544006, 85.0, 25.0 ],
					"text" : "load preset",
					"textjustification" : 1
				}

			}
, 			{
				"box" : 				{
					"id" : "obj-5",
					"maxclass" : "message",
					"numinlets" : 2,
					"numoutlets" : 1,
					"outlettype" : [ "" ],
					"patching_rect" : [ 1022.0, 19.0, 65.0, 23.0 ],
					"text" : "writeagain"
				}

			}
, 			{
				"box" : 				{
					"autorestore" : "p-wave.json",
					"id" : "obj-35",
					"maxclass" : "newobj",
					"numinlets" : 1,
					"numoutlets" : 1,
					"outlettype" : [ "" ],
					"patching_rect" : [ 1022.0, 73.0, 374.0, 23.0 ],
					"saved_object_attributes" : 					{
						"client_rect" : [ 249, 100, 603, 228 ],
						"parameter_enable" : 0,
						"parameter_mappable" : 0,
						"storage_rect" : [ 249, 100, 700, 228 ]
					}
,
					"text" : "pattrstorage p-wave @savemode 3 @autorestore 1 @changemode 1",
					"varname" : "p-wave"
				}

			}
, 			{
				"box" : 				{
					"bubblesize" : 20,
					"id" : "obj-36",
					"maxclass" : "preset",
					"numinlets" : 1,
					"numoutlets" : 5,
					"outlettype" : [ "preset", "int", "preset", "int", "" ],
					"patching_rect" : [ 1022.0, 138.0, 53.0, 30.0 ],
					"pattrstorage" : "p-wave",
					"presentation" : 1,
					"presentation_rect" : [ 377.0, 43.356455599544006, 53.0, 29.0 ]
				}

			}
, 			{
				"box" : 				{
					"args" : [ "@device", "roll" ],
					"bgmode" : 0,
					"border" : 1,
					"clickthrough" : 0,
					"enablehscroll" : 0,
					"enablevscroll" : 0,
					"id" : "obj-28",
					"lockeddragscroll" : 0,
					"lockedsize" : 0,
					"maxclass" : "bpatcher",
					"name" : "mo.vslider.maxpat",
					"numinlets" : 2,
					"numoutlets" : 1,
					"offset" : [ 0.0, 0.0 ],
					"outlettype" : [ "" ],
					"patching_rect" : [ 487.0, 281.322916666666686, 70.0, 265.0 ],
					"presentation" : 1,
					"presentation_rect" : [ 86.0, 87.571428571428584, 70.0, 265.0 ],
					"varname" : "mo.slider[1]",
					"viewvisibility" : 1
				}

			}
, 			{
				"box" : 				{
					"args" : [ "@device", "yaw" ],
					"bgmode" : 0,
					"border" : 1,
					"clickthrough" : 0,
					"enablehscroll" : 0,
					"enablevscroll" : 0,
					"id" : "obj-25",
					"lockeddragscroll" : 0,
					"lockedsize" : 0,
					"maxclass" : "bpatcher",
					"name" : "mo.vslider.maxpat",
					"numinlets" : 2,
					"numoutlets" : 1,
					"offset" : [ 0.0, 0.0 ],
					"outlettype" : [ "" ],
					"patching_rect" : [ 559.0, 281.322916666666629, 70.0, 265.0 ],
					"presentation" : 1,
					"presentation_rect" : [ 158.0, 87.571428571428584, 70.0, 265.0 ],
					"varname" : "mo.slider[2]",
					"viewvisibility" : 1
				}

			}
, 			{
				"box" : 				{
					"args" : [ "@device", "high" ],
					"bgmode" : 0,
					"border" : 1,
					"clickthrough" : 0,
					"enablehscroll" : 0,
					"enablevscroll" : 0,
					"id" : "obj-15",
					"lockeddragscroll" : 0,
					"lockedsize" : 0,
					"maxclass" : "bpatcher",
					"name" : "mo.pad.maxpat",
					"numinlets" : 2,
					"numoutlets" : 1,
					"offset" : [ 0.0, 0.0 ],
					"outlettype" : [ "" ],
					"patching_rect" : [ 39.0, 281.322916666666629, 70.0, 87.0 ],
					"presentation" : 1,
					"presentation_rect" : [ 14.0, 354.571428571428555, 70.0, 87.0 ],
					"varname" : "mo.pad",
					"viewvisibility" : 1
				}

			}
, 			{
				"box" : 				{
					"id" : "obj-6",
					"maxclass" : "newobj",
					"numinlets" : 1,
					"numoutlets" : 1,
					"outlettype" : [ "" ],
					"patching_rect" : [ 39.0, 19.0, 99.0, 23.0 ],
					"text" : "loadmess refresh"
				}

			}
, 			{
				"box" : 				{
					"args" : [ "@device", "pitch" ],
					"bgmode" : 0,
					"border" : 1,
					"clickthrough" : 0,
					"enablehscroll" : 0,
					"enablevscroll" : 0,
					"id" : "obj-4",
					"lockeddragscroll" : 0,
					"lockedsize" : 0,
					"maxclass" : "bpatcher",
					"name" : "mo.vslider.maxpat",
					"numinlets" : 2,
					"numoutlets" : 1,
					"offset" : [ 0.0, 0.0 ],
					"outlettype" : [ "" ],
					"patching_rect" : [ 415.0, 281.322916666666629, 70.0, 265.0 ],
					"presentation" : 1,
					"presentation_rect" : [ 14.0, 87.571428571428584, 70.0, 265.0 ],
					"varname" : "mo.vslider",
					"viewvisibility" : 1
				}

			}
, 			{
				"box" : 				{
					"bgmode" : 0,
					"border" : 1,
					"clickthrough" : 0,
					"enablehscroll" : 0,
					"enablevscroll" : 0,
					"id" : "obj-1",
					"lockeddragscroll" : 0,
					"lockedsize" : 0,
					"maxclass" : "bpatcher",
					"name" : "mo.midiin.maxpat",
					"numinlets" : 1,
					"numoutlets" : 9,
					"offset" : [ 0.0, 0.0 ],
					"outlettype" : [ "", "", "", "int", "int", "", "int", "", "" ],
					"patching_rect" : [ 39.0, 55.75, 214.0, 57.5 ],
					"presentation" : 1,
					"presentation_rect" : [ 14.0, 13.071428571428584, 214.0, 57.5 ],
					"varname" : "mo.hi",
					"viewvisibility" : 1
				}

			}
 ],
		"lines" : [ 			{
				"patchline" : 				{
					"destination" : [ "obj-201", 0 ],
					"midpoints" : [ 48.5, 114.0, 48.5, 114.0 ],
					"source" : [ "obj-1", 0 ]
				}

			}
, 			{
				"patchline" : 				{
					"destination" : [ "obj-24", 0 ],
					"midpoints" : [ 72.875, 135.0, 424.5, 135.0 ],
					"source" : [ "obj-1", 1 ]
				}

			}
, 			{
				"patchline" : 				{
					"destination" : [ "obj-19", 1 ],
					"midpoints" : [ 120.5, 369.0, 120.5, 369.0 ],
					"source" : [ "obj-10", 0 ]
				}

			}
, 			{
				"patchline" : 				{
					"destination" : [ "obj-19", 0 ],
					"midpoints" : [ 48.5, 369.0, 48.5, 369.0 ],
					"source" : [ "obj-15", 0 ]
				}

			}
, 			{
				"patchline" : 				{
					"destination" : [ "obj-19", 2 ],
					"midpoints" : [ 192.5, 369.0, 192.5, 369.0 ],
					"source" : [ "obj-16", 0 ]
				}

			}
, 			{
				"patchline" : 				{
					"destination" : [ "obj-16", 0 ],
					"midpoints" : [ 192.5, 216.0, 192.5, 216.0 ],
					"source" : [ "obj-17", 0 ]
				}

			}
, 			{
				"patchline" : 				{
					"destination" : [ "obj-18", 0 ],
					"midpoints" : [ 48.5, 582.0, 48.5, 582.0 ],
					"source" : [ "obj-19", 0 ]
				}

			}
, 			{
				"patchline" : 				{
					"destination" : [ "obj-11", 0 ],
					"midpoints" : [ 424.5, 582.0, 424.5, 582.0 ],
					"source" : [ "obj-2", 0 ]
				}

			}
, 			{
				"patchline" : 				{
					"destination" : [ "obj-3", 0 ],
					"midpoints" : [ 264.5, 216.0, 264.5, 216.0 ],
					"source" : [ "obj-20", 0 ]
				}

			}
, 			{
				"patchline" : 				{
					"destination" : [ "obj-17", 0 ],
					"midpoints" : [ 192.5, 174.0, 192.5, 174.0 ],
					"source" : [ "obj-201", 2 ]
				}

			}
, 			{
				"patchline" : 				{
					"destination" : [ "obj-20", 0 ],
					"midpoints" : [ 264.5, 174.0, 264.5, 174.0 ],
					"source" : [ "obj-201", 3 ]
				}

			}
, 			{
				"patchline" : 				{
					"destination" : [ "obj-8", 0 ],
					"midpoints" : [ 48.5, 174.0, 48.5, 174.0 ],
					"source" : [ "obj-201", 0 ]
				}

			}
, 			{
				"patchline" : 				{
					"destination" : [ "obj-9", 0 ],
					"midpoints" : [ 120.5, 174.0, 120.5, 174.0 ],
					"source" : [ "obj-201", 1 ]
				}

			}
, 			{
				"patchline" : 				{
					"destination" : [ "obj-41", 0 ],
					"source" : [ "obj-21", 0 ]
				}

			}
, 			{
				"patchline" : 				{
					"destination" : [ "obj-21", 0 ],
					"midpoints" : [ 424.5, 174.0, 424.5, 174.0 ],
					"source" : [ "obj-24", 0 ]
				}

			}
, 			{
				"patchline" : 				{
					"destination" : [ "obj-44", 0 ],
					"source" : [ "obj-24", 1 ]
				}

			}
, 			{
				"patchline" : 				{
					"destination" : [ "obj-47", 0 ],
					"source" : [ "obj-24", 3 ]
				}

			}
, 			{
				"patchline" : 				{
					"destination" : [ "obj-50", 0 ],
					"source" : [ "obj-24", 2 ]
				}

			}
, 			{
				"patchline" : 				{
					"destination" : [ "obj-2", 2 ],
					"midpoints" : [ 568.5, 549.0, 568.5, 549.0 ],
					"source" : [ "obj-25", 0 ]
				}

			}
, 			{
				"patchline" : 				{
					"destination" : [ "obj-2", 1 ],
					"midpoints" : [ 496.5, 549.0, 496.5, 549.0 ],
					"source" : [ "obj-28", 0 ]
				}

			}
, 			{
				"patchline" : 				{
					"destination" : [ "obj-19", 3 ],
					"midpoints" : [ 264.5, 369.0, 264.5, 369.0 ],
					"source" : [ "obj-3", 0 ]
				}

			}
, 			{
				"patchline" : 				{
					"destination" : [ "obj-2", 0 ],
					"midpoints" : [ 424.5, 549.0, 424.5, 549.0 ],
					"source" : [ "obj-4", 0 ]
				}

			}
, 			{
				"patchline" : 				{
					"destination" : [ "obj-4", 0 ],
					"source" : [ "obj-40", 0 ]
				}

			}
, 			{
				"patchline" : 				{
					"destination" : [ "obj-40", 0 ],
					"source" : [ "obj-41", 0 ]
				}

			}
, 			{
				"patchline" : 				{
					"destination" : [ "obj-28", 0 ],
					"source" : [ "obj-42", 0 ]
				}

			}
, 			{
				"patchline" : 				{
					"destination" : [ "obj-42", 0 ],
					"source" : [ "obj-43", 0 ]
				}

			}
, 			{
				"patchline" : 				{
					"destination" : [ "obj-43", 0 ],
					"source" : [ "obj-44", 0 ]
				}

			}
, 			{
				"patchline" : 				{
					"destination" : [ "obj-7", 0 ],
					"source" : [ "obj-45", 0 ]
				}

			}
, 			{
				"patchline" : 				{
					"destination" : [ "obj-45", 0 ],
					"source" : [ "obj-46", 0 ]
				}

			}
, 			{
				"patchline" : 				{
					"destination" : [ "obj-46", 0 ],
					"source" : [ "obj-47", 0 ]
				}

			}
, 			{
				"patchline" : 				{
					"destination" : [ "obj-25", 0 ],
					"source" : [ "obj-48", 0 ]
				}

			}
, 			{
				"patchline" : 				{
					"destination" : [ "obj-48", 0 ],
					"source" : [ "obj-49", 0 ]
				}

			}
, 			{
				"patchline" : 				{
					"destination" : [ "obj-35", 0 ],
					"midpoints" : [ 1031.5, 45.0, 1031.5, 45.0 ],
					"source" : [ "obj-5", 0 ]
				}

			}
, 			{
				"patchline" : 				{
					"destination" : [ "obj-49", 0 ],
					"source" : [ "obj-50", 0 ]
				}

			}
, 			{
				"patchline" : 				{
					"destination" : [ "obj-1", 0 ],
					"midpoints" : [ 48.5, 45.0, 48.5, 45.0 ],
					"source" : [ "obj-6", 0 ]
				}

			}
, 			{
				"patchline" : 				{
					"destination" : [ "obj-2", 3 ],
					"midpoints" : [ 640.5, 549.0, 640.5, 549.0 ],
					"source" : [ "obj-7", 0 ]
				}

			}
, 			{
				"patchline" : 				{
					"destination" : [ "obj-15", 0 ],
					"midpoints" : [ 48.5, 216.0, 48.5, 216.0 ],
					"source" : [ "obj-8", 0 ]
				}

			}
, 			{
				"patchline" : 				{
					"destination" : [ "obj-10", 0 ],
					"midpoints" : [ 120.5, 216.0, 120.5, 216.0 ],
					"source" : [ "obj-9", 0 ]
				}

			}
 ],
		"parameters" : 		{
			"obj-10::obj-2" : [ "live.text[90]", "live.text", 0 ],
			"obj-10::obj-37" : [ "live.text[91]", "live.text", 0 ],
			"obj-10::obj-6" : [ "live.text[92]", "live.text", 0 ],
			"obj-11::obj-153" : [ "live.text[140]", "live.text", 0 ],
			"obj-15::obj-2" : [ "live.text[94]", "live.text", 0 ],
			"obj-15::obj-37" : [ "live.text[96]", "live.text", 0 ],
			"obj-15::obj-6" : [ "live.text[95]", "live.text", 0 ],
			"obj-16::obj-2" : [ "live.text[58]", "live.text", 0 ],
			"obj-16::obj-37" : [ "live.text[60]", "live.text", 0 ],
			"obj-16::obj-6" : [ "live.text[59]", "live.text", 0 ],
			"obj-18::obj-153" : [ "live.text[6]", "live.text", 0 ],
			"obj-1::obj-15" : [ "live.text[80]", "live.text", 0 ],
			"obj-1::obj-19" : [ "live.text[27]", "live.text", 0 ],
			"obj-1::obj-36" : [ "live.text[52]", "live.text", 0 ],
			"obj-1::obj-41" : [ "live.button[1]", "live.button", 0 ],
			"obj-1::obj-72" : [ "live.numbox[37]", "live.numbox", 0 ],
			"obj-25::obj-3" : [ "slider-[6]", "slider-", 0 ],
			"obj-25::obj-35" : [ "live.text[23]", "live.text", 0 ],
			"obj-25::obj-7" : [ "live.text[24]", "live.text", 0 ],
			"obj-28::obj-3" : [ "slider-[5]", "slider-", 0 ],
			"obj-28::obj-35" : [ "live.text[21]", "live.text", 0 ],
			"obj-28::obj-7" : [ "live.text[22]", "live.text", 0 ],
			"obj-3::obj-2" : [ "live.text[8]", "live.text", 0 ],
			"obj-3::obj-37" : [ "live.text[9]", "live.text", 0 ],
			"obj-3::obj-6" : [ "live.text[11]", "live.text", 0 ],
			"obj-4::obj-3" : [ "slider-[1]", "slider-", 0 ],
			"obj-4::obj-35" : [ "live.text[4]", "live.text", 0 ],
			"obj-4::obj-7" : [ "live.text[5]", "live.text", 0 ],
			"obj-7::obj-3" : [ "slider-[7]", "slider-", 0 ],
			"obj-7::obj-35" : [ "live.text[12]", "live.text", 0 ],
			"obj-7::obj-7" : [ "live.text[13]", "live.text", 0 ],
			"parameterbanks" : 			{
				"0" : 				{
					"index" : 0,
					"name" : "",
					"parameters" : [ "-", "-", "-", "-", "-", "-", "-", "-" ]
				}

			}
,
			"parameter_overrides" : 			{
				"obj-10::obj-2" : 				{
					"parameter_longname" : "live.text[90]"
				}
,
				"obj-10::obj-37" : 				{
					"parameter_longname" : "live.text[91]"
				}
,
				"obj-10::obj-6" : 				{
					"parameter_longname" : "live.text[92]"
				}
,
				"obj-15::obj-2" : 				{
					"parameter_longname" : "live.text[94]"
				}
,
				"obj-15::obj-37" : 				{
					"parameter_longname" : "live.text[96]"
				}
,
				"obj-15::obj-6" : 				{
					"parameter_longname" : "live.text[95]"
				}
,
				"obj-16::obj-2" : 				{
					"parameter_longname" : "live.text[58]"
				}
,
				"obj-16::obj-37" : 				{
					"parameter_longname" : "live.text[60]"
				}
,
				"obj-16::obj-6" : 				{
					"parameter_longname" : "live.text[59]"
				}
,
				"obj-18::obj-153" : 				{
					"parameter_longname" : "live.text[6]"
				}
,
				"obj-1::obj-15" : 				{
					"parameter_longname" : "live.text[80]"
				}
,
				"obj-1::obj-19" : 				{
					"parameter_longname" : "live.text[27]"
				}
,
				"obj-1::obj-36" : 				{
					"parameter_invisible" : 0,
					"parameter_longname" : "live.text[52]",
					"parameter_modmode" : 0,
					"parameter_type" : 2,
					"parameter_unitstyle" : 10
				}
,
				"obj-1::obj-41" : 				{
					"parameter_longname" : "live.button[1]"
				}
,
				"obj-25::obj-35" : 				{
					"parameter_longname" : "live.text[23]"
				}
,
				"obj-25::obj-7" : 				{
					"parameter_longname" : "live.text[24]"
				}
,
				"obj-28::obj-35" : 				{
					"parameter_longname" : "live.text[21]"
				}
,
				"obj-28::obj-7" : 				{
					"parameter_longname" : "live.text[22]"
				}
,
				"obj-3::obj-2" : 				{
					"parameter_longname" : "live.text[8]"
				}
,
				"obj-3::obj-37" : 				{
					"parameter_longname" : "live.text[9]"
				}
,
				"obj-3::obj-6" : 				{
					"parameter_longname" : "live.text[11]"
				}
,
				"obj-7::obj-35" : 				{
					"parameter_longname" : "live.text[12]"
				}
,
				"obj-7::obj-7" : 				{
					"parameter_longname" : "live.text[13]"
				}

			}
,
			"inherited_shortname" : 1
		}
,
		"dependency_cache" : [ 			{
				"name" : "lock.svg",
				"bootpath" : "C74:/interfaces",
				"type" : "svg",
				"implicit" : 1
			}
, 			{
				"name" : "mo.midiin.maxpat",
				"bootpath" : "~/Documents/Max 8/Packages/modulo/patchers/input",
				"patcherrelativepath" : "../../patchers/input",
				"type" : "JSON",
				"implicit" : 1
			}
, 			{
				"name" : "mo.pad.maxpat",
				"bootpath" : "~/Documents/Max 8/Packages/modulo/patchers/input",
				"patcherrelativepath" : "../../patchers/input",
				"type" : "JSON",
				"implicit" : 1
			}
, 			{
				"name" : "mo.send.maxpat",
				"bootpath" : "~/Documents/Max 8/Packages/modulo/patchers/output",
				"patcherrelativepath" : "../../patchers/output",
				"type" : "JSON",
				"implicit" : 1
			}
, 			{
				"name" : "mo.vslider.maxpat",
				"bootpath" : "~/Documents/Max 8/Packages/modulo/patchers/input",
				"patcherrelativepath" : "../../patchers/input",
				"type" : "JSON",
				"implicit" : 1
			}
, 			{
				"name" : "p-wave.json",
				"bootpath" : "~/Documents/Max 8/Packages/modulo/misc/presets",
				"patcherrelativepath" : "../../misc/presets",
				"type" : "JSON",
				"implicit" : 1
			}
, 			{
				"name" : "unlock.svg",
				"bootpath" : "C74:/interfaces",
				"type" : "svg",
				"implicit" : 1
			}
 ],
		"autosave" : 0,
		"bgcolor" : [ 0.898, 0.898, 0.898, 1.0 ],
		"editing_bgcolor" : [ 0.898, 0.898, 0.898, 1.0 ]
	}

}
