{
	"patcher" : 	{
		"fileversion" : 1,
		"appversion" : 		{
			"major" : 8,
			"minor" : 5,
			"revision" : 6,
			"architecture" : "x64",
			"modernui" : 1
		}
,
		"classnamespace" : "box",
		"rect" : [ 34.0, 87.0, 431.0, 526.0 ],
		"bglocked" : 0,
		"openinpresentation" : 0,
		"default_fontsize" : 12.0,
		"default_fontface" : 0,
		"default_fontname" : "Ableton Sans Medium",
		"gridonopen" : 2,
		"gridsize" : [ 10.0, 10.0 ],
		"gridsnaponopen" : 2,
		"objectsnaponopen" : 1,
		"statusbarvisible" : 2,
		"toolbarvisible" : 1,
		"lefttoolbarpinned" : 0,
		"toptoolbarpinned" : 0,
		"righttoolbarpinned" : 0,
		"bottomtoolbarpinned" : 0,
		"toolbars_unpinned_last_save" : 0,
		"tallnewobj" : 0,
		"boxanimatetime" : 200,
		"enablehscroll" : 1,
		"enablevscroll" : 1,
		"devicewidth" : 0.0,
		"description" : "",
		"digest" : "",
		"tags" : "",
		"style" : "",
		"subpatcher_template" : "mo.main",
		"helpsidebarclosed" : 1,
		"assistshowspatchername" : 0,
		"boxes" : [ 			{
				"box" : 				{
					"candycane" : 8,
					"contdata" : 1,
					"id" : "obj-12",
					"maxclass" : "multislider",
					"numinlets" : 1,
					"numoutlets" : 2,
					"orientation" : 0,
					"outlettype" : [ "", "" ],
					"parameter_enable" : 0,
					"patching_rect" : [ 41.0, 165.0, 172.0, 61.0 ],
					"setstyle" : 1,
					"signed" : 1,
					"size" : 4,
					"spacing" : 2
				}

			}
, 			{
				"box" : 				{
					"fontname" : "Ableton Sans Medium",
					"fontsize" : 13.0,
					"id" : "obj-30",
					"linecount" : 2,
					"maxclass" : "comment",
					"numinlets" : 1,
					"numoutlets" : 0,
					"patching_rect" : [ 9.0, 102.0, 354.0, 38.0 ],
					"text" : "Connect/disconnet cables to route a list of data. \nClick on a cable and hit \"backspace\" to delete a connection.",
					"textcolor" : [ 0.274509803921569, 0.274509803921569, 0.274509803921569, 1.0 ]
				}

			}
, 			{
				"box" : 				{
					"fontname" : "Ableton Sans Medium",
					"fontsize" : 14.0,
					"id" : "obj-26",
					"maxclass" : "comment",
					"numinlets" : 1,
					"numoutlets" : 0,
					"patching_rect" : [ 9.0, 83.0, 145.0, 23.0 ],
					"text" : "A data routing object."
				}

			}
, 			{
				"box" : 				{
					"fontface" : 0,
					"fontname" : "Ableton Sans Medium",
					"fontsize" : 54.0,
					"id" : "obj-24",
					"maxclass" : "comment",
					"numinlets" : 1,
					"numoutlets" : 0,
					"patching_rect" : [ 9.0, 9.0, 360.0, 71.0 ],
					"text" : "mo.crosspatch"
				}

			}
, 			{
				"box" : 				{
					"id" : "obj-11",
					"maxclass" : "number",
					"numinlets" : 1,
					"numoutlets" : 2,
					"outlettype" : [ "", "bang" ],
					"parameter_enable" : 0,
					"patching_rect" : [ 301.0, 165.0, 50.0, 23.0 ]
				}

			}
, 			{
				"box" : 				{
					"id" : "obj-9",
					"maxclass" : "number",
					"numinlets" : 1,
					"numoutlets" : 2,
					"outlettype" : [ "", "bang" ],
					"parameter_enable" : 0,
					"patching_rect" : [ 236.0, 165.0, 50.0, 23.0 ]
				}

			}
, 			{
				"box" : 				{
					"id" : "obj-7",
					"maxclass" : "message",
					"numinlets" : 2,
					"numoutlets" : 1,
					"outlettype" : [ "" ],
					"patching_rect" : [ 371.0, 206.499999999999886, 35.0, 23.0 ],
					"text" : "clear"
				}

			}
, 			{
				"box" : 				{
					"id" : "obj-5",
					"maxclass" : "message",
					"numinlets" : 2,
					"numoutlets" : 1,
					"outlettype" : [ "" ],
					"patching_rect" : [ 301.0, 206.499999999999886, 49.0, 23.0 ],
					"text" : "outs $1"
				}

			}
, 			{
				"box" : 				{
					"id" : "obj-4",
					"maxclass" : "message",
					"numinlets" : 2,
					"numoutlets" : 1,
					"outlettype" : [ "" ],
					"patching_rect" : [ 236.0, 206.499999999999886, 41.0, 23.0 ],
					"text" : "ins $1"
				}

			}
, 			{
				"box" : 				{
					"candycane" : 8,
					"contdata" : 1,
					"id" : "obj-2",
					"maxclass" : "multislider",
					"numinlets" : 1,
					"numoutlets" : 2,
					"orientation" : 0,
					"outlettype" : [ "", "" ],
					"parameter_enable" : 0,
					"patching_rect" : [ 41.0, 445.499999999999886, 172.0, 61.0 ],
					"setstyle" : 1,
					"signed" : 1,
					"size" : 4,
					"spacing" : 2,
					"varname" : "mo.sliders[1]"
				}

			}
, 			{
				"box" : 				{
					"args" : [ 4, 4 ],
					"bgmode" : 0,
					"border" : 1,
					"clickthrough" : 0,
					"enablehscroll" : 0,
					"enablevscroll" : 0,
					"id" : "obj-1",
					"lockeddragscroll" : 0,
					"lockedsize" : 0,
					"maxclass" : "bpatcher",
					"name" : "mo.crosspatch.maxpat",
					"numinlets" : 2,
					"numoutlets" : 1,
					"offset" : [ 0.0, 0.0 ],
					"outlettype" : [ "" ],
					"patching_rect" : [ 41.0, 272.5, 214.0, 126.0 ],
					"varname" : "mo.crosspatch",
					"viewvisibility" : 1
				}

			}
 ],
		"lines" : [ 			{
				"patchline" : 				{
					"destination" : [ "obj-2", 0 ],
					"midpoints" : [ 50.5, 399.0, 50.5, 399.0 ],
					"source" : [ "obj-1", 0 ]
				}

			}
, 			{
				"patchline" : 				{
					"destination" : [ "obj-5", 0 ],
					"midpoints" : [ 310.5, 189.0, 310.5, 189.0 ],
					"source" : [ "obj-11", 0 ]
				}

			}
, 			{
				"patchline" : 				{
					"destination" : [ "obj-1", 0 ],
					"midpoints" : [ 50.5, 228.0, 50.5, 228.0 ],
					"source" : [ "obj-12", 0 ]
				}

			}
, 			{
				"patchline" : 				{
					"destination" : [ "obj-1", 1 ],
					"midpoints" : [ 245.5, 231.0, 245.5, 231.0 ],
					"source" : [ "obj-4", 0 ]
				}

			}
, 			{
				"patchline" : 				{
					"destination" : [ "obj-1", 1 ],
					"midpoints" : [ 310.5, 258.0, 245.5, 258.0 ],
					"source" : [ "obj-5", 0 ]
				}

			}
, 			{
				"patchline" : 				{
					"destination" : [ "obj-1", 1 ],
					"midpoints" : [ 380.5, 258.0, 245.5, 258.0 ],
					"source" : [ "obj-7", 0 ]
				}

			}
, 			{
				"patchline" : 				{
					"destination" : [ "obj-4", 0 ],
					"midpoints" : [ 245.5, 189.0, 245.5, 189.0 ],
					"source" : [ "obj-9", 0 ]
				}

			}
 ],
		"parameters" : 		{
			"obj-1::obj-1" : [ "live.text[3]", "live.text", 0 ],
			"obj-1::obj-2" : [ "live.text[8]", "live.text", 0 ],
			"obj-1::obj-37" : [ "live.numbox[1]", "live.numbox", 0 ],
			"obj-1::obj-39" : [ "live.numbox[2]", "live.numbox", 0 ],
			"obj-1::obj-42" : [ "live.text[555]", "live.text", 0 ],
			"parameterbanks" : 			{
				"0" : 				{
					"index" : 0,
					"name" : "",
					"parameters" : [ "-", "-", "-", "-", "-", "-", "-", "-" ]
				}

			}
,
			"parameter_overrides" : 			{
				"obj-1::obj-1" : 				{
					"parameter_longname" : "live.text[3]"
				}
,
				"obj-1::obj-2" : 				{
					"parameter_longname" : "live.text[8]"
				}
,
				"obj-1::obj-37" : 				{
					"parameter_longname" : "live.numbox[1]"
				}
,
				"obj-1::obj-39" : 				{
					"parameter_longname" : "live.numbox[2]"
				}
,
				"obj-1::obj-42" : 				{
					"parameter_longname" : "live.text[555]"
				}

			}
,
			"inherited_shortname" : 1
		}
,
		"dependency_cache" : [ 			{
				"name" : "a-mo.exposer.maxpat",
				"bootpath" : "~/Documents/Max 8/Packages/modulo/misc/abstractions",
				"patcherrelativepath" : "../../misc/abstractions",
				"type" : "JSON",
				"implicit" : 1
			}
, 			{
				"name" : "a-mo.settings.maxpat",
				"bootpath" : "~/Documents/Max 8/Packages/modulo/misc/abstractions",
				"patcherrelativepath" : "../../misc/abstractions",
				"type" : "JSON",
				"implicit" : 1
			}
, 			{
				"name" : "mo.crosspatch.maxpat",
				"bootpath" : "~/Documents/Max 8/Packages/modulo/patchers/route",
				"patcherrelativepath" : "../../patchers/route",
				"type" : "JSON",
				"implicit" : 1
			}
 ],
		"autosave" : 0,
		"textcolor" : [ 0.0, 0.0, 0.0, 1.0 ],
		"bgcolor" : [ 0.898, 0.898, 0.898, 1.0 ],
		"editing_bgcolor" : [ 0.898, 0.898, 0.898, 1.0 ]
	}

}
