{
    "patcher": {
        "fileversion": 1,
        "appversion": {
            "major": 9,
            "minor": 1,
            "revision": 0,
            "architecture": "x64",
            "modernui": 1
        },
        "classnamespace": "box",
        "rect": [ 34.0, 96.0, 416.0, 428.0 ],
        "default_fontname": "Ableton Sans Medium",
        "gridonopen": 2,
        "gridsize": [ 10.0, 10.0 ],
        "subpatcher_template": " ",
        "helpsidebarclosed": 1,
        "boxes": [
            {
                "box": {
                    "bubble": 1,
                    "fontname": "Ableton Sans Medium",
                    "fontsize": 12.0,
                    "id": "obj-17",
                    "maxclass": "comment",
                    "numinlets": 1,
                    "numoutlets": 0,
                    "patching_rect": [ 296.0, 317.5, 82.0, 25.0 ],
                    "text": "send value"
                }
            },
            {
                "box": {
                    "bgcolor": [ 1.0, 0.788235, 0.470588, 1.0 ],
                    "fontname": "Ableton Sans Medium",
                    "fontsize": 10.0,
                    "hint": "",
                    "id": "obj-18",
                    "ignoreclick": 1,
                    "legacytextcolor": 1,
                    "maxclass": "textbutton",
                    "numinlets": 1,
                    "numoutlets": 3,
                    "outlettype": [ "", "", "int" ],
                    "parameter_enable": 0,
                    "patching_rect": [ 269.0, 319.5, 20.0, 20.0 ],
                    "rounded": 60.0,
                    "text": "2",
                    "textcolor": [ 0.34902, 0.34902, 0.34902, 1.0 ]
                }
            },
            {
                "box": {
                    "format": 6,
                    "id": "obj-16",
                    "maxclass": "flonum",
                    "numinlets": 1,
                    "numoutlets": 2,
                    "outlettype": [ "", "bang" ],
                    "parameter_enable": 0,
                    "patching_rect": [ 213.0, 318.5, 50.0, 23.0 ]
                }
            },
            {
                "box": {
                    "format": 6,
                    "id": "obj-12",
                    "maxclass": "flonum",
                    "numinlets": 1,
                    "numoutlets": 2,
                    "outlettype": [ "", "bang" ],
                    "parameter_enable": 0,
                    "patching_rect": [ 41.0, 384.0, 50.0, 23.0 ]
                }
            },
            {
                "box": {
                    "bubble": 1,
                    "fontname": "Ableton Sans Medium",
                    "fontsize": 12.0,
                    "id": "obj-33",
                    "maxclass": "comment",
                    "numinlets": 1,
                    "numoutlets": 0,
                    "patching_rect": [ 72.0, 166.0, 92.0, 25.0 ],
                    "text": "mute output"
                }
            },
            {
                "box": {
                    "fontname": "Ableton Sans Medium",
                    "fontsize": 13.0,
                    "id": "obj-30",
                    "maxclass": "comment",
                    "numinlets": 1,
                    "numoutlets": 0,
                    "patching_rect": [ 9.0, 102.0, 391.0, 22.0 ],
                    "saved_attribute_attributes": {
                        "textcolor": {
                            "expression": "themecolor.live_control_fg_off_zombie"
                        }
                    },
                    "text": "Grab from a send or forward object sharing the same device name.",
                    "textcolor": [ 0.57636836783545, 0.576368229540612, 0.576368265679262, 1.0 ]
                }
            },
            {
                "box": {
                    "fontname": "Ableton Sans Medium",
                    "fontsize": 14.0,
                    "id": "obj-23",
                    "maxclass": "comment",
                    "numinlets": 1,
                    "numoutlets": 0,
                    "patching_rect": [ 9.0, 83.0, 253.0, 23.0 ],
                    "text": "Receive messages without patch cords."
                }
            },
            {
                "box": {
                    "fontface": 0,
                    "fontname": "Ableton Sans Medium",
                    "fontsize": 54.0,
                    "id": "obj-1",
                    "maxclass": "comment",
                    "numinlets": 1,
                    "numoutlets": 0,
                    "patching_rect": [ 9.0, 9.0, 270.0, 71.0 ],
                    "text": "mo.receive"
                }
            },
            {
                "box": {
                    "id": "obj-15",
                    "maxclass": "toggle",
                    "numinlets": 1,
                    "numoutlets": 1,
                    "outlettype": [ "int" ],
                    "parameter_enable": 0,
                    "patching_rect": [ 41.0, 166.0, 24.0, 24.0 ],
                    "varname": "toggle[2]"
                }
            },
            {
                "box": {
                    "id": "obj-2",
                    "maxclass": "message",
                    "numinlets": 2,
                    "numoutlets": 1,
                    "outlettype": [ "" ],
                    "patching_rect": [ 41.0, 204.3754593282938, 53.0, 23.0 ],
                    "text": "mute $1"
                }
            },
            {
                "box": {
                    "bubble": 1,
                    "fontname": "Ableton Sans Medium",
                    "fontsize": 12.0,
                    "id": "obj-9",
                    "maxclass": "comment",
                    "numinlets": 1,
                    "numoutlets": 0,
                    "patching_rect": [ 240.0, 203.3754593282938, 74.0, 25.0 ],
                    "text": "set name"
                }
            },
            {
                "box": {
                    "bgcolor": [ 1.0, 0.788235, 0.470588, 1.0 ],
                    "fontname": "Ableton Sans Medium",
                    "fontsize": 10.0,
                    "hint": "",
                    "id": "obj-35",
                    "ignoreclick": 1,
                    "legacytextcolor": 1,
                    "maxclass": "textbutton",
                    "numinlets": 1,
                    "numoutlets": 3,
                    "outlettype": [ "", "", "int" ],
                    "parameter_enable": 0,
                    "patching_rect": [ 213.0, 205.8754593282938, 20.0, 20.0 ],
                    "rounded": 60.0,
                    "text": "1",
                    "textcolor": [ 0.34902, 0.34902, 0.34902, 1.0 ]
                }
            },
            {
                "box": {
                    "id": "obj-27",
                    "maxclass": "message",
                    "numinlets": 2,
                    "numoutlets": 1,
                    "outlettype": [ "" ],
                    "patching_rect": [ 171.2557915740606, 204.3754593282938, 29.5, 23.0 ],
                    "text": "\" \""
                }
            },
            {
                "box": {
                    "id": "obj-26",
                    "maxclass": "message",
                    "numinlets": 2,
                    "numoutlets": 1,
                    "outlettype": [ "" ],
                    "patching_rect": [ 123.0, 204.3754593282938, 37.0, 23.0 ],
                    "text": "value"
                }
            },
            {
                "box": {
                    "id": "obj-7",
                    "maxclass": "newobj",
                    "numinlets": 1,
                    "numoutlets": 1,
                    "outlettype": [ "" ],
                    "patching_rect": [ 123.0, 256.0, 72.0, 23.0 ],
                    "text": "prepend set"
                }
            },
            {
                "box": {
                    "id": "obj-5",
                    "maxclass": "newobj",
                    "numinlets": 1,
                    "numoutlets": 0,
                    "patching_rect": [ 213.0, 383.5, 65.0, 23.0 ],
                    "text": "send value"
                }
            },
            {
                "box": {
                    "bgmode": 0,
                    "border": 1,
                    "clickthrough": 0,
                    "enablehscroll": 0,
                    "enablevscroll": 0,
                    "id": "obj-4",
                    "lockeddragscroll": 0,
                    "lockedsize": 0,
                    "maxclass": "bpatcher",
                    "name": "mo.receive.maxpat",
                    "numinlets": 1,
                    "numoutlets": 1,
                    "offset": [ 0.0, 0.0 ],
                    "outlettype": [ "" ],
                    "patching_rect": [ 41.0, 318.5, 70.0, 45.0 ],
                    "varname": "mo.receive",
                    "viewvisibility": 1
                }
            }
        ],
        "lines": [
            {
                "patchline": {
                    "destination": [ "obj-2", 0 ],
                    "midpoints": [ 50.5, 192.0, 50.5, 192.0 ],
                    "source": [ "obj-15", 0 ]
                }
            },
            {
                "patchline": {
                    "destination": [ "obj-5", 0 ],
                    "midpoints": [ 222.5, 342.0000000000001, 222.5, 342.0000000000001 ],
                    "source": [ "obj-16", 0 ]
                }
            },
            {
                "patchline": {
                    "destination": [ "obj-4", 0 ],
                    "midpoints": [ 50.5, 228.0, 50.5, 228.0 ],
                    "source": [ "obj-2", 0 ]
                }
            },
            {
                "patchline": {
                    "destination": [ "obj-7", 0 ],
                    "midpoints": [ 132.5, 228.0, 132.5, 228.0 ],
                    "source": [ "obj-26", 0 ]
                }
            },
            {
                "patchline": {
                    "destination": [ "obj-7", 0 ],
                    "midpoints": [ 180.7557915740606, 243.0, 132.5, 243.0 ],
                    "source": [ "obj-27", 0 ]
                }
            },
            {
                "patchline": {
                    "destination": [ "obj-12", 0 ],
                    "midpoints": [ 50.5, 366.0, 50.5, 366.0 ],
                    "source": [ "obj-4", 0 ]
                }
            },
            {
                "patchline": {
                    "destination": [ "obj-4", 0 ],
                    "midpoints": [ 132.5, 303.0, 50.5, 303.0 ],
                    "source": [ "obj-7", 0 ]
                }
            }
        ],
        "parameters": {
            "obj-4::obj-12": [ "live.text[555]", "live.text", 0 ],
            "obj-4::obj-6": [ "live.text[125]", "live.text", 0 ],
            "parameter_overrides": {
                "obj-4::obj-12": {
                    "parameter_longname": "live.text[555]"
                },
                "obj-4::obj-6": {
                    "parameter_longname": "live.text[125]"
                }
            },
            "inherited_shortname": 1
        },
        "autosave": 0
    }
}