{
    "patcher": {
        "fileversion": 1,
        "appversion": {
            "major": 9,
            "minor": 1,
            "revision": 0,
            "architecture": "x64",
            "modernui": 1
        },
        "classnamespace": "box",
        "rect": [ 34.0, 96.0, 681.0, 484.0 ],
        "default_fontname": "Ableton Sans Medium",
        "gridonopen": 2,
        "gridsize": [ 10.0, 10.0 ],
        "subpatcher_template": " ",
        "helpsidebarclosed": 1,
        "boxes": [
            {
                "box": {
                    "id": "obj-1",
                    "local": 1,
                    "maxclass": "ezdac~",
                    "numinlets": 2,
                    "numoutlets": 0,
                    "patching_rect": [ 500.0, 398.4999999999999, 48.0, 48.0 ]
                }
            },
            {
                "box": {
                    "bubble": 1,
                    "fontname": "Ableton Sans Medium",
                    "fontsize": 12.0,
                    "id": "obj-2",
                    "maxclass": "comment",
                    "numinlets": 1,
                    "numoutlets": 0,
                    "patching_rect": [ 587.7147454545452, 409.4999999999999, 74.0, 25.0 ],
                    "text": "start dsp"
                }
            },
            {
                "box": {
                    "bgcolor": [ 1.0, 0.788235, 0.470588, 1.0 ],
                    "bgoncolor": [ 0.55, 0.55, 0.55, 1.0 ],
                    "fontname": "Ableton Sans Medium",
                    "fontsize": 10.0,
                    "hint": "",
                    "id": "obj-18",
                    "ignoreclick": 1,
                    "legacytextcolor": 1,
                    "maxclass": "textbutton",
                    "numinlets": 1,
                    "numoutlets": 3,
                    "outlettype": [ "", "", "int" ],
                    "parameter_enable": 0,
                    "patching_rect": [ 559.0, 412.4999999999999, 20.0, 20.0 ],
                    "rounded": 60.0,
                    "text": "1",
                    "textcolor": [ 0.34902, 0.34902, 0.34902, 1.0 ],
                    "textoncolor": [ 1.0, 1.0, 1.0, 1.0 ],
                    "textovercolor": [ 0.1, 0.1, 0.1, 1.0 ],
                    "usebgoncolor": 1,
                    "usetextovercolor": 1
                }
            },
            {
                "box": {
                    "bubble": 1,
                    "fontname": "Ableton Sans Medium",
                    "fontsize": 12.0,
                    "id": "obj-50",
                    "maxclass": "comment",
                    "numinlets": 1,
                    "numoutlets": 0,
                    "patching_rect": [ 453.3333333333335, 292.86989365518093, 92.0, 25.0 ],
                    "text": "mute output"
                }
            },
            {
                "box": {
                    "id": "obj-46",
                    "maxclass": "toggle",
                    "numinlets": 1,
                    "numoutlets": 1,
                    "outlettype": [ "int" ],
                    "parameter_enable": 0,
                    "patching_rect": [ 420.0, 292.86989365518093, 24.0, 24.0 ]
                }
            },
            {
                "box": {
                    "id": "obj-47",
                    "maxclass": "message",
                    "numinlets": 2,
                    "numoutlets": 1,
                    "outlettype": [ "" ],
                    "patching_rect": [ 420.0, 346.29701232910156, 53.0, 23.0 ],
                    "text": "mute $1"
                }
            },
            {
                "box": {
                    "bgcolor": [ 1.0, 0.788235, 0.470588, 1.0 ],
                    "bgoncolor": [ 0.55, 0.55, 0.55, 1.0 ],
                    "fontname": "Ableton Sans Medium",
                    "fontsize": 10.0,
                    "hint": "",
                    "id": "obj-45",
                    "ignoreclick": 1,
                    "legacytextcolor": 1,
                    "maxclass": "textbutton",
                    "numinlets": 1,
                    "numoutlets": 3,
                    "outlettype": [ "", "", "int" ],
                    "parameter_enable": 0,
                    "patching_rect": [ 72.0, 168.5, 20.0, 20.0 ],
                    "rounded": 60.0,
                    "text": "4",
                    "textcolor": [ 0.34902, 0.34902, 0.34902, 1.0 ],
                    "textoncolor": [ 1.0, 1.0, 1.0, 1.0 ],
                    "textovercolor": [ 0.1, 0.1, 0.1, 1.0 ],
                    "usebgoncolor": 1,
                    "usetextovercolor": 1
                }
            },
            {
                "box": {
                    "id": "obj-31",
                    "maxclass": "meter~",
                    "numinlets": 1,
                    "numoutlets": 1,
                    "outlettype": [ "float" ],
                    "patching_rect": [ 291.2557915740606, 441.9999999999999, 164.0, 22.0 ]
                }
            },
            {
                "box": {
                    "bubble": 1,
                    "fontname": "Ableton Sans Medium",
                    "fontsize": 12.0,
                    "id": "obj-33",
                    "maxclass": "comment",
                    "numinlets": 1,
                    "numoutlets": 0,
                    "patching_rect": [ 101.0, 166.0, 106.0, 25.0 ],
                    "text": "generate audio"
                }
            },
            {
                "box": {
                    "fontname": "Ableton Sans Medium",
                    "fontsize": 13.0,
                    "id": "obj-30",
                    "linecount": 2,
                    "maxclass": "comment",
                    "numinlets": 1,
                    "numoutlets": 0,
                    "patching_rect": [ 9.0, 102.0, 550.0, 38.0 ],
                    "saved_attribute_attributes": {
                        "textcolor": {
                            "expression": "themecolor.live_control_fg_off_zombie"
                        }
                    },
                    "text": "Send to an mc.receive~ object sharing the same device name.\nEach time the number of channels is changed, the DSP will be turned off and on automatically.",
                    "textcolor": [ 0.57636836783545, 0.576368229540612, 0.576368265679262, 1.0 ]
                }
            },
            {
                "box": {
                    "fontname": "Ableton Sans Medium",
                    "fontsize": 14.0,
                    "id": "obj-23",
                    "maxclass": "comment",
                    "numinlets": 1,
                    "numoutlets": 0,
                    "patching_rect": [ 9.0, 83.0, 339.0, 23.0 ],
                    "text": "Send multichannel audio signals without patch cords."
                }
            },
            {
                "box": {
                    "fontface": 0,
                    "fontname": "Ableton Sans Medium",
                    "fontsize": 54.0,
                    "id": "obj-22",
                    "maxclass": "comment",
                    "numinlets": 1,
                    "numoutlets": 0,
                    "patching_rect": [ 9.0, 9.0, 242.0, 71.0 ],
                    "text": "mo.send~"
                }
            },
            {
                "box": {
                    "id": "obj-24",
                    "maxclass": "toggle",
                    "numinlets": 1,
                    "numoutlets": 1,
                    "outlettype": [ "int" ],
                    "parameter_enable": 0,
                    "patching_rect": [ 41.0, 166.0, 24.0, 24.0 ],
                    "varname": "toggle[2]"
                }
            },
            {
                "box": {
                    "id": "obj-25",
                    "maxclass": "newobj",
                    "numinlets": 1,
                    "numoutlets": 1,
                    "outlettype": [ "multichannelsignal" ],
                    "patching_rect": [ 41.0, 204.3754593282938, 115.0, 23.0 ],
                    "text": "mc.rand~ @chans 2"
                }
            },
            {
                "box": {
                    "bubble": 1,
                    "fontname": "Ableton Sans Medium",
                    "fontsize": 12.0,
                    "id": "obj-26",
                    "maxclass": "comment",
                    "numinlets": 1,
                    "numoutlets": 0,
                    "patching_rect": [ 355.0, 203.3754593282938, 74.0, 25.0 ],
                    "text": "set name"
                }
            },
            {
                "box": {
                    "bgcolor": [ 1.0, 0.788235, 0.470588, 1.0 ],
                    "fontname": "Ableton Sans Medium",
                    "fontsize": 10.0,
                    "hint": "",
                    "id": "obj-27",
                    "ignoreclick": 1,
                    "legacytextcolor": 1,
                    "maxclass": "textbutton",
                    "numinlets": 1,
                    "numoutlets": 3,
                    "outlettype": [ "", "", "int" ],
                    "parameter_enable": 0,
                    "patching_rect": [ 328.0, 205.8754593282938, 20.0, 20.0 ],
                    "rounded": 60.0,
                    "text": "1",
                    "textcolor": [ 0.34902, 0.34902, 0.34902, 1.0 ]
                }
            },
            {
                "box": {
                    "id": "obj-28",
                    "maxclass": "message",
                    "numinlets": 2,
                    "numoutlets": 1,
                    "outlettype": [ "" ],
                    "patching_rect": [ 286.2557915740606, 204.3754593282938, 29.5, 23.0 ],
                    "text": "\" \""
                }
            },
            {
                "box": {
                    "id": "obj-29",
                    "maxclass": "message",
                    "numinlets": 2,
                    "numoutlets": 1,
                    "outlettype": [ "" ],
                    "patching_rect": [ 236.0, 204.3754593282938, 41.0, 23.0 ],
                    "text": "send~"
                }
            },
            {
                "box": {
                    "id": "obj-35",
                    "maxclass": "newobj",
                    "numinlets": 1,
                    "numoutlets": 1,
                    "outlettype": [ "" ],
                    "patching_rect": [ 236.0, 256.0, 72.0, 23.0 ],
                    "text": "prepend set"
                }
            },
            {
                "box": {
                    "bubble": 1,
                    "fontname": "Ableton Sans Medium",
                    "fontsize": 12.0,
                    "id": "obj-40",
                    "maxclass": "comment",
                    "numinlets": 1,
                    "numoutlets": 0,
                    "patching_rect": [ 447.3333333333335, 255.0, 92.0, 25.0 ],
                    "text": "set channels"
                }
            },
            {
                "box": {
                    "bgcolor": [ 1.0, 0.788235, 0.470588, 1.0 ],
                    "fontname": "Ableton Sans Medium",
                    "fontsize": 10.0,
                    "hint": "",
                    "id": "obj-41",
                    "ignoreclick": 1,
                    "legacytextcolor": 1,
                    "maxclass": "textbutton",
                    "numinlets": 1,
                    "numoutlets": 3,
                    "outlettype": [ "", "", "int" ],
                    "parameter_enable": 0,
                    "patching_rect": [ 420.0, 257.5, 20.0, 20.0 ],
                    "rounded": 60.0,
                    "text": "2",
                    "textcolor": [ 0.34902, 0.34902, 0.34902, 1.0 ]
                }
            },
            {
                "box": {
                    "id": "obj-42",
                    "maxclass": "number",
                    "numinlets": 1,
                    "numoutlets": 2,
                    "outlettype": [ "", "bang" ],
                    "parameter_enable": 0,
                    "patching_rect": [ 362.0, 256.0, 50.0, 23.0 ]
                }
            },
            {
                "box": {
                    "id": "obj-43",
                    "maxclass": "newobj",
                    "numinlets": 1,
                    "numoutlets": 1,
                    "outlettype": [ "multichannelsignal" ],
                    "patching_rect": [ 291.2557915740606, 398.4999999999999, 164.0, 23.0 ],
                    "text": "mc.receive~ send~ @chans 2"
                }
            },
            {
                "box": {
                    "bgmode": 0,
                    "border": 1,
                    "clickthrough": 0,
                    "enablehscroll": 0,
                    "enablevscroll": 0,
                    "id": "obj-44",
                    "lockeddragscroll": 0,
                    "lockedsize": 0,
                    "maxclass": "bpatcher",
                    "name": "mo.send~.maxpat",
                    "numinlets": 2,
                    "numoutlets": 1,
                    "offset": [ 0.0, 0.0 ],
                    "outlettype": [ "multichannelsignal" ],
                    "patching_rect": [ 41.0, 398.5, 214.0, 45.0 ],
                    "varname": "mo.send~",
                    "viewvisibility": 1
                }
            }
        ],
        "lines": [
            {
                "patchline": {
                    "destination": [ "obj-25", 0 ],
                    "midpoints": [ 50.5, 192.0, 50.5, 192.0 ],
                    "source": [ "obj-24", 0 ]
                }
            },
            {
                "patchline": {
                    "destination": [ "obj-44", 0 ],
                    "midpoints": [ 50.5, 228.0, 50.5, 228.0 ],
                    "source": [ "obj-25", 0 ]
                }
            },
            {
                "patchline": {
                    "destination": [ "obj-35", 0 ],
                    "midpoints": [ 295.7557915740606, 243.0, 245.5, 243.0 ],
                    "source": [ "obj-28", 0 ]
                }
            },
            {
                "patchline": {
                    "destination": [ "obj-35", 0 ],
                    "midpoints": [ 245.5, 228.0, 245.5, 228.0 ],
                    "source": [ "obj-29", 0 ]
                }
            },
            {
                "patchline": {
                    "destination": [ "obj-44", 1 ],
                    "midpoints": [ 245.5, 282.0, 245.5, 282.0 ],
                    "source": [ "obj-35", 0 ]
                }
            },
            {
                "patchline": {
                    "destination": [ "obj-44", 1 ],
                    "midpoints": [ 371.5, 384.0, 245.5, 384.0 ],
                    "source": [ "obj-42", 0 ]
                }
            },
            {
                "patchline": {
                    "destination": [ "obj-31", 0 ],
                    "midpoints": [ 300.7557915740606, 423.0, 300.7557915740606, 423.0 ],
                    "source": [ "obj-43", 0 ]
                }
            },
            {
                "patchline": {
                    "destination": [ "obj-47", 0 ],
                    "midpoints": [ 429.5, 318.0, 429.5, 318.0 ],
                    "source": [ "obj-46", 0 ]
                }
            },
            {
                "patchline": {
                    "destination": [ "obj-44", 1 ],
                    "midpoints": [ 429.5, 384.0, 245.5, 384.0 ],
                    "source": [ "obj-47", 0 ]
                }
            }
        ],
        "parameters": {
            "obj-44::obj-10": [ "live.text[586]", "live.text", 0 ],
            "obj-44::obj-12": [ "live.text[557]", "live.text", 0 ],
            "obj-44::obj-56": [ "live.numbox[567]", "live.numbox", 0 ],
            "parameter_overrides": {
                "obj-44::obj-10": {
                    "parameter_longname": "live.text[586]"
                },
                "obj-44::obj-12": {
                    "parameter_longname": "live.text[557]"
                },
                "obj-44::obj-56": {
                    "parameter_longname": "live.numbox[567]"
                }
            },
            "inherited_shortname": 1
        },
        "autosave": 0
    }
}