{
	"patcher" : 	{
		"fileversion" : 1,
		"appversion" : 		{
			"major" : 9,
			"minor" : 0,
			"revision" : 3,
			"architecture" : "x64",
			"modernui" : 1
		}
,
		"classnamespace" : "box",
		"rect" : [ 34.0, 96.0, 498.0, 646.0 ],
		"default_fontname" : "Ableton Sans Medium",
		"gridonopen" : 2,
		"gridsize" : [ 10.0, 10.0 ],
		"subpatcher_template" : " ",
		"helpsidebarclosed" : 1,
		"boxes" : [ 			{
				"box" : 				{
					"bubble" : 1,
					"fontname" : "Ableton Sans Medium",
					"fontsize" : 12.0,
					"id" : "obj-1",
					"linecount" : 2,
					"maxclass" : "comment",
					"numinlets" : 1,
					"numoutlets" : 0,
					"patching_rect" : [ 290.75, 396.5, 131.0, 39.0 ],
					"text" : "type \"value-1\", \n          \"value-2\", etc."
				}

			}
, 			{
				"box" : 				{
					"bgcolor" : [ 1.0, 0.788235, 0.470588, 1.0 ],
					"fontname" : "Ableton Sans Medium",
					"fontsize" : 10.0,
					"hint" : "",
					"id" : "obj-3",
					"ignoreclick" : 1,
					"legacytextcolor" : 1,
					"maxclass" : "textbutton",
					"numinlets" : 1,
					"numoutlets" : 3,
					"outlettype" : [ "", "", "int" ],
					"parameter_enable" : 0,
					"patching_rect" : [ 266.0, 406.0, 20.0, 20.0 ],
					"rounded" : 60.0,
					"text" : "1",
					"textcolor" : [ 0.34902, 0.34902, 0.34902, 1.0 ]
				}

			}
, 			{
				"box" : 				{
					"format" : 6,
					"id" : "obj-49",
					"maxclass" : "flonum",
					"numinlets" : 1,
					"numoutlets" : 2,
					"outlettype" : [ "", "bang" ],
					"parameter_enable" : 0,
					"patching_rect" : [ 206.0, 596.0, 50.0, 23.0 ]
				}

			}
, 			{
				"box" : 				{
					"dontreplace" : 1,
					"id" : "obj-47",
					"maxclass" : "message",
					"numinlets" : 2,
					"numoutlets" : 1,
					"outlettype" : [ "" ],
					"patching_rect" : [ 130.0, 596.0, 60.0, 23.0 ]
				}

			}
, 			{
				"box" : 				{
					"id" : "obj-45",
					"maxclass" : "newobj",
					"numinlets" : 2,
					"numoutlets" : 2,
					"outlettype" : [ "", "" ],
					"patching_rect" : [ 171.0, 547.500000000000114, 54.0, 23.0 ],
					"text" : "zl.slice 1"
				}

			}
, 			{
				"box" : 				{
					"id" : "obj-42",
					"maxclass" : "newobj",
					"numinlets" : 0,
					"numoutlets" : 1,
					"outlettype" : [ "" ],
					"patching_rect" : [ 171.0, 500.0, 84.0, 23.0 ],
					"text" : "receive device"
				}

			}
, 			{
				"box" : 				{
					"bubble" : 1,
					"fontname" : "Ableton Sans Medium",
					"fontsize" : 12.0,
					"id" : "obj-25",
					"maxclass" : "comment",
					"numinlets" : 1,
					"numoutlets" : 0,
					"patching_rect" : [ 251.0, 162.5, 100.0, 25.0 ],
					"text" : "generate data"
				}

			}
, 			{
				"box" : 				{
					"bgcolor" : [ 1.0, 0.788235, 0.470588, 1.0 ],
					"fontname" : "Ableton Sans Medium",
					"fontsize" : 10.0,
					"hint" : "",
					"id" : "obj-35",
					"ignoreclick" : 1,
					"legacytextcolor" : 1,
					"maxclass" : "textbutton",
					"numinlets" : 1,
					"numoutlets" : 3,
					"outlettype" : [ "", "", "int" ],
					"parameter_enable" : 0,
					"patching_rect" : [ 224.0, 165.0, 20.0, 20.0 ],
					"rounded" : 60.0,
					"text" : "3",
					"textcolor" : [ 0.34902, 0.34902, 0.34902, 1.0 ]
				}

			}
, 			{
				"box" : 				{
					"bubble" : 1,
					"fontname" : "Ableton Sans Medium",
					"fontsize" : 12.0,
					"id" : "obj-33",
					"maxclass" : "comment",
					"numinlets" : 1,
					"numoutlets" : 0,
					"patching_rect" : [ 267.0, 201.6245406717062, 92.0, 25.0 ],
					"text" : "mute output"
				}

			}
, 			{
				"box" : 				{
					"id" : "obj-15",
					"maxclass" : "toggle",
					"numinlets" : 1,
					"numoutlets" : 1,
					"outlettype" : [ "int" ],
					"parameter_enable" : 0,
					"patching_rect" : [ 236.0, 201.6245406717062, 24.0, 24.0 ],
					"svg" : "",
					"varname" : "toggle[2]"
				}

			}
, 			{
				"box" : 				{
					"id" : "obj-2",
					"maxclass" : "message",
					"numinlets" : 2,
					"numoutlets" : 1,
					"outlettype" : [ "" ],
					"patching_rect" : [ 236.0, 240.0, 53.0, 23.0 ],
					"text" : "mute $1"
				}

			}
, 			{
				"box" : 				{
					"bubble" : 1,
					"fontname" : "Ableton Sans Medium",
					"fontsize" : 12.0,
					"id" : "obj-6",
					"maxclass" : "comment",
					"numinlets" : 1,
					"numoutlets" : 0,
					"patching_rect" : [ 384.0, 239.0, 74.0, 25.0 ],
					"text" : "set name"
				}

			}
, 			{
				"box" : 				{
					"bgcolor" : [ 1.0, 0.788235, 0.470588, 1.0 ],
					"fontname" : "Ableton Sans Medium",
					"fontsize" : 10.0,
					"hint" : "",
					"id" : "obj-8",
					"ignoreclick" : 1,
					"legacytextcolor" : 1,
					"maxclass" : "textbutton",
					"numinlets" : 1,
					"numoutlets" : 3,
					"outlettype" : [ "", "", "int" ],
					"parameter_enable" : 0,
					"patching_rect" : [ 357.0, 241.5, 20.0, 20.0 ],
					"rounded" : 60.0,
					"text" : "2",
					"textcolor" : [ 0.34902, 0.34902, 0.34902, 1.0 ]
				}

			}
, 			{
				"box" : 				{
					"id" : "obj-39",
					"maxclass" : "message",
					"numinlets" : 2,
					"numoutlets" : 1,
					"outlettype" : [ "" ],
					"patching_rect" : [ 392.25, 291.6245406717062, 29.5, 23.0 ],
					"text" : "set"
				}

			}
, 			{
				"box" : 				{
					"id" : "obj-40",
					"maxclass" : "message",
					"numinlets" : 2,
					"numoutlets" : 1,
					"outlettype" : [ "" ],
					"patching_rect" : [ 306.0, 240.0, 43.0, 23.0 ],
					"text" : "device"
				}

			}
, 			{
				"box" : 				{
					"id" : "obj-41",
					"maxclass" : "newobj",
					"numinlets" : 1,
					"numoutlets" : 1,
					"outlettype" : [ "" ],
					"patching_rect" : [ 306.0, 291.6245406717062, 72.0, 23.0 ],
					"text" : "prepend set"
				}

			}
, 			{
				"box" : 				{
					"id" : "obj-27",
					"maxclass" : "newobj",
					"numinlets" : 0,
					"numoutlets" : 1,
					"outlettype" : [ "" ],
					"patching_rect" : [ 41.0, 500.0, 56.0, 23.0 ],
					"text" : "r value-1"
				}

			}
, 			{
				"box" : 				{
					"candycane" : 8,
					"contdata" : 1,
					"id" : "obj-5",
					"maxclass" : "multislider",
					"numinlets" : 1,
					"numoutlets" : 2,
					"orientation" : 0,
					"outlettype" : [ "", "" ],
					"parameter_enable" : 0,
					"patching_rect" : [ 41.0, 165.0, 172.0, 61.0 ],
					"setstyle" : 1,
					"signed" : 1,
					"size" : 4,
					"spacing" : 2
				}

			}
, 			{
				"box" : 				{
					"args" : [ 4 ],
					"bgmode" : 0,
					"border" : 1,
					"clickthrough" : 0,
					"enablehscroll" : 0,
					"enablevscroll" : 0,
					"id" : "obj-22",
					"lockeddragscroll" : 0,
					"lockedsize" : 0,
					"maxclass" : "bpatcher",
					"name" : "mo.sends.maxpat",
					"numinlets" : 2,
					"numoutlets" : 0,
					"offset" : [ 0.0, 0.0 ],
					"patching_rect" : [ 41.0, 342.5, 214.0, 129.0 ],
					"varname" : "mo.sends",
					"viewvisibility" : 1
				}

			}
, 			{
				"box" : 				{
					"dontreplace" : 1,
					"id" : "obj-21",
					"maxclass" : "message",
					"numinlets" : 2,
					"numoutlets" : 1,
					"outlettype" : [ "" ],
					"patching_rect" : [ 41.0, 547.500000000000114, 98.0, 23.0 ]
				}

			}
, 			{
				"box" : 				{
					"fontname" : "Ableton Sans Medium",
					"fontsize" : 13.0,
					"id" : "obj-30",
					"maxclass" : "comment",
					"numinlets" : 1,
					"numoutlets" : 0,
					"patching_rect" : [ 9.0, 102.0, 475.0, 22.0 ],
					"text" : "The upper message box, if set, will target receive objects sharing the same name.",
					"textcolor" : [ 0.274509803921569, 0.274509803921569, 0.274509803921569, 1.0 ]
				}

			}
, 			{
				"box" : 				{
					"fontname" : "Ableton Sans Medium",
					"fontsize" : 14.0,
					"id" : "obj-26",
					"maxclass" : "comment",
					"numinlets" : 1,
					"numoutlets" : 0,
					"patching_rect" : [ 9.0, 83.0, 471.0, 23.0 ],
					"text" : "Send a list of message to specified receive objects without patching cords."
				}

			}
, 			{
				"box" : 				{
					"fontface" : 0,
					"fontname" : "Ableton Sans Medium",
					"fontsize" : 54.0,
					"id" : "obj-24",
					"maxclass" : "comment",
					"numinlets" : 1,
					"numoutlets" : 0,
					"patching_rect" : [ 9.0, 9.0, 235.0, 71.0 ],
					"text" : "mo.sends"
				}

			}
 ],
		"lines" : [ 			{
				"patchline" : 				{
					"destination" : [ "obj-2", 0 ],
					"midpoints" : [ 245.5, 228.0, 245.5, 228.0 ],
					"source" : [ "obj-15", 0 ]
				}

			}
, 			{
				"patchline" : 				{
					"destination" : [ "obj-22", 1 ],
					"midpoints" : [ 245.5, 264.0, 245.5, 264.0 ],
					"source" : [ "obj-2", 0 ]
				}

			}
, 			{
				"patchline" : 				{
					"destination" : [ "obj-21", 1 ],
					"midpoints" : [ 50.5, 534.0, 129.5, 534.0 ],
					"source" : [ "obj-27", 0 ]
				}

			}
, 			{
				"patchline" : 				{
					"destination" : [ "obj-22", 1 ],
					"midpoints" : [ 401.75, 327.0, 245.5, 327.0 ],
					"source" : [ "obj-39", 0 ]
				}

			}
, 			{
				"patchline" : 				{
					"destination" : [ "obj-41", 0 ],
					"midpoints" : [ 315.5, 264.0, 315.5, 264.0 ],
					"source" : [ "obj-40", 0 ]
				}

			}
, 			{
				"patchline" : 				{
					"destination" : [ "obj-22", 1 ],
					"midpoints" : [ 315.5, 327.0, 245.5, 327.0 ],
					"source" : [ "obj-41", 0 ]
				}

			}
, 			{
				"patchline" : 				{
					"destination" : [ "obj-45", 0 ],
					"midpoints" : [ 180.5, 525.0, 180.5, 525.0 ],
					"source" : [ "obj-42", 0 ]
				}

			}
, 			{
				"patchline" : 				{
					"destination" : [ "obj-47", 1 ],
					"midpoints" : [ 180.5, 573.0, 180.5, 573.0 ],
					"source" : [ "obj-45", 0 ]
				}

			}
, 			{
				"patchline" : 				{
					"destination" : [ "obj-49", 0 ],
					"midpoints" : [ 215.5, 573.0, 215.5, 573.0 ],
					"source" : [ "obj-45", 1 ]
				}

			}
, 			{
				"patchline" : 				{
					"destination" : [ "obj-22", 0 ],
					"midpoints" : [ 50.5, 228.0, 50.5, 228.0 ],
					"source" : [ "obj-5", 0 ]
				}

			}
 ],
		"originid" : "pat-13199",
		"parameters" : 		{
			"obj-22::obj-107::obj-1" : [ "live.text[2]", "live.text", 0 ],
			"obj-22::obj-123::obj-1" : [ "live.text[220]", "live.text", 0 ],
			"obj-22::obj-15" : [ "live.numbox[1]", "live.text", 0 ],
			"obj-22::obj-1::obj-1" : [ "live.text[3]", "live.text", 0 ],
			"obj-22::obj-36::obj-1" : [ "live.text[4]", "live.text", 0 ],
			"obj-22::obj-4" : [ "live.text[603]", "live.text", 0 ],
			"obj-22::obj-40::obj-1" : [ "live.text[5]", "live.text", 0 ],
			"obj-22::obj-41::obj-1" : [ "live.text[6]", "live.text", 0 ],
			"obj-22::obj-42::obj-1" : [ "live.text[7]", "live.text", 0 ],
			"obj-22::obj-43::obj-1" : [ "live.text[8]", "live.text", 0 ],
			"obj-22::obj-44::obj-1" : [ "live.text[9]", "live.text", 0 ],
			"obj-22::obj-45::obj-1" : [ "live.text[10]", "live.text", 0 ],
			"obj-22::obj-46::obj-1" : [ "live.text[11]", "live.text", 0 ],
			"obj-22::obj-47::obj-1" : [ "live.text[12]", "live.text", 0 ],
			"obj-22::obj-48::obj-1" : [ "live.text[13]", "live.text", 0 ],
			"obj-22::obj-49::obj-1" : [ "live.text[14]", "live.text", 0 ],
			"obj-22::obj-50::obj-1" : [ "live.text[15]", "live.text", 0 ],
			"obj-22::obj-56" : [ "live.numbox[49]", "live.numbox", 0 ],
			"obj-22::obj-74::obj-1" : [ "live.text[1]", "live.text", 0 ],
			"parameterbanks" : 			{
				"0" : 				{
					"index" : 0,
					"name" : "",
					"parameters" : [ "-", "-", "-", "-", "-", "-", "-", "-" ]
				}

			}
,
			"parameter_overrides" : 			{
				"obj-22::obj-107::obj-1" : 				{
					"parameter_longname" : "live.text[2]"
				}
,
				"obj-22::obj-123::obj-1" : 				{
					"parameter_longname" : "live.text[220]"
				}
,
				"obj-22::obj-15" : 				{
					"parameter_longname" : "live.numbox[1]"
				}
,
				"obj-22::obj-1::obj-1" : 				{
					"parameter_longname" : "live.text[3]"
				}
,
				"obj-22::obj-36::obj-1" : 				{
					"parameter_longname" : "live.text[4]"
				}
,
				"obj-22::obj-40::obj-1" : 				{
					"parameter_longname" : "live.text[5]"
				}
,
				"obj-22::obj-41::obj-1" : 				{
					"parameter_longname" : "live.text[6]"
				}
,
				"obj-22::obj-42::obj-1" : 				{
					"parameter_longname" : "live.text[7]"
				}
,
				"obj-22::obj-43::obj-1" : 				{
					"parameter_longname" : "live.text[8]"
				}
,
				"obj-22::obj-44::obj-1" : 				{
					"parameter_longname" : "live.text[9]"
				}
,
				"obj-22::obj-45::obj-1" : 				{
					"parameter_longname" : "live.text[10]"
				}
,
				"obj-22::obj-46::obj-1" : 				{
					"parameter_longname" : "live.text[11]"
				}
,
				"obj-22::obj-47::obj-1" : 				{
					"parameter_longname" : "live.text[12]"
				}
,
				"obj-22::obj-48::obj-1" : 				{
					"parameter_longname" : "live.text[13]"
				}
,
				"obj-22::obj-49::obj-1" : 				{
					"parameter_longname" : "live.text[14]"
				}
,
				"obj-22::obj-50::obj-1" : 				{
					"parameter_longname" : "live.text[15]"
				}
,
				"obj-22::obj-74::obj-1" : 				{
					"parameter_longname" : "live.text[1]"
				}

			}
,
			"inherited_shortname" : 1
		}
,
		"dependency_cache" : [ 			{
				"name" : "a-mo.send.maxpat",
				"bootpath" : "~/Documents/Max 9/Packages/modulo/misc/abstractions",
				"patcherrelativepath" : "../../misc/abstractions",
				"type" : "JSON",
				"implicit" : 1
			}
, 			{
				"name" : "a-mo.settings.maxpat",
				"bootpath" : "~/Documents/Max 9/Packages/modulo/misc/abstractions",
				"patcherrelativepath" : "../../misc/abstractions",
				"type" : "JSON",
				"implicit" : 1
			}
, 			{
				"name" : "mo.resize.js",
				"bootpath" : "~/Documents/Max 9/Packages/modulo/misc/js",
				"patcherrelativepath" : "../../misc/js",
				"type" : "TEXT",
				"implicit" : 1
			}
, 			{
				"name" : "mo.sends.maxpat",
				"bootpath" : "~/Documents/Max 9/Packages/modulo/patchers/route",
				"patcherrelativepath" : "../../patchers/route",
				"type" : "JSON",
				"implicit" : 1
			}
 ],
		"autosave" : 0
	}

}
